<svg width="20" height="20" viewBox="0 0 20 20" fill="none" xmlns="http://www.w3.org/2000/svg">
<path fill-rule="evenodd" clip-rule="evenodd" d="M10.0057 19.7132C15.3666 19.7132 19.7125 15.3645 19.7125 10C19.7125 4.6356 15.3666 0.286865 10.0057 0.286865C4.64473 0.286865 0.298828 4.6356 0.298828 10C0.298828 15.3645 4.64473 19.7132 10.0057 19.7132ZM10.0124 12.6399C11.4658 12.6399 12.644 11.4609 12.644 10.0066C12.644 8.55226 11.4658 7.37329 10.0124 7.37329C8.55901 7.37329 7.38081 8.55226 7.38081 10.0066C7.38081 11.4609 8.55901 12.6399 10.0124 12.6399Z" fill="#F4A63E"/>
<path fill-rule="evenodd" clip-rule="evenodd" d="M15.826 3.66086C15.1735 2.48544 13.9269 1.76521 12.5833 1.78749C12.0326 1.79663 11.4869 1.68055 10.9875 1.44804C9.7692 0.880879 8.33738 1.03163 7.26387 1.83963C6.82371 2.17092 6.31392 2.39808 5.77329 2.50373C4.45448 2.76145 3.38476 3.72535 2.99083 5.01064C2.82932 5.5376 2.55028 6.02124 2.17497 6.42468C1.25957 7.4087 0.960203 8.81765 1.39656 10.0894C1.57544 10.6107 1.63374 11.1661 1.5671 11.7132C1.40456 13.0474 1.99 14.3636 3.08999 15.1358C3.54095 15.4523 3.91425 15.8672 4.18171 16.349C4.83418 17.5245 6.08086 18.2447 7.42438 18.2224C7.97512 18.2133 8.5208 18.3293 9.02025 18.5619C10.2385 19.129 11.6703 18.9783 12.7439 18.1703C13.184 17.839 13.6938 17.6118 14.2344 17.5062C15.5532 17.2484 16.623 16.2845 17.0169 14.9992C17.1784 14.4723 17.4574 13.9887 17.8327 13.5852C18.7482 12.6012 19.0475 11.1922 18.6112 9.9205C18.4323 9.39918 18.374 8.84381 18.4406 8.29674C18.6032 6.96244 18.0177 5.64627 16.9177 4.87411C16.4668 4.55754 16.0935 4.1427 15.826 3.66086ZM12.1737 7.48019C12.014 7.03975 11.5609 6.77796 11.0999 6.85981L10.4707 6.9715C10.3116 6.99975 10.1479 6.98747 9.99472 6.9358L9.38907 6.73146C8.94548 6.5818 8.45865 6.77292 8.23527 7.18442L7.92998 7.74681C7.85288 7.88884 7.74131 8.00916 7.60553 8.09671L7.06779 8.44344C6.67445 8.69706 6.52038 9.19696 6.70263 9.6283L6.95165 10.2177C7.01458 10.3666 7.03904 10.529 7.02278 10.6898L6.95846 11.3263C6.91136 11.7923 7.2061 12.2248 7.65696 12.3512L8.27216 12.5237C8.42783 12.5674 8.57002 12.6495 8.68563 12.7626L9.14253 13.2095C9.47737 13.537 9.99905 13.5761 10.3788 13.3023L10.8975 12.9284C11.0286 12.8338 11.1813 12.7739 11.3417 12.7539L11.9763 12.675C12.4407 12.6173 12.7963 12.2338 12.8191 11.7661L12.8504 11.1268C12.8582 10.9653 12.9066 10.8085 12.991 10.6707L13.325 10.1249C13.5695 9.72558 13.4915 9.20815 13.1402 8.89856L12.6605 8.47588C12.5392 8.36898 12.4467 8.23326 12.3916 8.08123L12.1737 7.48019Z" fill="#E42A93"/>
<mask id="path-3-inside-1_156_1168" fill="white">
<path fill-rule="evenodd" clip-rule="evenodd" d="M15.826 3.66086C15.1735 2.48544 13.9269 1.76521 12.5833 1.78749C12.0326 1.79663 11.4869 1.68055 10.9875 1.44804C9.7692 0.880879 8.33738 1.03163 7.26387 1.83963C6.82371 2.17092 6.31392 2.39808 5.77329 2.50373C4.45448 2.76145 3.38476 3.72535 2.99083 5.01064C2.82932 5.5376 2.55028 6.02124 2.17497 6.42468C1.25957 7.4087 0.960203 8.81765 1.39656 10.0894C1.57544 10.6107 1.63374 11.1661 1.5671 11.7132C1.40456 13.0474 1.99 14.3636 3.08999 15.1358C3.54095 15.4523 3.91425 15.8672 4.18171 16.349C4.83418 17.5245 6.08086 18.2447 7.42438 18.2224C7.97512 18.2133 8.5208 18.3293 9.02025 18.5619C10.2385 19.129 11.6703 18.9783 12.7439 18.1703C13.184 17.839 13.6938 17.6118 14.2344 17.5062C15.5532 17.2484 16.623 16.2845 17.0169 14.9992C17.1784 14.4723 17.4574 13.9887 17.8327 13.5852C18.7482 12.6012 19.0475 11.1922 18.6112 9.9205C18.4323 9.39918 18.374 8.84381 18.4406 8.29674C18.6032 6.96244 18.0177 5.64627 16.9177 4.87411C16.4668 4.55754 16.0935 4.1427 15.826 3.66086ZM12.1737 7.48019C12.014 7.03975 11.5609 6.77796 11.0999 6.85981L10.4707 6.9715C10.3116 6.99975 10.1479 6.98747 9.99472 6.9358L9.38907 6.73146C8.94548 6.5818 8.45865 6.77292 8.23527 7.18442L7.92998 7.74681C7.85288 7.88884 7.74131 8.00916 7.60553 8.09671L7.06779 8.44344C6.67445 8.69706 6.52038 9.19696 6.70263 9.6283L6.95165 10.2177C7.01458 10.3666 7.03904 10.529 7.02278 10.6898L6.95846 11.3263C6.91136 11.7923 7.2061 12.2248 7.65696 12.3512L8.27216 12.5237C8.42783 12.5674 8.57002 12.6495 8.68563 12.7626L9.14253 13.2095C9.47737 13.537 9.99905 13.5761 10.3788 13.3023L10.8975 12.9284C11.0286 12.8338 11.1813 12.7739 11.3417 12.7539L11.9763 12.675C12.4407 12.6173 12.7963 12.2338 12.8191 11.7661L12.8504 11.1268C12.8582 10.9653 12.9066 10.8085 12.991 10.6707L13.325 10.1249C13.5695 9.72558 13.4915 9.20815 13.1402 8.89856L12.6605 8.47588C12.5392 8.36898 12.4467 8.23326 12.3916 8.08123L12.1737 7.48019Z"/>
</mask>
<path d="M12.5833 1.78749L12.5769 1.39667L12.5833 1.78749ZM15.826 3.66086L16.1678 3.47116V3.47116L15.826 3.66086ZM10.9875 1.44804L10.8225 1.8024V1.8024L10.9875 1.44804ZM7.26387 1.83963L7.49893 2.15193V2.15193L7.26387 1.83963ZM5.77329 2.50373L5.84826 2.88735L5.77329 2.50373ZM2.99083 5.01064L2.61711 4.8961L2.99083 5.01064ZM2.17497 6.42468L1.88878 6.15844H1.88878L2.17497 6.42468ZM1.39656 10.0894L1.02684 10.2162H1.02684L1.39656 10.0894ZM1.5671 11.7132L1.17909 11.6659H1.17909L1.5671 11.7132ZM3.08999 15.1358L3.31457 14.8159L3.31457 14.8159L3.08999 15.1358ZM4.18171 16.349L4.52347 16.1593H4.52347L4.18171 16.349ZM7.42438 18.2224L7.43086 18.6132H7.43086L7.42438 18.2224ZM9.02025 18.5619L9.18522 18.2075H9.18522L9.02025 18.5619ZM12.7439 18.1703L12.9789 18.4826L12.9789 18.4826L12.7439 18.1703ZM14.2344 17.5062L14.3094 17.8898H14.3094L14.2344 17.5062ZM17.0169 14.9992L17.3906 15.1138V15.1138L17.0169 14.9992ZM17.8327 13.5852L18.1189 13.8515L17.8327 13.5852ZM18.6112 9.9205L18.2414 10.0474H18.2414L18.6112 9.9205ZM18.4406 8.29674L18.0526 8.24947V8.24947L18.4406 8.29674ZM16.9177 4.87411L17.1423 4.55418L16.9177 4.87411ZM11.0999 6.85981L11.0315 6.47495L11.0999 6.85981ZM12.1737 7.48019L11.8062 7.61341V7.61341L12.1737 7.48019ZM10.4707 6.9715L10.5391 7.35636H10.5391L10.4707 6.9715ZM9.99472 6.9358L9.86976 7.30617H9.86977L9.99472 6.9358ZM9.38907 6.73146L9.26412 7.10183V7.10183L9.38907 6.73146ZM8.23527 7.18442L7.89175 6.99793V6.99793L8.23527 7.18442ZM7.92998 7.74681L7.58645 7.56033L7.92998 7.74681ZM7.60553 8.09671L7.81735 8.42522H7.81735L7.60553 8.09671ZM7.06779 8.44344L7.27961 8.77195H7.27961L7.06779 8.44344ZM6.70263 9.6283L7.06269 9.47617L6.70263 9.6283ZM6.95165 10.2177L6.59159 10.3698L6.95165 10.2177ZM7.02278 10.6898L7.41168 10.7291L7.02278 10.6898ZM6.95846 11.3263L6.56956 11.287L6.95846 11.3263ZM7.65696 12.3512L7.55143 12.7276L7.55143 12.7276L7.65696 12.3512ZM8.27216 12.5237L8.16663 12.9001H8.16663L8.27216 12.5237ZM8.68563 12.7626L8.95894 12.4832L8.95894 12.4832L8.68563 12.7626ZM9.14253 13.2095L8.86921 13.4889L8.86921 13.4889L9.14253 13.2095ZM10.3788 13.3023L10.1502 12.9853L10.3788 13.3023ZM10.8975 12.9284L11.1261 13.2454L10.8975 12.9284ZM11.3417 12.7539L11.2934 12.366H11.2934L11.3417 12.7539ZM11.9763 12.675L12.0245 13.0629H12.0245L11.9763 12.675ZM12.8191 11.7661L13.2096 11.7852L12.8191 11.7661ZM12.8504 11.1268L13.2408 11.1458V11.1458L12.8504 11.1268ZM12.991 10.6707L12.6576 10.4666L12.991 10.6707ZM13.325 10.1249L13.6584 10.329V10.329L13.325 10.1249ZM13.1402 8.89856L12.8817 9.19183L13.1402 8.89856ZM12.6605 8.47588L12.9189 8.18262V8.18262L12.6605 8.47588ZM12.3916 8.08123L12.0241 8.21445L12.0241 8.21445L12.3916 8.08123ZM12.5898 2.17832C13.7889 2.15843 14.9018 2.80126 15.4843 3.85057L16.1678 3.47116C15.4453 2.16962 14.0648 1.37198 12.5769 1.39667L12.5898 2.17832ZM10.8225 1.8024C11.3756 2.05989 11.9799 2.18843 12.5898 2.17832L12.5769 1.39667C12.0853 1.40482 11.5983 1.30122 11.1524 1.09367L10.8225 1.8024ZM7.49893 2.15193C8.45712 1.43073 9.73514 1.29619 10.8225 1.8024L11.1524 1.09367C9.80325 0.465573 8.21763 0.632532 7.02881 1.52733L7.49893 2.15193ZM5.84826 2.88735C6.44699 2.77035 7.01152 2.51879 7.49893 2.15193L7.02881 1.52733C6.63591 1.82305 6.18085 2.02581 5.69833 2.1201L5.84826 2.88735ZM3.36455 5.12519C3.71623 3.97775 4.67117 3.11738 5.84826 2.88735L5.69833 2.1201C4.23779 2.40552 3.05329 3.47295 2.61711 4.8961L3.36455 5.12519ZM2.46116 6.69091C2.87676 6.24417 3.18572 5.70866 3.36455 5.12519L2.61711 4.8961C2.47293 5.36654 2.2238 5.79831 1.88878 6.15844L2.46116 6.69091ZM1.76628 9.96253C1.37672 8.82717 1.64401 7.56932 2.46116 6.69091L1.88878 6.15844C0.875123 7.24808 0.54369 8.80814 1.02684 10.2162L1.76628 9.96253ZM1.95511 11.7604C2.0289 11.1547 1.96435 10.5398 1.76628 9.96253L1.02684 10.2162C1.18653 10.6816 1.23858 11.1775 1.17909 11.6659L1.95511 11.7604ZM3.31457 14.8159C2.33271 14.1266 1.81 12.9516 1.95511 11.7604L1.17909 11.6659C0.999121 13.1433 1.6473 14.6006 2.86541 15.4557L3.31457 14.8159ZM4.52347 16.1593C4.22731 15.6258 3.81395 15.1664 3.31457 14.8159L2.86541 15.4557C3.26796 15.7383 3.60119 16.1086 3.83996 16.5387L4.52347 16.1593ZM7.41789 17.8316C6.21877 17.8515 5.10594 17.2086 4.52347 16.1593L3.83996 16.5387C4.56243 17.8403 5.94294 18.6379 7.43086 18.6132L7.41789 17.8316ZM9.18522 18.2075C8.63213 17.95 8.02782 17.8215 7.41789 17.8316L7.43086 18.6132C7.92241 18.6051 8.40947 18.7087 8.85528 18.9162L9.18522 18.2075ZM12.5088 17.858C11.5506 18.5792 10.2726 18.7137 9.18522 18.2075L8.85528 18.9162C10.2045 19.5443 11.7901 19.3774 12.9789 18.4826L12.5088 17.858ZM14.1595 17.1225C13.5607 17.2395 12.9962 17.4911 12.5088 17.858L12.9789 18.4826C13.3718 18.1868 13.8269 17.9841 14.3094 17.8898L14.1595 17.1225ZM16.6432 14.8847C16.2915 16.0321 15.3366 16.8925 14.1595 17.1225L14.3094 17.8898C15.7699 17.6044 16.9544 16.5369 17.3906 15.1138L16.6432 14.8847ZM17.5466 13.319C17.131 13.7657 16.822 14.3012 16.6432 14.8847L17.3906 15.1138C17.5348 14.6434 17.7839 14.2116 18.1189 13.8515L17.5466 13.319ZM18.2414 10.0474C18.631 11.1827 18.3637 12.4406 17.5466 13.319L18.1189 13.8515C19.1326 12.7618 19.464 11.2017 18.9809 9.79364L18.2414 10.0474ZM18.0526 8.24947C17.9788 8.85521 18.0434 9.47011 18.2414 10.0474L18.9809 9.79364C18.8212 9.32825 18.7691 8.83242 18.8286 8.344L18.0526 8.24947ZM16.6932 5.19403C17.675 5.88327 18.1977 7.05826 18.0526 8.24947L18.8286 8.344C19.0086 6.86663 18.3604 5.40927 17.1423 4.55418L16.6932 5.19403ZM15.4843 3.85057C15.7804 4.38411 16.1938 4.84348 16.6932 5.19403L17.1423 4.55418C16.7398 4.27161 16.4065 3.90129 16.1678 3.47116L15.4843 3.85057ZM11.1682 7.24467C11.4419 7.19607 11.7113 7.3515 11.8062 7.61341L12.5412 7.34697C12.3168 6.72801 11.6798 6.35985 11.0315 6.47495L11.1682 7.24467ZM10.5391 7.35636L11.1682 7.24467L11.0315 6.47495L10.4024 6.58664L10.5391 7.35636ZM9.86977 7.30617C10.0851 7.37882 10.3153 7.39609 10.5391 7.35636L10.4024 6.58664C10.3079 6.60342 10.2107 6.59613 10.1197 6.56543L9.86977 7.30617ZM9.26412 7.10183L9.86976 7.30617L10.1197 6.56543L9.51403 6.3611L9.26412 7.10183ZM8.5788 7.3709C8.71152 7.12642 9.00066 7.01295 9.26412 7.10183L9.51403 6.3611C8.8903 6.15066 8.20579 6.41942 7.89175 6.99793L8.5788 7.3709ZM8.2735 7.9333L8.5788 7.3709L7.89175 6.99793L7.58645 7.56033L8.2735 7.9333ZM7.81735 8.42522C8.00827 8.30212 8.16513 8.13295 8.2735 7.9333L7.58645 7.56033C7.54064 7.64472 7.47435 7.7162 7.39371 7.7682L7.81735 8.42522ZM7.27961 8.77195L7.81735 8.42522L7.39371 7.7682L6.85597 8.11493L7.27961 8.77195ZM7.06269 9.47617C6.95431 9.21965 7.04601 8.92257 7.27961 8.77195L6.85597 8.11493C6.30289 8.47155 6.08646 9.17426 6.34257 9.78042L7.06269 9.47617ZM7.31172 10.0656L7.06269 9.47617L6.34257 9.78042L6.59159 10.3698L7.31172 10.0656ZM7.41168 10.7291C7.43453 10.5031 7.40015 10.2749 7.31172 10.0656L6.59159 10.3698C6.629 10.4584 6.64355 10.5549 6.63388 10.6505L7.41168 10.7291ZM7.34736 11.3656L7.41168 10.7291L6.63388 10.6505L6.56956 11.287L7.34736 11.3656ZM7.7625 11.9749C7.49465 11.8998 7.31935 11.6427 7.34736 11.3656L6.56956 11.287C6.50337 11.9419 6.91756 12.5499 7.55143 12.7276L7.7625 11.9749ZM8.3777 12.1474L7.7625 11.9749L7.55143 12.7276L8.16663 12.9001L8.3777 12.1474ZM8.95894 12.4832C8.79644 12.3242 8.59656 12.2087 8.37769 12.1474L8.16663 12.9001C8.2591 12.926 8.3436 12.9748 8.41232 13.042L8.95894 12.4832ZM9.41584 12.93L8.95894 12.4832L8.41232 13.042L8.86921 13.4889L9.41584 12.93ZM10.1502 12.9853C9.92472 13.1479 9.61485 13.1247 9.41584 12.93L8.86921 13.4889C9.33988 13.9493 10.0734 14.0044 10.6074 13.6194L10.1502 12.9853ZM10.6689 12.6113L10.1502 12.9853L10.6074 13.6194L11.1261 13.2454L10.6689 12.6113ZM11.2934 12.366C11.068 12.3941 10.8532 12.4784 10.6689 12.6113L11.1261 13.2454C11.2039 13.1893 11.2947 13.1537 11.3899 13.1418L11.2934 12.366ZM11.9281 12.2871L11.2934 12.366L11.3899 13.1418L12.0245 13.0629L11.9281 12.2871ZM12.4287 11.7471C12.4152 12.0251 12.2038 12.2529 11.9281 12.2871L12.0245 13.0629C12.6776 12.9817 13.1775 12.4425 13.2096 11.7852L12.4287 11.7471ZM12.4599 11.1077L12.4287 11.7471L13.2096 11.7852L13.2408 11.1458L12.4599 11.1077ZM12.6576 10.4666C12.539 10.6604 12.471 10.8808 12.4599 11.1077L13.2408 11.1458C13.2455 11.0499 13.2742 10.9566 13.3243 10.8748L12.6576 10.4666ZM12.9917 9.92084L12.6576 10.4666L13.3243 10.8748L13.6584 10.329L12.9917 9.92084ZM12.8817 9.19183C13.0906 9.37588 13.1369 9.68351 12.9917 9.92084L13.6584 10.329C14.002 9.76765 13.8924 9.04042 13.3986 8.6053L12.8817 9.19183ZM12.4021 8.76915L12.8817 9.19183L13.3986 8.6053L12.9189 8.18262L12.4021 8.76915ZM12.0241 8.21445C12.1016 8.42813 12.2315 8.61889 12.4021 8.76915L12.9189 8.18262C12.8468 8.11908 12.7918 8.0384 12.7591 7.948L12.0241 8.21445ZM11.8062 7.61341L12.0241 8.21445L12.7591 7.94801L12.5412 7.34697L11.8062 7.61341Z" fill="#E42A93" mask="url(#path-3-inside-1_156_1168)"/>
<mask id="path-5-inside-2_156_1168" fill="white">
<path fill-rule="evenodd" clip-rule="evenodd" d="M10 20C15.5228 20 20 15.5228 20 10C20 4.47715 15.5228 0 10 0C4.47715 0 0 4.47715 0 10C0 15.5228 4.47715 20 10 20ZM10.0003 12.2295C11.2344 12.2295 12.2348 11.2284 12.2348 9.99349C12.2348 8.75859 11.2344 7.7575 10.0003 7.7575C8.76616 7.7575 7.76573 8.75859 7.76573 9.99349C7.76573 11.2284 8.76616 12.2295 10.0003 12.2295Z"/>
</mask>
<path d="M19.6091 10C19.6091 15.307 15.307 19.6091 10 19.6091V20.3909C15.7387 20.3909 20.3909 15.7387 20.3909 10H19.6091ZM10 0.39088C15.307 0.39088 19.6091 4.69303 19.6091 10H20.3909C20.3909 4.26128 15.7387 -0.39088 10 -0.39088V0.39088ZM0.39088 10C0.39088 4.69303 4.69303 0.39088 10 0.39088V-0.39088C4.26128 -0.39088 -0.39088 4.26128 -0.39088 10H0.39088ZM10 19.6091C4.69303 19.6091 0.39088 15.307 0.39088 10H-0.39088C-0.39088 15.7387 4.26128 20.3909 10 20.3909V19.6091ZM11.8439 9.99349C11.8439 11.0128 11.0182 11.8386 10.0003 11.8386V12.6204C11.4505 12.6204 12.6257 11.444 12.6257 9.99349H11.8439ZM10.0003 8.14838C11.0182 8.14838 11.8439 8.97423 11.8439 9.99349H12.6257C12.6257 8.54295 11.4505 7.36662 10.0003 7.36662V8.14838ZM8.15661 9.99349C8.15661 8.97423 8.98228 8.14838 10.0003 8.14838V7.36662C8.55004 7.36662 7.37485 8.54295 7.37485 9.99349H8.15661ZM10.0003 11.8386C8.98228 11.8386 8.15661 11.0128 8.15661 9.99349H7.37485C7.37485 11.444 8.55004 12.6204 10.0003 12.6204V11.8386Z" fill="black" mask="url(#path-5-inside-2_156_1168)"/>
<path d="M7.89294 2.53914C7.10447 2.93179 6.36199 3.38879 5.51509 4.41009C5.68447 4.3449 5.81476 4.20148 6.0102 4.05157C6.67973 3.538 6.94851 3.29551 7.53483 2.94835C8.6358 2.29646 9.4752 2.23371 9.90616 2.30297C10.1993 2.35009 10.203 2.67794 10.1731 2.81293C10.0949 3.16495 9.79679 3.57113 9.72356 3.67995C9.58656 3.88352 8.86994 4.89395 8.70075 5.07499C8.58845 5.19517 6.65144 7.22931 6.56023 7.32709C6.46903 7.42488 3.97111 9.57956 3.88642 9.63823C3.80173 9.6969 2.89234 10.4571 2.68399 11.3167C2.62162 11.574 2.81429 11.9881 2.93808 12.0859C3.14797 12.2517 3.72639 12.3858 4.20196 12.1576C4.74444 11.8973 6.10421 10.9842 6.23451 10.7495C6.25027 10.7211 6.66187 10.2176 6.26057 10.6191C3.86969 12.7639 1.80454 12.0794 3.55699 10.1759C5.33585 8.70193 6.93893 7.33548 8.04557 6.14717C10.4532 3.67995 10.732 2.53332 10.4532 2.20016C10.3394 2.0642 9.95829 1.51063 7.89294 2.53914Z" fill="white"/>
<path d="M14.787 11.7698C13.9976 12.1344 13.2542 12.5588 12.4063 13.5071C12.5759 13.4466 12.7063 13.3134 12.902 13.1742C13.5723 12.6973 13.8414 12.4721 14.4285 12.1498C15.5308 11.5444 16.3712 11.4861 16.8026 11.5505C17.0962 11.5942 17.0505 11.9136 17.0205 12.039C16.9422 12.3659 16.5655 12.7612 16.4922 12.8623C16.355 13.0513 15.0766 14.153 14.9072 14.3211C14.7948 14.4327 13.12 15.8527 13.0286 15.9435C12.9373 16.0343 12.3177 16.6215 12.2133 16.7304C12.1448 16.802 12.0887 16.8914 12.0401 16.9882C12.027 17.0144 12.0045 17.1118 12.0177 17.1421C12.0294 17.1691 12.0765 17.2653 12.3113 17.2229C12.9025 17.1162 13.5701 16.7789 13.8897 16.3793C13.9091 16.3551 14.0137 16.2764 13.9876 16.2341C13.6319 16.5117 12.387 17.082 12.3113 17.0029C12.2356 16.9237 12.3304 16.7865 13.1737 16.043C17.5764 12.417 17.7836 11.8392 17.5162 11.455C17.42 11.3166 16.8548 10.8147 14.787 11.7698Z" fill="white"/>
<path d="M14.1944 6.57401C14.4076 6.42996 14.6102 6.2641 14.799 6.07893C14.9842 5.89229 15.1564 5.68553 15.2833 5.44275C15.3496 5.3191 15.4576 5.14224 15.4822 5.00616L15.4902 4.95309C15.4924 4.93542 15.4932 4.91737 15.4947 4.89943C15.5032 4.78625 15.5174 4.69403 15.4822 4.59417C15.4344 4.45417 15.3395 4.33671 15.23 4.25063C15.1206 4.16455 14.9946 4.10678 14.8676 4.06731C14.8355 4.05836 14.804 4.04899 14.7714 4.04054C14.7374 4.0336 14.7036 4.02521 14.669 4.02159C14.601 4.01205 14.5317 4.00887 14.4618 4.01207C14.3283 4.01857 14.1042 4.06996 13.972 4.11486C13.716 4.20136 13.4828 4.3305 13.2658 4.47672C13.0476 4.62233 12.8444 4.78613 12.6479 4.95561C12.4524 5.12661 12.2639 5.30445 12.0826 5.48912C12.0798 5.49206 12.0775 5.49555 12.076 5.49936C12.0744 5.50316 12.0735 5.50719 12.0735 5.51116C12.0734 5.51514 12.0741 5.51896 12.0756 5.52237C12.077 5.52578 12.0791 5.52869 12.0818 5.5309C12.0865 5.53582 12.0928 5.53867 12.0996 5.539C12.1065 5.53934 12.1135 5.53715 12.1197 5.53277C12.3245 5.37646 12.5262 5.21752 12.7328 5.06707C12.9386 4.91558 13.1478 4.77067 13.3626 4.64062C13.578 4.51339 13.8001 4.39762 14.0289 4.32924C14.1422 4.29441 14.2569 4.27407 14.3707 4.26864C14.4269 4.26665 14.4825 4.2698 14.5369 4.27807C14.5645 4.28091 14.5907 4.28833 14.6175 4.29389L14.7 4.31777C14.8083 4.35305 14.9113 4.39924 14.9951 4.46475C15.0789 4.53026 15.1464 4.61012 15.1812 4.70705C15.2198 4.80216 15.2263 4.91252 15.2106 5.02439C15.195 5.13625 15.1572 5.25003 15.1076 5.36035C15.0579 5.47067 14.9936 5.57726 14.9238 5.68042C14.8532 5.78529 14.7765 5.88541 14.6945 5.98C14.5316 6.1741 14.3477 6.3523 14.1595 6.52748C14.1566 6.53027 14.1542 6.53364 14.1525 6.53737C14.1507 6.5411 14.1497 6.5451 14.1495 6.54908C14.1492 6.55306 14.1497 6.55694 14.151 6.56044C14.1523 6.56395 14.1543 6.56699 14.1568 6.56937C14.1614 6.57441 14.1674 6.57749 14.1741 6.57818C14.1809 6.57887 14.1879 6.57715 14.1943 6.57324" fill="white"/>
<path d="M8.19292 13.3264C7.96086 13.4768 7.74028 13.6486 7.53452 13.8391C7.33264 14.0309 7.14472 14.2424 7.006 14.4883C6.93648 14.6108 6.88144 14.7433 6.85449 14.884L6.84514 14.9369C6.84257 14.9546 6.84161 14.9726 6.83995 14.9905C6.83551 15.0262 6.83737 15.0625 6.83799 15.0986C6.84303 15.1704 6.85498 15.2434 6.88243 15.3113C6.93343 15.4492 7.03573 15.5631 7.1543 15.6449C7.27361 15.7275 7.40898 15.7805 7.54651 15.8158C7.58128 15.8236 7.61534 15.832 7.65068 15.8393C7.68761 15.8451 7.72439 15.8524 7.76172 15.8549C7.83539 15.8622 7.91055 15.8631 7.98648 15.8576C8.13131 15.8468 8.27743 15.8166 8.42111 15.7676C8.69898 15.6734 8.95261 15.5374 9.18903 15.3844C9.42639 15.2323 9.64761 15.0627 9.86173 14.8875C10.0747 14.711 10.2801 14.5278 10.4778 14.3379C10.4904 14.3257 10.491 14.307 10.4788 14.2962C10.4737 14.2914 10.4669 14.2888 10.4595 14.2887C10.4521 14.2886 10.4444 14.2911 10.4376 14.2956C10.2148 14.4579 9.99491 14.6225 9.77024 14.7792C9.54654 14.9368 9.31862 15.0878 9.08484 15.2242C8.85038 15.3582 8.60909 15.4803 8.36052 15.5558C8.23638 15.5933 8.11182 15.6192 7.9893 15.6272C7.92835 15.631 7.86807 15.6297 7.80903 15.6233C7.77932 15.6211 7.75084 15.6147 7.72189 15.6102L7.63253 15.589C7.51531 15.5574 7.40367 15.515 7.31328 15.4522C7.2229 15.3894 7.14996 15.3122 7.11266 15.2169C7.07122 15.1235 7.06483 15.0137 7.08231 14.9019C7.09978 14.79 7.14155 14.6755 7.19584 14.5639C7.25014 14.4523 7.32029 14.3441 7.39684 14.2392C7.47401 14.1326 7.5576 14.0305 7.64699 13.9337C7.82473 13.7351 8.02521 13.5517 8.23024 13.3711L8.23044 13.3709C8.2437 13.3592 8.24517 13.3405 8.23367 13.3291C8.2288 13.3242 8.22224 13.3212 8.21493 13.3207C8.20762 13.3202 8.19994 13.3222 8.193 13.3264" fill="white"/>
</svg>
