<svg width="35" height="35" viewBox="0 0 35 35" fill="none" xmlns="http://www.w3.org/2000/svg">
<path d="M5.83357 14.5833L4.80253 15.6144L3.77148 14.5833L4.80253 13.5523L5.83357 14.5833ZM30.6252 26.25C30.6252 26.6368 30.4716 27.0077 30.1981 27.2812C29.9246 27.5547 29.5537 27.7083 29.1669 27.7083C28.7801 27.7083 28.4092 27.5547 28.1357 27.2812C27.8622 27.0077 27.7086 26.6368 27.7086 26.25H30.6252ZM12.0942 22.906L4.80253 15.6144L6.86461 13.5523L14.1563 20.844L12.0942 22.906ZM4.80253 13.5523L12.0942 6.26062L14.1563 8.3227L6.86461 15.6144L4.80253 13.5523ZM5.83357 13.125H20.4169V16.0417H5.83357V13.125ZM30.6252 23.3333V26.25H27.7086V23.3333H30.6252ZM20.4169 13.125C23.1243 13.125 25.7208 14.2005 27.6353 16.1149C29.5497 18.0294 30.6252 20.6259 30.6252 23.3333H27.7086C27.7086 21.3995 26.9403 19.5448 25.5729 18.1773C24.2054 16.8099 22.3508 16.0417 20.4169 16.0417V13.125Z" fill="white"/>
</svg>
