<svg width="30" height="30" viewBox="0 0 30 30" fill="none" xmlns="http://www.w3.org/2000/svg">
<g clip-path="url(#clip0_194_8671)">
<path d="M15 30C23.2843 30 30 23.2843 30 15C30 6.71571 23.2843 0 15 0C6.71571 0 0 6.71571 0 15C0 23.2843 6.71571 30 15 30Z" fill="#0098EA"/>
<path d="M20.1237 8.37195H9.87995C7.99648 8.37195 6.80269 10.4036 7.75027 12.0461L14.0723 23.004C14.4849 23.7195 15.5188 23.7195 15.9313 23.004L22.2547 12.0461C23.201 10.4063 22.0072 8.37195 20.125 8.37195H20.1237ZM14.0672 19.7179L12.6904 17.0532L9.36818 11.1114C9.14902 10.7311 9.41971 10.2438 9.87866 10.2438H14.0659V19.7192L14.0672 19.7179ZM20.6329 11.1101L17.312 17.0545L15.9352 19.7179V10.2425H20.1224C20.5814 10.2425 20.8521 10.7298 20.6329 11.1101Z" fill="white"/>
</g>
<defs>
<clipPath id="clip0_194_8671">
<rect width="30" height="30" fill="white"/>
</clipPath>
</defs>
</svg>
