<svg width="37" height="37" viewBox="0 0 37 37" fill="none" xmlns="http://www.w3.org/2000/svg">
<circle cx="18.5" cy="18.5" r="17.5" fill="#100F0F" stroke="#E42A93" stroke-width="2"/>
<path d="M13.3856 11.3927L19 17.0071L24.5853 11.4218C24.7087 11.2905 24.8573 11.1854 25.0222 11.113C25.1872 11.0405 25.3651 11.0021 25.5453 11C25.931 11 26.301 11.1532 26.5738 11.426C26.8465 11.6988 26.9998 12.0687 26.9998 12.4545C27.0032 12.6328 26.9701 12.81 26.9025 12.975C26.835 13.1401 26.7345 13.2897 26.607 13.4145L20.949 18.9998L26.607 24.6578C26.8468 24.8923 26.9873 25.2099 26.9998 25.545C26.9998 25.9308 26.8465 26.3007 26.5738 26.5735C26.301 26.8463 25.931 26.9995 25.5453 26.9995C25.3599 27.0072 25.1749 26.9763 25.0022 26.9087C24.8294 26.8411 24.6726 26.7383 24.5417 26.6068L19 20.9924L13.4002 26.5923C13.2773 26.7192 13.1304 26.8205 12.9682 26.8904C12.8059 26.9603 12.6314 26.9974 12.4547 26.9995C12.069 26.9995 11.699 26.8463 11.4263 26.5735C11.1535 26.3007 11.0002 25.9308 11.0002 25.545C10.9968 25.3667 11.0299 25.1896 11.0975 25.0245C11.165 24.8594 11.2655 24.7099 11.393 24.5851L17.051 18.9998L11.393 13.3417C11.1532 13.1072 11.0127 12.7896 11.0002 12.4545C11.0002 12.0687 11.1535 11.6988 11.4263 11.426C11.699 11.1532 12.069 11 12.4547 11C12.8038 11.0044 13.1384 11.1455 13.3856 11.3927Z" fill="#E42A93"/>
</svg>
