<svg width="30" height="30" viewBox="0 0 30 30" fill="none" xmlns="http://www.w3.org/2000/svg">
<circle cx="15" cy="15" r="15" fill="#1B1A1A"/>
<path d="M11.5031 10.2474L15.0405 13.7849L18.5596 10.2658C18.6374 10.183 18.731 10.1168 18.8349 10.0712C18.9389 10.0255 19.051 10.0013 19.1645 10C19.4075 10 19.6406 10.0966 19.8125 10.2684C19.9844 10.4403 20.0809 10.6734 20.0809 10.9164C20.083 11.0288 20.0622 11.1404 20.0196 11.2444C19.9771 11.3484 19.9137 11.4426 19.8335 11.5213L16.2685 15.0404L19.8335 18.6053C19.9845 18.7531 20.0731 18.9532 20.0809 19.1643C20.0809 19.4074 19.9844 19.6405 19.8125 19.8123C19.6406 19.9842 19.4075 20.0808 19.1645 20.0808C19.0477 20.0856 18.9312 20.0661 18.8223 20.0235C18.7134 19.9809 18.6146 19.9161 18.5321 19.8333L15.0405 16.2959L11.5123 19.8242C11.4348 19.9041 11.3423 19.968 11.2401 20.012C11.1378 20.0561 11.0279 20.0794 10.9166 20.0808C10.6735 20.0808 10.4404 19.9842 10.2686 19.8123C10.0967 19.6405 10.0001 19.4074 10.0001 19.1643C9.99801 19.052 10.0189 18.9404 10.0614 18.8364C10.104 18.7323 10.1673 18.6381 10.2476 18.5595L13.8125 15.0404L10.2476 11.4755C10.0965 11.3277 10.008 11.1276 10.0001 10.9164C10.0001 10.6734 10.0967 10.4403 10.2686 10.2684C10.4404 10.0966 10.6735 10 10.9166 10C11.1365 10.0027 11.3473 10.0916 11.5031 10.2474Z" fill="#8B8B8B"/>
</svg>
