<svg width="25" height="25" viewBox="0 0 25 25" fill="none" xmlns="http://www.w3.org/2000/svg">
<path fill-rule="evenodd" clip-rule="evenodd" d="M12.5066 24.6416C19.2078 24.6416 24.6401 19.2056 24.6401 12.5001C24.6401 5.79456 19.2078 0.358643 12.5066 0.358643C5.80542 0.358643 0.373047 5.79456 0.373047 12.5001C0.373047 19.2056 5.80542 24.6416 12.5066 24.6416ZM12.515 15.7999C14.3317 15.7999 15.8045 14.3262 15.8045 12.5083C15.8045 10.6904 14.3317 9.21667 12.515 9.21667C10.6983 9.21667 9.22552 10.6904 9.22552 12.5083C9.22552 14.3262 10.6983 15.7999 12.515 15.7999Z" fill="#F4A63E"/>
<path fill-rule="evenodd" clip-rule="evenodd" d="M19.5661 4.18533C18.8841 2.95678 17.5811 2.20398 16.1768 2.22728L15.5584 2.23753C14.9828 2.24708 14.4125 2.12577 13.8904 1.88274L13.3295 1.62158C12.0562 1.02883 10.5603 1.18603 9.43838 2.03049L8.94297 2.40337C8.48313 2.74948 7.95075 2.98665 7.38594 3.09702L6.77713 3.216C5.3995 3.48521 4.28227 4.49172 3.87077 5.83433L3.68868 6.42847C3.52 6.9788 3.22873 7.48364 2.83677 7.90497L2.41362 8.35985C1.45739 9.38775 1.14491 10.8592 1.60073 12.1876L1.80217 12.7747C1.98905 13.3194 2.04997 13.8993 1.98035 14.4708L1.90534 15.0866C1.73547 16.4811 2.34736 17.856 3.49698 18.663L4.0035 19.0186C4.47485 19.3495 4.86501 19.783 5.14456 20.2867L5.44488 20.8277C6.12685 22.0562 7.42988 22.809 8.83413 22.7857L9.45252 22.7755C10.0282 22.7659 10.5985 22.8872 11.1205 23.1303L11.6815 23.3914C12.9547 23.9842 14.4506 23.827 15.5726 22.9825L16.068 22.6096C16.5278 22.2635 17.0602 22.0264 17.625 21.916L18.2338 21.797C19.6115 21.5278 20.7287 20.5213 21.1402 19.1787L21.3223 18.5846C21.491 18.0342 21.7822 17.5294 22.1742 17.108L22.5973 16.6532C23.5536 15.6253 23.8661 14.1538 23.4102 12.8254L23.2088 12.2383C23.0219 11.6937 22.961 11.1137 23.0306 10.5422L23.1056 9.92642C23.2755 8.53192 22.6636 7.157 21.514 6.35L21.0075 5.99443C20.5361 5.66356 20.146 5.22997 19.8664 4.72636L19.5661 4.18533ZM15.1487 9.16007C14.989 8.71963 14.5359 8.45784 14.0749 8.53969L13.0284 8.72547C12.8693 8.75372 12.7056 8.74144 12.5524 8.68976L11.5452 8.34993C11.1016 8.20027 10.6147 8.39139 10.3914 8.80288L9.88375 9.73796C9.80666 9.87998 9.69508 10.0003 9.5593 10.0879L8.66529 10.6643C8.27195 10.9179 8.11788 11.4178 8.30013 11.8492L8.7142 12.8292C8.77712 12.9781 8.80158 13.1405 8.78533 13.3013L8.67836 14.3597C8.63126 14.8258 8.926 15.2583 9.37686 15.3847L10.4002 15.6716C10.5558 15.7153 10.698 15.7974 10.8136 15.9105L11.5736 16.6538C11.9085 16.9813 12.4302 17.0205 12.8099 16.7466L13.6725 16.1248C13.8035 16.0302 13.9563 15.9703 14.1166 15.9503L15.1719 15.8191C15.6363 15.7614 15.9919 15.3779 16.0147 14.9103L16.0666 13.8473C16.0745 13.6859 16.1228 13.529 16.2072 13.3912L16.7627 12.4838C17.0071 12.0844 16.9291 11.567 16.5778 11.2574L15.78 10.5544C15.6587 10.4475 15.5663 10.3118 15.5111 10.1598L15.1487 9.16007Z" fill="#E42A93"/>
<mask id="path-3-inside-1_146_26293" fill="white">
<path fill-rule="evenodd" clip-rule="evenodd" d="M19.5661 4.18533C18.8841 2.95678 17.5811 2.20398 16.1768 2.22728L15.5584 2.23753C14.9828 2.24708 14.4125 2.12577 13.8904 1.88274L13.3295 1.62158C12.0562 1.02883 10.5603 1.18603 9.43838 2.03049L8.94297 2.40337C8.48313 2.74948 7.95075 2.98665 7.38594 3.09702L6.77713 3.216C5.3995 3.48521 4.28227 4.49172 3.87077 5.83433L3.68868 6.42847C3.52 6.9788 3.22873 7.48364 2.83677 7.90497L2.41362 8.35985C1.45739 9.38775 1.14491 10.8592 1.60073 12.1876L1.80217 12.7747C1.98905 13.3194 2.04997 13.8993 1.98035 14.4708L1.90534 15.0866C1.73547 16.4811 2.34736 17.856 3.49698 18.663L4.0035 19.0186C4.47485 19.3495 4.86501 19.783 5.14456 20.2867L5.44488 20.8277C6.12685 22.0562 7.42988 22.809 8.83413 22.7857L9.45252 22.7755C10.0282 22.7659 10.5985 22.8872 11.1205 23.1303L11.6815 23.3914C12.9547 23.9842 14.4506 23.827 15.5726 22.9825L16.068 22.6096C16.5278 22.2635 17.0602 22.0264 17.625 21.916L18.2338 21.797C19.6115 21.5278 20.7287 20.5213 21.1402 19.1787L21.3223 18.5846C21.491 18.0342 21.7822 17.5294 22.1742 17.108L22.5973 16.6532C23.5536 15.6253 23.8661 14.1538 23.4102 12.8254L23.2088 12.2383C23.0219 11.6937 22.961 11.1137 23.0306 10.5422L23.1056 9.92642C23.2755 8.53192 22.6636 7.157 21.514 6.35L21.0075 5.99443C20.5361 5.66356 20.146 5.22997 19.8664 4.72636L19.5661 4.18533ZM15.1487 9.16007C14.989 8.71963 14.5359 8.45784 14.0749 8.53969L13.0284 8.72547C12.8693 8.75372 12.7056 8.74144 12.5524 8.68976L11.5452 8.34993C11.1016 8.20027 10.6147 8.39139 10.3914 8.80288L9.88375 9.73796C9.80666 9.87998 9.69508 10.0003 9.5593 10.0879L8.66529 10.6643C8.27195 10.9179 8.11788 11.4178 8.30013 11.8492L8.7142 12.8292C8.77712 12.9781 8.80158 13.1405 8.78533 13.3013L8.67836 14.3597C8.63126 14.8258 8.926 15.2583 9.37686 15.3847L10.4002 15.6716C10.5558 15.7153 10.698 15.7974 10.8136 15.9105L11.5736 16.6538C11.9085 16.9813 12.4302 17.0205 12.8099 16.7466L13.6725 16.1248C13.8035 16.0302 13.9563 15.9703 14.1166 15.9503L15.1719 15.8191C15.6363 15.7614 15.9919 15.3779 16.0147 14.9103L16.0666 13.8473C16.0745 13.6859 16.1228 13.529 16.2072 13.3912L16.7627 12.4838C17.0071 12.0844 16.9291 11.567 16.5778 11.2574L15.78 10.5544C15.6587 10.4475 15.5663 10.3118 15.5111 10.1598L15.1487 9.16007Z"/>
</mask>
<path d="M16.1768 2.22728L16.1833 2.6181L16.1768 2.22728ZM19.5661 4.18533L19.9078 3.99562V3.99562L19.5661 4.18533ZM15.5584 2.23753L15.5649 2.62836L15.5584 2.23753ZM13.8904 1.88274L13.7255 2.2371V2.2371L13.8904 1.88274ZM13.3295 1.62158L13.4944 1.26722V1.26722L13.3295 1.62158ZM9.43838 2.03049L9.20332 1.71819V1.71819L9.43838 2.03049ZM8.94297 2.40337L9.17803 2.71567V2.71567L8.94297 2.40337ZM7.38594 3.09702L7.46091 3.48065L7.38594 3.09702ZM6.77713 3.216L6.70216 2.83237L6.77713 3.216ZM3.87077 5.83433L4.24449 5.94887L3.87077 5.83433ZM3.68868 6.42847L3.31495 6.31393L3.68868 6.42847ZM2.83677 7.90497L3.12296 8.17121L2.83677 7.90497ZM2.41362 8.35985L2.12743 8.09361L2.41362 8.35985ZM1.60073 12.1876L1.97045 12.0608H1.97045L1.60073 12.1876ZM1.80217 12.7747L1.43245 12.9016H1.43245L1.80217 12.7747ZM1.98035 14.4708L1.59234 14.4236H1.59234L1.98035 14.4708ZM1.90534 15.0866L2.29335 15.1339L1.90534 15.0866ZM3.49698 18.663L3.2724 18.9829L3.2724 18.9829L3.49698 18.663ZM4.0035 19.0186L3.77892 19.3385H3.77892L4.0035 19.0186ZM5.14456 20.2867L4.8028 20.4764L4.8028 20.4764L5.14456 20.2867ZM5.44488 20.8277L5.10313 21.0174H5.10313L5.44488 20.8277ZM8.83413 22.7857L8.84061 23.1766L8.83413 22.7857ZM9.45252 22.7755L9.459 23.1663H9.459L9.45252 22.7755ZM11.1205 23.1303L10.9555 23.4846L10.9556 23.4846L11.1205 23.1303ZM11.6815 23.3914L11.8465 23.0371L11.6815 23.3914ZM15.5726 22.9825L15.3375 22.6702L15.5726 22.9825ZM16.068 22.6096L15.8329 22.2973L16.068 22.6096ZM17.625 21.916L17.7 22.2996H17.7L17.625 21.916ZM18.2338 21.797L18.1589 21.4134H18.1589L18.2338 21.797ZM21.1402 19.1787L21.5139 19.2932L21.1402 19.1787ZM21.3223 18.5846L20.9486 18.47L21.3223 18.5846ZM22.1742 17.108L21.888 16.8418L22.1742 17.108ZM22.5973 16.6532L22.3112 16.3869L22.5973 16.6532ZM23.4102 12.8254L23.0405 12.9522V12.9522L23.4102 12.8254ZM23.2088 12.2383L23.5785 12.1114L23.2088 12.2383ZM23.0306 10.5422L23.4186 10.5894V10.5894L23.0306 10.5422ZM23.1056 9.92642L22.7176 9.87915V9.87915L23.1056 9.92642ZM21.514 6.35L21.2894 6.66992V6.66992L21.514 6.35ZM21.0075 5.99443L21.232 5.67451V5.67451L21.0075 5.99443ZM19.8664 4.72636L19.5246 4.91606V4.91606L19.8664 4.72636ZM14.0749 8.53969L14.1432 8.92455L14.0749 8.53969ZM15.1487 9.16007L14.7812 9.29329L15.1487 9.16007ZM13.0284 8.72547L12.9601 8.3406L12.9601 8.3406L13.0284 8.72547ZM12.5524 8.68976L12.6774 8.31939L12.5524 8.68976ZM11.5452 8.34993L11.4202 8.7203L11.5452 8.34993ZM10.3914 8.80288L10.0478 8.6164V8.6164L10.3914 8.80288ZM9.88375 9.73796L10.2273 9.92444L10.2273 9.92444L9.88375 9.73796ZM9.5593 10.0879L9.77112 10.4164L9.5593 10.0879ZM8.66529 10.6643L8.45347 10.3358H8.45347L8.66529 10.6643ZM8.30013 11.8492L8.66019 11.697L8.30013 11.8492ZM8.7142 12.8292L8.35414 12.9813L8.7142 12.8292ZM8.78533 13.3013L9.17422 13.3406V13.3406L8.78533 13.3013ZM8.67836 14.3597L8.28946 14.3204L8.67836 14.3597ZM9.37686 15.3847L9.48239 15.0083L9.37686 15.3847ZM10.4002 15.6716L10.5057 15.2952H10.5057L10.4002 15.6716ZM10.8136 15.9105L11.087 15.631L10.8136 15.9105ZM11.5736 16.6538L11.8469 16.3744V16.3744L11.5736 16.6538ZM12.8099 16.7466L12.5813 16.4296H12.5813L12.8099 16.7466ZM13.6725 16.1248L13.9011 16.4418V16.4418L13.6725 16.1248ZM14.1166 15.9503L14.1649 16.3382H14.1649L14.1166 15.9503ZM15.1719 15.8191L15.1236 15.4312H15.1236L15.1719 15.8191ZM16.0147 14.9103L15.6243 14.8912V14.8912L16.0147 14.9103ZM16.0666 13.8473L15.6762 13.8282V13.8282L16.0666 13.8473ZM16.2072 13.3912L15.8738 13.1871L16.2072 13.3912ZM16.7627 12.4838L17.0961 12.6878V12.6878L16.7627 12.4838ZM16.5778 11.2574L16.8362 10.9642L16.5778 11.2574ZM15.78 10.5544L15.5216 10.8477L15.5216 10.8477L15.78 10.5544ZM15.5111 10.1598L15.1437 10.293V10.293L15.5111 10.1598ZM16.1833 2.6181C17.4432 2.5972 18.6124 3.27259 19.2243 4.37504L19.9078 3.99562C19.1559 2.64096 17.719 1.81076 16.1704 1.83645L16.1833 2.6181ZM15.5649 2.62836L16.1833 2.6181L16.1704 1.83645L15.552 1.84671L15.5649 2.62836ZM13.7255 2.2371C14.3011 2.5051 14.9301 2.63889 15.5649 2.62836L15.552 1.84671C15.0355 1.85527 14.5238 1.74644 14.0554 1.52838L13.7255 2.2371ZM13.1645 1.97594L13.7255 2.2371L14.0554 1.52838L13.4944 1.26722L13.1645 1.97594ZM9.67344 2.34279C10.68 1.58517 12.0221 1.44411 13.1645 1.97594L13.4944 1.26722C12.0903 0.613551 10.4406 0.786895 9.20332 1.71819L9.67344 2.34279ZM9.17803 2.71567L9.67344 2.34279L9.20332 1.71819L8.70791 2.09107L9.17803 2.71567ZM7.46091 3.48065C8.0838 3.35892 8.67092 3.09736 9.17803 2.71567L8.70791 2.09107C8.29534 2.40159 7.81771 2.61438 7.31098 2.7134L7.46091 3.48065ZM6.8521 3.59962L7.46091 3.48065L7.31098 2.7134L6.70216 2.83237L6.8521 3.59962ZM4.24449 5.94887C4.61373 4.74416 5.61616 3.84115 6.8521 3.59962L6.70216 2.83237C5.18284 3.12928 3.95081 4.23929 3.49705 5.71979L4.24449 5.94887ZM4.0624 6.54301L4.24449 5.94887L3.49705 5.71979L3.31495 6.31393L4.0624 6.54301ZM3.12296 8.17121C3.5552 7.70657 3.8764 7.14986 4.0624 6.54301L3.31495 6.31393C3.16361 6.80774 2.90225 7.26071 2.55058 7.63874L3.12296 8.17121ZM2.69981 8.62608L3.12296 8.17121L2.55058 7.63874L2.12743 8.09361L2.69981 8.62608ZM1.97045 12.0608C1.56141 10.8687 1.84186 9.54834 2.69981 8.62608L2.12743 8.09361C1.07292 9.22716 0.728407 10.8497 1.23101 12.3145L1.97045 12.0608ZM2.17189 12.6479L1.97045 12.0608L1.23101 12.3145L1.43245 12.9016L2.17189 12.6479ZM2.36836 14.5181C2.44513 13.8879 2.37795 13.2484 2.17189 12.6479L1.43245 12.9016C1.60014 13.3903 1.65481 13.9107 1.59234 14.4236L2.36836 14.5181ZM2.29335 15.1339L2.36836 14.5181L1.59234 14.4236L1.51733 15.0393L2.29335 15.1339ZM3.72156 18.3431C2.69001 17.619 2.14092 16.3852 2.29335 15.1339L1.51733 15.0393C1.33002 16.577 2.00471 18.0931 3.2724 18.9829L3.72156 18.3431ZM4.22808 18.6987L3.72156 18.3431L3.2724 18.9829L3.77892 19.3385L4.22808 18.6987ZM5.48632 20.097C5.17807 19.5416 4.74785 19.0635 4.22808 18.6987L3.77892 19.3385C4.20185 19.6354 4.55195 20.0245 4.8028 20.4764L5.48632 20.097ZM5.78664 20.638L5.48632 20.097L4.8028 20.4764L5.10313 21.0174L5.78664 20.638ZM8.82764 22.3949C7.56779 22.4158 6.3986 21.7404 5.78664 20.638L5.10313 21.0174C5.85509 22.3721 7.29196 23.2023 8.84061 23.1766L8.82764 22.3949ZM9.44604 22.3847L8.82764 22.3949L8.84061 23.1766L9.459 23.1663L9.44604 22.3847ZM11.2855 22.7759C10.7098 22.5079 10.0809 22.3741 9.44604 22.3847L9.459 23.1663C9.97545 23.1577 10.4872 23.2666 10.9555 23.4846L11.2855 22.7759ZM11.8465 23.0371L11.2855 22.7759L10.9556 23.4846L11.5165 23.7458L11.8465 23.0371ZM15.3375 22.6702C14.3309 23.4278 12.9889 23.5689 11.8465 23.0371L11.5165 23.7458C12.9206 24.3995 14.5703 24.2261 15.8076 23.2948L15.3375 22.6702ZM15.8329 22.2973L15.3375 22.6702L15.8076 23.2948L16.3031 22.922L15.8329 22.2973ZM17.5501 21.5324C16.9272 21.6541 16.34 21.9157 15.8329 22.2973L16.3031 22.922C16.7156 22.6114 17.1933 22.3986 17.7 22.2996L17.5501 21.5324ZM18.1589 21.4134L17.5501 21.5324L17.7 22.2996L18.3088 22.1806L18.1589 21.4134ZM20.7665 19.0641C20.3972 20.2689 19.3948 21.1719 18.1589 21.4134L18.3088 22.1806C19.8281 21.8837 21.0601 20.7737 21.5139 19.2932L20.7665 19.0641ZM20.9486 18.47L20.7665 19.0641L21.5139 19.2932L21.696 18.6991L20.9486 18.47ZM21.888 16.8418C21.4558 17.3064 21.1346 17.8632 20.9486 18.47L21.696 18.6991C21.8474 18.2053 22.1087 17.7523 22.4604 17.3743L21.888 16.8418ZM22.3112 16.3869L21.888 16.8418L22.4604 17.3743L22.8835 16.9194L22.3112 16.3869ZM23.0405 12.9522C23.4496 14.1444 23.1691 15.4647 22.3112 16.3869L22.8835 16.9194C23.938 15.7859 24.2826 14.1633 23.78 12.6985L23.0405 12.9522ZM22.8391 12.3652L23.0405 12.9522L23.78 12.6985L23.5785 12.1114L22.8391 12.3652ZM22.6426 10.4949C22.5658 11.1251 22.633 11.7646 22.8391 12.3652L23.5785 12.1114C23.4108 11.6227 23.3561 11.1023 23.4186 10.5894L22.6426 10.4949ZM22.7176 9.87915L22.6426 10.4949L23.4186 10.5894L23.4936 9.97368L22.7176 9.87915ZM21.2894 6.66992C22.3209 7.39404 22.87 8.6278 22.7176 9.87915L23.4936 9.97368C23.6809 8.43604 23.0063 6.91996 21.7386 6.03007L21.2894 6.66992ZM20.7829 6.31436L21.2894 6.66992L21.7386 6.03007L21.232 5.67451L20.7829 6.31436ZM19.5246 4.91606C19.8329 5.47138 20.2631 5.94949 20.7829 6.31436L21.232 5.67451C20.8091 5.37762 20.459 4.98856 20.2082 4.53665L19.5246 4.91606ZM19.2243 4.37504L19.5246 4.91606L20.2082 4.53665L19.9078 3.99562L19.2243 4.37504ZM14.1432 8.92455C14.4169 8.87595 14.6863 9.03138 14.7812 9.29329L15.5162 9.02684C15.2918 8.40789 14.6548 8.03973 14.0065 8.15483L14.1432 8.92455ZM13.0968 9.11033L14.1432 8.92455L14.0065 8.15483L12.9601 8.3406L13.0968 9.11033ZM12.4275 9.06013C12.6428 9.13279 12.873 9.15005 13.0968 9.11033L12.9601 8.3406C12.8656 8.35738 12.7684 8.35009 12.6774 8.31939L12.4275 9.06013ZM11.4202 8.7203L12.4275 9.06013L12.6774 8.31939L11.6701 7.97956L11.4202 8.7203ZM10.7349 8.98937C10.8676 8.74488 11.1567 8.63141 11.4202 8.7203L11.6701 7.97956C11.0464 7.76913 10.3619 8.03789 10.0478 8.6164L10.7349 8.98937ZM10.2273 9.92444L10.7349 8.98937L10.0478 8.6164L9.54023 9.55148L10.2273 9.92444ZM9.77112 10.4164C9.96204 10.2933 10.1189 10.1241 10.2273 9.92444L9.54023 9.55147C9.49441 9.63587 9.42813 9.70735 9.34748 9.75934L9.77112 10.4164ZM8.87712 10.9928L9.77112 10.4164L9.34748 9.75934L8.45347 10.3358L8.87712 10.9928ZM8.66019 11.697C8.55181 11.4405 8.64351 11.1434 8.87712 10.9928L8.45347 10.3358C7.90039 10.6924 7.68396 11.3951 7.94007 12.0013L8.66019 11.697ZM9.07426 12.6771L8.66019 11.697L7.94007 12.0013L8.35414 12.9813L9.07426 12.6771ZM9.17422 13.3406C9.19707 13.1146 9.16269 12.8864 9.07426 12.6771L8.35414 12.9813C8.39155 13.0699 8.40609 13.1664 8.39643 13.262L9.17422 13.3406ZM9.06726 14.399L9.17422 13.3406L8.39643 13.262L8.28946 14.3204L9.06726 14.399ZM9.48239 15.0083C9.21454 14.9332 9.03925 14.6762 9.06726 14.399L8.28946 14.3204C8.22327 14.9754 8.63746 15.5833 9.27133 15.761L9.48239 15.0083ZM10.5057 15.2952L9.48239 15.0083L9.27133 15.761L10.2946 16.048L10.5057 15.2952ZM11.087 15.631C10.9245 15.4721 10.7246 15.3566 10.5057 15.2952L10.2946 16.048C10.3871 16.0739 10.4716 16.1227 10.5403 16.1899L11.087 15.631ZM11.8469 16.3744L11.087 15.631L10.5403 16.1899L11.3003 16.9333L11.8469 16.3744ZM12.5813 16.4296C12.3558 16.5922 12.046 16.569 11.8469 16.3744L11.3003 16.9332C11.771 17.3936 12.5045 17.4488 13.0385 17.0637L12.5813 16.4296ZM13.4438 15.8077L12.5813 16.4296L13.0385 17.0637L13.9011 16.4418L13.4438 15.8077ZM14.0684 15.5624C13.8429 15.5905 13.6281 15.6748 13.4438 15.8077L13.9011 16.4418C13.9789 16.3857 14.0696 16.3501 14.1649 16.3382L14.0684 15.5624ZM15.1236 15.4312L14.0684 15.5624L14.1649 16.3382L15.2201 16.207L15.1236 15.4312ZM15.6243 14.8912C15.6107 15.1693 15.3994 15.397 15.1236 15.4312L15.2201 16.207C15.8732 16.1258 16.373 15.5866 16.4051 14.9293L15.6243 14.8912ZM15.6762 13.8282L15.6243 14.8912L16.4051 14.9293L16.457 13.8664L15.6762 13.8282ZM15.8738 13.1871C15.7552 13.3809 15.6873 13.6013 15.6762 13.8282L16.457 13.8664C16.4617 13.7704 16.4905 13.6772 16.5406 13.5953L15.8738 13.1871ZM16.4293 12.2797L15.8738 13.1871L16.5406 13.5953L17.0961 12.6878L16.4293 12.2797ZM16.3194 11.5507C16.5282 11.7347 16.5746 12.0424 16.4293 12.2797L17.0961 12.6878C17.4397 12.1265 17.33 11.3993 16.8362 10.9642L16.3194 11.5507ZM15.5216 10.8477L16.3194 11.5507L16.8362 10.9642L16.0385 10.2612L15.5216 10.8477ZM15.1437 10.293C15.2211 10.5067 15.3511 10.6974 15.5216 10.8477L16.0385 10.2612C15.9664 10.1976 15.9114 10.117 15.8786 10.0266L15.1437 10.293ZM14.7812 9.29329L15.1437 10.293L15.8786 10.0266L15.5162 9.02684L14.7812 9.29329Z" fill="#E42A93" mask="url(#path-3-inside-1_146_26293)"/>
<mask id="path-5-inside-2_146_26293" fill="white">
<path fill-rule="evenodd" clip-rule="evenodd" d="M12.5 25C19.4036 25 25 19.4036 25 12.5C25 5.59644 19.4036 0 12.5 0C5.59644 0 0 5.59644 0 12.5C0 19.4036 5.59644 25 12.5 25ZM12.5003 15.2868C14.0429 15.2868 15.2935 14.0355 15.2935 12.4919C15.2935 10.9482 14.0429 9.69688 12.5003 9.69688C10.9577 9.69688 9.70716 10.9482 9.70716 12.4919C9.70716 14.0355 10.9577 15.2868 12.5003 15.2868Z"/>
</mask>
<path d="M24.6091 12.5C24.6091 19.1877 19.1877 24.6091 12.5 24.6091V25.3909C19.6194 25.3909 25.3909 19.6194 25.3909 12.5H24.6091ZM12.5 0.39088C19.1877 0.39088 24.6091 5.81232 24.6091 12.5H25.3909C25.3909 5.38056 19.6194 -0.39088 12.5 -0.39088V0.39088ZM0.39088 12.5C0.39088 5.81232 5.81232 0.39088 12.5 0.39088V-0.39088C5.38056 -0.39088 -0.39088 5.38056 -0.39088 12.5H0.39088ZM12.5 24.6091C5.81232 24.6091 0.39088 19.1877 0.39088 12.5H-0.39088C-0.39088 19.6194 5.38056 25.3909 12.5 25.3909V24.6091ZM14.9026 12.4919C14.9026 13.8199 13.8268 14.896 12.5003 14.896V15.6777C14.2591 15.6777 15.6844 14.2511 15.6844 12.4919H14.9026ZM12.5003 10.0878C13.8268 10.0878 14.9026 11.1639 14.9026 12.4919H15.6844C15.6844 10.7326 14.2591 9.306 12.5003 9.306V10.0878ZM10.098 12.4919C10.098 11.1639 11.1738 10.0878 12.5003 10.0878V9.306C10.7416 9.306 9.31628 10.7326 9.31628 12.4919H10.098ZM12.5003 14.896C11.1738 14.896 10.098 13.8198 10.098 12.4919H9.31628C9.31628 14.2511 10.7416 15.6777 12.5003 15.6777V14.896Z" fill="black" mask="url(#path-5-inside-2_146_26293)"/>
<path d="M9.86617 3.17399C8.88058 3.66479 7.95249 4.23605 6.89386 5.51267C7.10559 5.43119 7.26845 5.25192 7.51275 5.06452C8.34967 4.42256 8.68563 4.11945 9.41853 3.68549C10.7948 2.87063 11.844 2.7922 12.3827 2.87878C12.7492 2.93767 12.7538 3.34749 12.7163 3.51623C12.6186 3.95625 12.246 4.46398 12.1544 4.6C11.9832 4.85446 11.0874 6.1175 10.8759 6.3438C10.7356 6.49402 8.3143 9.0367 8.20029 9.15893C8.08628 9.28116 4.96389 11.9745 4.85803 12.0478C4.75216 12.1212 3.61543 13.0714 3.35499 14.1459C3.27702 14.4675 3.51787 14.9852 3.6726 15.1074C3.93497 15.3147 4.65799 15.4823 5.25245 15.1971C5.93055 14.8717 7.63026 13.7303 7.79313 13.437C7.81284 13.4015 8.32734 12.772 7.82571 13.274C4.83711 15.9549 2.25568 15.0993 4.44623 12.7199C6.66981 10.8775 8.67366 9.16941 10.057 7.68403C13.0665 4.6 13.415 3.16671 13.0665 2.75026C12.9243 2.58031 12.4479 1.88835 9.86617 3.17399Z" fill="white"/>
<path d="M18.4842 14.7123C17.4975 15.168 16.5682 15.6985 15.5083 16.884C15.7203 16.8083 15.8834 16.6418 16.128 16.4678C16.9659 15.8717 17.3023 15.5902 18.0361 15.1873C19.4139 14.4306 20.4644 14.3577 21.0038 14.4381C21.3707 14.4928 21.3136 14.8921 21.2761 15.0488C21.1783 15.4574 20.7074 15.9516 20.6157 16.0779C20.4443 16.3142 18.8463 17.6913 18.6345 17.9015C18.494 18.041 16.4004 19.8159 16.2863 19.9294C16.1722 20.0429 15.3976 20.7769 15.2672 20.9131C15.1815 21.0025 15.1114 21.1143 15.0506 21.2354C15.0342 21.2681 15.0061 21.3898 15.0226 21.4277C15.0372 21.4615 15.0961 21.5817 15.3896 21.5287C16.1287 21.3953 16.9631 20.9736 17.3626 20.4742C17.3869 20.444 17.5176 20.3456 17.4849 20.2926C17.0403 20.6396 15.4842 21.3526 15.3896 21.2536C15.2949 21.1547 15.4134 20.9832 16.4676 20.0538C21.971 15.5213 22.2299 14.7991 21.8958 14.3188C21.7755 14.1459 21.069 13.5184 18.4842 14.7123Z" fill="white"/>
<path d="M17.742 8.21752C18.0086 8.03745 18.2618 7.83012 18.4978 7.59867C18.7293 7.36537 18.9446 7.10692 19.1031 6.80343C19.186 6.64887 19.3211 6.4278 19.3517 6.25771L19.3618 6.19137C19.3646 6.16927 19.3656 6.14671 19.3674 6.12429C19.3781 5.98281 19.3958 5.86754 19.3517 5.74271C19.292 5.56771 19.1734 5.42089 19.0366 5.31329C18.8997 5.20568 18.7422 5.13347 18.5835 5.08414C18.5434 5.07295 18.5041 5.06124 18.4633 5.05068C18.4207 5.042 18.3785 5.03151 18.3352 5.02699C18.2503 5.01506 18.1637 5.01108 18.0762 5.01509C17.9093 5.02321 17.6293 5.08745 17.464 5.14357C17.144 5.25169 16.8526 5.41313 16.5812 5.5959C16.3086 5.77791 16.0546 5.98267 15.8089 6.19451C15.5645 6.40826 15.329 6.63056 15.1022 6.86141C15.0987 6.86508 15.0959 6.86944 15.094 6.8742C15.092 6.87895 15.091 6.88399 15.0909 6.88895C15.0908 6.89392 15.0917 6.8987 15.0935 6.90296C15.0953 6.90722 15.0979 6.91086 15.1013 6.91363C15.1072 6.91978 15.115 6.92333 15.1235 6.92375C15.1321 6.92417 15.1409 6.92144 15.1487 6.91596C15.4047 6.72058 15.6568 6.5219 15.9151 6.33383C16.1723 6.14447 16.4337 5.96333 16.7022 5.80078C16.9715 5.64173 17.2491 5.49703 17.5351 5.41155C17.6767 5.36801 17.8201 5.34259 17.9625 5.3358C18.0327 5.33331 18.1022 5.33725 18.1702 5.34759C18.2047 5.35114 18.2374 5.36042 18.2709 5.36737L18.374 5.39721C18.5094 5.44131 18.6381 5.49905 18.7429 5.58094C18.8476 5.66283 18.9321 5.76266 18.9755 5.88381C19.0238 6.0027 19.0319 6.14066 19.0123 6.28049C18.9928 6.42032 18.9456 6.56254 18.8835 6.70044C18.8214 6.83833 18.7411 6.97158 18.6538 7.10053C18.5655 7.23162 18.4697 7.35676 18.3672 7.475C18.1636 7.71763 17.9336 7.94038 17.6983 8.15935C17.6947 8.16284 17.6918 8.16705 17.6896 8.17172C17.6875 8.17638 17.6862 8.18137 17.6859 8.18635C17.6855 8.19133 17.6862 8.19617 17.6878 8.20055C17.6894 8.20493 17.6918 8.20874 17.695 8.21172C17.7007 8.21801 17.7083 8.22186 17.7167 8.22272C17.7251 8.22359 17.7339 8.22143 17.7419 8.21655" fill="white"/>
<path d="M10.2412 16.6581C9.95108 16.8462 9.67536 17.0609 9.41815 17.299C9.16579 17.5388 8.9309 17.8031 8.7575 18.1105C8.6706 18.2637 8.6018 18.4293 8.56811 18.6051L8.55643 18.6713C8.55322 18.6934 8.55201 18.7159 8.54993 18.7383C8.54439 18.7829 8.54671 18.8283 8.54749 18.8733C8.55379 18.9632 8.56873 19.0543 8.60304 19.1393C8.66678 19.3116 8.79467 19.454 8.94288 19.5562C9.09201 19.6595 9.26123 19.7258 9.43314 19.7698C9.4766 19.7797 9.51917 19.7901 9.56335 19.7993C9.60951 19.8065 9.65549 19.8157 9.70215 19.8188C9.79423 19.8278 9.88819 19.829 9.9831 19.8221C10.1641 19.8086 10.3468 19.7708 10.5264 19.7097C10.8737 19.5919 11.1908 19.4218 11.4863 19.2306C11.783 19.0405 12.0595 18.8284 12.3272 18.6095C12.5934 18.3888 12.8501 18.1598 13.0972 17.9225C13.113 17.9073 13.1137 17.8839 13.0985 17.8704C13.0921 17.8644 13.0837 17.8612 13.0744 17.861C13.0651 17.8609 13.0555 17.8639 13.047 17.8697C12.7685 18.0725 12.4936 18.2783 12.2128 18.4741C11.9332 18.6712 11.6483 18.8599 11.3561 19.0303C11.063 19.1978 10.7614 19.3505 10.4506 19.4449C10.2955 19.4918 10.1398 19.5242 9.98662 19.5341C9.91044 19.5389 9.83509 19.5372 9.76129 19.5292C9.72415 19.5265 9.68855 19.5185 9.65236 19.5128L9.54066 19.4864C9.39413 19.4469 9.25459 19.3938 9.14161 19.3153C9.02862 19.2368 8.93745 19.1403 8.89082 19.0212C8.83902 18.9044 8.83104 18.7673 8.85288 18.6274C8.87473 18.4876 8.92693 18.3445 8.9948 18.205C9.06267 18.0655 9.15037 17.9303 9.24605 17.7992C9.34252 17.6659 9.44701 17.5382 9.55874 17.4172C9.78091 17.169 10.0315 16.9397 10.2878 16.7141L10.2881 16.7138C10.3046 16.6992 10.3065 16.6757 10.2921 16.6615C10.286 16.6553 10.2778 16.6516 10.2687 16.651C10.2595 16.6504 10.2499 16.6529 10.2413 16.6581" fill="white"/>
</svg>
