<svg width="201" height="200" viewBox="0 0 201 200" fill="none" xmlns="http://www.w3.org/2000/svg">
<path d="M200.207 98.3651C198.997 72.6099 187.831 48.8669 168.764 31.5104C149.697 14.154 125.01 5.26057 99.2609 6.4715C73.5119 7.68243 49.7566 18.8484 32.3987 37.9161C15.0408 56.9837 6.14949 81.6621 7.35956 107.412C8.56963 133.161 19.7366 156.919 38.8024 174.277C56.7209 190.591 79.6003 199.428 103.668 199.428C105.21 199.428 106.756 199.391 108.305 199.319C134.062 198.109 157.805 186.943 175.161 167.879C192.518 148.815 201.417 124.121 200.207 98.3651ZM104.903 126.832C91.6971 127.452 80.4722 117.211 79.8528 104.008C79.6972 100.865 80.1661 97.7232 81.2324 94.7633C82.2987 91.8033 83.9413 89.0842 86.0652 86.7631C88.1776 84.429 90.732 82.5371 93.5805 81.197C96.429 79.8568 99.5151 79.0951 102.66 78.956C103.043 78.9385 103.426 78.9298 103.807 78.9298C109.766 78.9206 115.51 81.1488 119.904 85.1734C122.238 87.286 124.13 89.8406 125.47 92.6893C126.81 95.538 127.571 98.6241 127.71 101.769C127.866 104.914 127.396 108.058 126.329 111.02C125.263 113.982 123.619 116.703 121.494 119.026C119.382 121.359 116.828 123.25 113.98 124.589C111.132 125.929 108.047 126.69 104.903 126.829V126.832Z" fill="#7B7975"/>
<path d="M192.835 92.8774C190.356 40.1513 145.609 -0.590569 92.8848 1.88812C40.1445 4.36682 -0.590643 49.1178 1.88388 101.833C4.36642 154.576 49.1145 195.314 101.839 192.836C154.563 190.357 195.313 145.618 192.835 92.8774ZM97.1267 139.4C74.3562 139.4 55.8998 120.944 55.8998 98.1759C55.8998 75.408 74.3562 56.9511 97.1267 56.9511C119.897 56.9511 138.348 75.408 138.348 98.1759C138.348 120.944 119.893 139.4 97.1267 139.4Z" fill="#FFB757"/>
<path d="M97.1257 56.9512C74.3552 56.9512 55.9004 75.4072 55.9004 98.176C55.9004 120.945 74.3552 139.4 97.1257 139.4C119.896 139.4 138.348 120.944 138.348 98.176C138.348 75.408 119.893 56.9512 97.1257 56.9512ZM98.5736 123.28C84.2621 123.95 72.1225 112.894 71.4515 98.5684C70.7764 84.2721 81.8244 72.1148 96.1487 71.4437C110.444 70.7726 122.6 81.8302 123.272 96.1426C123.943 110.455 112.882 122.609 98.5736 123.28Z" fill="#E88B46"/>
<path d="M192.835 92.8777C192.505 85.7419 191.379 78.6651 189.48 71.7788C189.919 74.8632 190.215 77.9992 190.37 81.1866C192.847 133.927 152.098 178.668 99.3728 181.145C53.952 183.274 14.4533 153.349 2.78857 111.293C9.82135 159.363 52.3135 195.16 101.838 192.837C154.562 190.36 195.312 145.619 192.835 92.8777Z" fill="#E88B46"/>
<path d="M97.2443 194.722C72.9708 194.722 49.8944 185.81 31.8224 169.357C12.5931 151.849 1.33044 127.899 0.109999 101.917C-1.11045 75.935 7.85792 51.0536 25.3638 31.8247C42.8697 12.5958 66.8197 1.33237 92.799 0.110246C118.778 -1.11188 143.668 7.86027 162.899 25.3641C182.129 42.8679 193.39 66.8163 194.611 92.7925C195.831 118.773 186.861 143.671 169.352 162.902C151.842 182.132 127.898 193.39 101.923 194.611C100.36 194.686 98.8001 194.723 97.2443 194.722ZM97.4734 3.55479C95.9742 3.55479 94.4716 3.59003 92.9656 3.6605C67.9352 4.83618 44.8605 15.6872 27.9928 34.2153C11.1252 52.7434 2.48521 76.7279 3.66402 101.75C4.84282 126.773 15.6907 149.859 34.2184 166.728C52.7461 183.597 76.7258 192.235 101.757 191.061C153.424 188.633 193.483 144.622 191.062 92.9615C189.886 67.9335 179.034 44.8613 160.507 27.9949C143.094 12.1441 120.858 3.55799 97.4734 3.55799V3.55479ZM97.3268 125.084C91.9005 125.079 86.595 123.481 82.0681 120.489C77.5413 117.497 73.992 113.242 71.8603 108.251C69.7286 103.261 69.1083 97.7544 70.0761 92.4148C71.044 87.0751 73.5576 82.1369 77.3052 78.2123C81.0528 74.2877 85.8698 71.5493 91.1589 70.3366C96.448 69.1238 101.977 69.4901 107.06 71.3899C112.143 73.2897 116.556 76.6395 119.754 81.0242C122.951 85.4088 124.791 90.6354 125.046 96.0561C125.762 111.329 113.923 124.336 98.6562 125.053C98.2125 125.076 97.7694 125.088 97.3268 125.088V125.084ZM97.3877 73.188C97.0033 73.188 96.6175 73.1968 96.2305 73.2145C89.8277 73.5141 83.8061 76.3451 79.4905 81.0847C75.1748 85.8243 72.9186 92.0843 73.2182 98.4875C73.5178 104.891 76.3486 110.913 81.0879 115.229C85.8272 119.545 92.0868 121.801 98.4896 121.501C111.799 120.877 122.12 109.537 121.495 96.2219C121.203 90.0218 118.537 84.1718 114.05 79.8837C109.562 75.5957 103.597 73.1982 97.3909 73.188H97.3877Z" fill="black"/>
<path d="M179.969 93.48C179.536 84.27 183.05 74.3528 179.96 66.1703C176.757 57.6875 167.472 52.5955 161.919 45.668C156.307 38.674 153.335 28.5214 145.845 23.5912C145.506 23.3662 145.162 23.1588 144.81 22.9593C137.477 18.8172 127.558 19.86 119.207 17.5791C110.768 15.2694 102.438 8.75751 93.2265 9.18998C85.5923 9.55037 79.0048 14.5991 72.3124 18.0708C70.962 18.7899 69.569 19.4257 68.1409 19.9745C59.6587 23.178 49.1119 22.9001 42.1856 28.4533C35.1873 34.0658 33.178 44.4475 28.2442 51.9388C23.3592 59.3525 14.5942 65.2965 12.1998 74.0372C9.88943 82.4776 14.3188 92.02 14.7512 101.232C15.1837 110.445 11.6705 120.364 14.76 128.55C17.9633 137.039 27.244 142.127 32.7968 149.052C38.409 156.048 41.3848 166.205 48.8748 171.131C56.2888 176.016 66.7627 174.755 75.5124 177.146C83.9474 179.457 92.2855 185.968 101.497 185.536C110.709 185.104 118.395 177.837 126.583 174.751C135.065 171.548 145.612 171.822 152.538 166.269C159.533 160.663 161.546 150.27 166.48 142.783C171.359 135.369 180.13 129.425 182.52 120.679C184.83 112.243 180.4 102.696 179.969 93.484M127.079 114.217C123.921 119.672 122.421 127.271 116.965 130.428C111.67 133.484 104.413 131.08 97.8688 131.08C91.3246 131.08 84.0579 133.483 78.7677 130.428C73.3126 127.269 71.8079 119.672 68.6494 114.217C65.5895 108.926 59.6803 103.898 59.6803 97.3538C59.6803 90.8091 65.5895 85.7756 68.6494 80.4858C71.8079 75.0295 73.3126 67.4317 78.7677 64.2746C82.6245 62.0434 87.5303 62.7153 92.4425 63.2447C94.266 63.4401 96.0926 63.6179 97.8648 63.6179C104.409 63.6179 111.666 61.2153 116.961 64.2706C116.974 64.2794 116.982 64.2834 116.995 64.2914C122.425 67.4629 123.926 75.0383 127.075 80.4818C130.139 85.7676 136.049 90.7994 136.049 97.3498C136.049 103.9 130.139 108.922 127.075 114.213" fill="#FF61CB"/>
<path d="M97.3282 124.643C90.1478 124.638 83.2588 121.803 78.1546 116.753C73.0504 111.702 70.1425 104.843 70.0613 97.6627C69.9802 90.4823 72.7323 83.5593 77.721 78.3947C82.7098 73.23 89.533 70.24 96.7114 70.0728C103.89 69.9057 110.845 72.5749 116.069 77.5017C121.292 82.4286 124.364 89.2159 124.617 96.3923C124.87 103.569 122.284 110.556 117.421 115.838C112.557 121.121 105.807 124.274 98.6351 124.613C98.1987 124.633 97.7598 124.643 97.3282 124.643ZM97.3891 72.7467C96.9972 72.7467 96.6042 72.7561 96.2102 72.7748C89.7617 73.0833 83.6946 75.9212 79.3243 80.6734C74.954 85.4255 72.6327 91.7087 72.8637 98.1609C73.0947 104.613 75.8594 110.714 80.5583 115.142C85.2573 119.569 91.5118 121.966 97.9659 121.812C104.42 121.659 110.553 118.968 115.037 114.322C119.52 109.676 121.992 103.45 121.916 96.9945C121.84 90.5386 119.222 84.3728 114.631 79.8338C110.04 75.2948 103.845 72.7484 97.3891 72.7467Z" fill="black"/>
<path d="M146.209 80.8995C149.524 79.7311 152.947 78.8993 156.429 78.4168C159.89 77.9907 163.425 77.913 166.886 78.7251C168.615 79.1255 170.32 79.7862 171.873 80.8434L172.451 81.2502C172.64 81.3928 172.819 81.5562 173.002 81.7107C173.377 82.0063 173.706 82.3787 174.043 82.7351C174.684 83.4879 175.279 84.3296 175.7 85.2978C176.594 87.2103 176.842 89.4704 176.654 91.6039C176.467 93.7534 175.869 95.798 175.085 97.6953C174.877 98.1646 174.679 98.6307 174.461 99.1016C174.216 99.5757 173.986 100.063 173.706 100.509C173.176 101.412 172.573 102.271 171.904 103.077C170.623 104.611 169.148 105.971 167.515 107.122C164.361 109.354 161.008 110.905 157.633 112.097C154.26 113.31 150.851 114.169 147.447 114.895C144.04 115.595 140.632 116.144 137.223 116.541C137.004 116.566 136.822 116.392 136.818 116.149C136.815 116.045 136.845 115.943 136.905 115.858C136.964 115.773 137.05 115.71 137.148 115.677C140.5 114.728 143.85 113.835 147.164 112.811C150.479 111.807 153.765 110.691 156.96 109.367C160.139 108.013 163.26 106.466 165.998 104.386C167.364 103.345 168.623 102.187 169.695 100.878C170.226 100.225 170.704 99.5305 171.124 98.8005C171.345 98.4433 171.516 98.0597 171.708 97.6881L172.234 96.4724C172.888 94.8402 173.393 93.1664 173.532 91.5358C173.672 89.9052 173.532 88.3323 172.932 86.9877C172.382 85.6142 171.393 84.4793 170.19 83.5936C168.986 82.7078 167.561 82.0719 166.06 81.605C164.559 81.1381 162.962 80.8842 161.345 80.7345C159.705 80.5746 158.057 80.5313 156.411 80.6047C153.081 80.692 149.71 81.1838 146.33 81.7548H146.326C146.108 81.7916 145.918 81.6267 145.903 81.3864C145.896 81.2834 145.922 81.1808 145.976 81.0934C146.031 81.006 146.113 80.9383 146.209 80.9003" fill="#FFFEFD"/>
<path d="M78.2202 29.1119C73.5955 29.8711 68.9876 30.7633 64.463 31.8629C62.1967 32.3968 59.9544 33.0007 57.7361 33.6745C55.5203 34.3344 53.342 35.0936 51.2231 35.9466C49.1041 36.7995 47.0404 37.7533 45.1265 38.8962C43.2125 40.039 41.4331 41.342 40.0309 42.9005C39.8595 43.0975 39.6673 43.2825 39.512 43.4875L39.0579 44.1082C38.7248 44.5087 38.5246 44.9676 38.2571 45.396C38.1145 45.6074 38.0472 45.8453 37.9463 46.072L37.6589 46.7535L37.4426 47.5007C37.3614 47.7449 37.298 47.9946 37.2529 48.2479L37.1127 48.9959C37.0534 49.245 37.0663 49.4933 37.0374 49.7407C36.9694 50.2397 37.0166 50.7218 37.0262 51.2079C37.0334 51.4482 37.0975 51.6804 37.1263 51.9175L37.1791 52.2707C37.2008 52.3876 37.2448 52.4973 37.2761 52.6103C37.3457 52.8345 37.4002 53.0635 37.4763 53.2854L37.7597 53.9261C38.1914 54.7494 38.7103 55.543 39.4455 56.1805L39.7009 56.4344L39.9948 56.657L40.5778 57.1071L41.2225 57.4964C41.4336 57.6362 41.6559 57.7584 41.8872 57.8616C43.7162 58.7754 45.824 59.3031 47.9902 59.553C52.345 60.0519 56.9041 59.5434 61.3534 58.6136C61.914 58.5111 62.4666 58.3733 63.0215 58.234L64.6864 57.8271C65.7868 57.5028 66.8951 57.2177 67.9882 56.8661C70.1776 56.1717 72.3527 55.4093 74.4948 54.5516C78.7888 52.8545 82.9835 50.8756 87.0949 48.7204L93.3301 45.3976C93.8546 45.1117 94.3896 44.8426 94.9317 44.5847L96.5461 43.7975C97.6144 43.2569 98.714 42.7788 99.8095 42.291C104.194 40.3513 108.718 38.6871 113.369 37.4129C118.02 36.1388 122.798 35.233 127.657 34.9639L129.478 34.8662L131.305 34.8494L132.219 34.8446L133.134 34.8798C133.743 34.9086 134.354 34.9158 134.963 34.9599C137.412 35.1272 139.844 35.4806 142.239 36.017C144.662 36.5509 147.024 37.3326 149.286 38.35C151.558 39.3799 153.747 40.6725 155.693 42.3487L156.414 42.9894C156.654 43.2056 156.871 43.4499 157.1 43.6798C157.566 44.1282 157.971 44.6552 158.392 45.1598C159.18 46.2249 159.896 47.3822 160.374 48.7004C160.834 50.0189 161.049 51.4105 161.008 52.8065C160.96 54.1701 160.689 55.5167 160.207 56.7932C159.246 59.2999 157.651 61.367 155.907 63.1401C155.031 64.0129 154.097 64.826 153.112 65.5739C152.149 66.32 151.149 67.0169 150.115 67.6618C145.995 70.2166 141.563 72.0786 137.019 73.4449C136.912 73.4767 136.797 73.4672 136.697 73.4182C136.596 73.3693 136.518 73.2844 136.477 73.1805C136.436 73.0765 136.436 72.961 136.476 72.8568C136.516 72.7525 136.594 72.6672 136.694 72.6176C140.907 70.5554 145.015 68.3161 148.683 65.5699C150.52 64.2085 152.241 62.7188 153.711 61.0634C155.186 59.4249 156.41 57.5933 157.051 55.6608C157.381 54.7237 157.556 53.739 157.569 52.7456C157.572 51.7827 157.401 50.8271 157.065 49.9249C156.708 49.036 156.18 48.1742 155.56 47.3622C155.218 46.9697 154.907 46.5613 154.519 46.1977C154.33 46.0143 154.155 45.8189 153.958 45.6427L153.352 45.1213C151.718 43.7398 149.801 42.6298 147.778 41.7448C145.734 40.8541 143.602 40.1772 141.418 39.7251C139.214 39.2596 136.978 38.9619 134.728 38.8345C134.164 38.7968 133.596 38.7992 133.031 38.7784L132.182 38.7552L131.33 38.7704L129.63 38.8049L127.927 38.917L127.077 38.9738L126.227 39.0587L124.528 39.2461L122.835 39.5048C122.275 39.5961 121.706 39.665 121.146 39.7875C120.025 40.0174 118.898 40.1976 117.787 40.4851L116.115 40.8855C115.554 41.0161 115.009 41.189 114.456 41.3388C110.035 42.5705 105.707 44.1835 101.496 46.0703C100.444 46.5445 99.3875 47.0082 98.3576 47.5359L96.804 48.3024C96.2827 48.553 95.7685 48.8157 95.2616 49.0952L89.0521 52.4405C84.8198 54.6413 80.4834 56.6603 76.0132 58.4053C73.7829 59.2863 71.5102 60.0712 69.2111 60.7887C68.0643 61.1539 66.8887 61.4527 65.7331 61.7874L63.9657 62.2039C63.3779 62.3464 62.7901 62.4906 62.1911 62.5987L60.4037 62.9503C59.8063 63.06 59.2025 63.1385 58.5978 63.233L57.6929 63.3699C57.391 63.41 57.0843 63.4356 56.78 63.4692C56.1697 63.5285 55.5635 63.6038 54.9501 63.6486C52.4695 63.8374 49.9763 63.7821 47.5065 63.4837C45.0128 63.1633 42.4862 62.5266 40.1133 61.3077C39.8107 61.1636 39.5185 60.9985 39.2389 60.8136L38.382 60.2754L37.5724 59.6419L37.1719 59.3215L36.8004 58.9555C35.7729 58.0233 34.9585 56.822 34.3362 55.5559L33.9206 54.5756C33.8077 54.2408 33.722 53.8973 33.6251 53.5577C33.5811 53.3863 33.5251 53.2173 33.4938 53.0451L33.4137 52.5262C33.3697 52.1802 33.2952 51.8326 33.284 51.485C33.2656 50.7947 33.2279 50.1003 33.3176 49.4284C33.3577 49.0928 33.3608 48.7445 33.4353 48.4193L33.6308 47.4358C33.6954 47.1105 33.7805 46.7895 33.8854 46.4748L34.1737 45.5306L34.5741 44.5871C34.715 44.278 34.8304 43.9512 35.0138 43.6685C35.3629 43.0943 35.6688 42.4808 36.0901 41.9707L36.6899 41.1762C36.8949 40.9176 37.1279 40.6909 37.3449 40.4466C39.1228 38.5294 41.2001 37.0509 43.3511 35.8232C45.5133 34.6083 47.7556 33.6344 50.0267 32.7967C52.3042 31.971 54.6194 31.3127 56.9433 30.7329C59.2705 30.1659 61.6185 29.7294 63.9681 29.3466C68.6785 28.6386 73.4041 28.1989 78.1626 28.2174C78.271 28.2221 78.3741 28.2663 78.4522 28.3417C78.5304 28.4171 78.5783 28.5185 78.587 28.6267C78.5956 28.7349 78.5644 28.8426 78.4992 28.9295C78.4341 29.0163 78.3394 29.0764 78.2331 29.0983L78.2202 29.1119Z" fill="#FFFEFD"/>
<path d="M100.612 187.336C94.7215 187.336 89.304 184.854 84.0554 182.451C80.9386 181.023 77.9948 179.674 75.0414 178.865C71.9182 178.011 68.4403 177.629 65.0744 177.259C59.0931 176.601 52.9076 175.921 47.8969 172.62C42.8357 169.289 39.7598 163.864 36.7863 158.617C35.0502 155.553 33.4093 152.659 31.4121 150.169C29.4501 147.722 27.0076 145.52 24.4217 143.188C19.9203 139.129 15.266 134.933 13.095 129.179C11.0192 123.674 11.6999 117.54 12.359 111.608C12.7394 108.185 13.1326 104.641 12.9764 101.317C12.8203 97.9936 12.0955 94.5018 11.3972 91.1285C10.1856 85.2862 8.93233 79.2452 10.4851 73.5703C12.11 67.6382 16.3527 63.0236 20.4561 58.5611C22.8121 55.9984 25.0376 53.5805 26.7617 50.9633C28.5163 48.298 29.8785 45.2635 31.3208 42.0512C33.7905 36.5492 36.3443 30.8607 41.0731 27.0677C45.7539 23.3149 51.8457 22.0599 57.7373 20.8458C61.0543 20.1626 64.4842 19.4555 67.5129 18.3126C70.3806 17.2314 73.1875 15.6113 76.1617 13.8966C81.4319 10.8533 86.8807 7.7099 93.1447 7.41357C99.4087 7.11725 105.134 9.7425 110.667 12.2789C113.784 13.7068 116.728 15.0563 119.681 15.8644C122.801 16.7173 126.279 17.1001 129.643 17.4661C135.625 18.1244 141.811 18.8043 146.825 22.1047C151.886 25.4348 154.96 30.8582 157.932 36.1031C159.669 39.1681 161.31 42.0624 163.308 44.5531C165.27 46.999 167.713 49.1982 170.299 51.5327C174.801 55.5907 179.456 59.7865 181.628 65.5399C183.703 71.0451 183.022 77.1782 182.363 83.1086C181.983 86.5323 181.589 90.0762 181.745 93.3982C181.906 96.7242 182.626 100.211 183.325 103.584C184.537 109.43 185.791 115.472 184.24 121.146C182.616 127.081 178.373 131.697 174.27 136.16C171.915 138.723 169.69 141.141 167.967 143.758C166.211 146.425 164.849 149.459 163.407 152.671C160.936 158.173 158.382 163.863 153.655 167.654C148.974 171.409 142.879 172.665 136.986 173.88C133.669 174.563 130.239 175.27 127.211 176.412C124.345 177.494 121.541 179.114 118.571 180.828C113.3 183.872 107.849 187.017 101.584 187.315C101.258 187.33 100.934 187.337 100.612 187.336ZM94.0888 10.9438C93.8288 10.9438 93.5686 10.95 93.308 10.9622C87.9073 11.2177 82.8382 14.1433 77.9324 16.9728C74.9693 18.6834 71.903 20.4525 68.7646 21.6362C65.474 22.8776 61.904 23.6136 58.4517 24.3247C52.7202 25.506 47.3067 26.6216 43.2938 29.8379C39.2337 33.0951 36.9673 38.151 34.5609 43.504C33.125 46.7075 31.6395 50.0111 29.7271 52.9158C27.8452 55.7725 25.418 58.4122 23.07 60.9654C19.0779 65.3061 15.3076 69.4065 13.911 74.5057C12.584 79.3565 13.6972 84.7224 14.872 90.4029C15.5999 93.9116 16.3527 97.5403 16.5217 101.147C16.6906 104.755 16.2814 108.435 15.8858 111.998C15.2452 117.765 14.6405 123.211 16.4152 127.921C18.2811 132.867 22.4165 136.596 26.7954 140.544C29.3732 142.866 32.0383 145.269 34.1789 147.941C36.3547 150.654 38.1429 153.809 39.8727 156.86C42.766 161.965 45.4993 166.791 49.8453 169.647C54.1417 172.478 59.6377 173.082 65.4572 173.721C68.9592 174.107 72.5845 174.505 75.9736 175.433C79.2065 176.314 82.4209 177.791 85.5297 179.216C90.6789 181.576 96.0052 184.013 101.407 183.762C106.81 183.51 111.88 180.58 116.783 177.749C119.746 176.038 122.81 174.27 125.947 173.086C129.238 171.844 132.807 171.109 136.259 170.398C141.992 169.216 147.408 168.099 151.421 164.881C155.48 161.625 157.747 156.568 160.154 151.215C161.591 148.016 163.075 144.708 164.988 141.804C166.869 138.946 169.296 136.306 171.643 133.753C175.634 129.412 179.405 125.31 180.801 120.208C182.127 115.357 181.013 109.989 179.835 104.306C179.107 100.798 178.355 97.1719 178.184 93.5656C178.015 89.9617 178.425 86.2777 178.82 82.7162C179.461 76.9499 180.066 71.504 178.292 66.7949C176.425 61.8495 172.285 58.1215 167.91 54.174C165.332 51.8515 162.667 49.4488 160.525 46.7771C158.349 44.0646 156.56 40.9084 154.83 37.8562C151.937 32.7539 149.206 27.9343 144.861 25.0744C140.562 22.2449 135.064 21.6402 129.245 21.0003C125.744 20.6159 122.124 20.2179 118.733 19.2913C115.5 18.4063 112.285 16.9327 109.176 15.508C104.283 13.2623 99.2245 10.9438 94.0888 10.9438ZM110.056 133.768C108.003 133.768 105.902 133.539 103.831 133.312C101.84 133.095 99.7818 132.87 97.8671 132.87C95.9523 132.87 93.8918 133.095 91.9002 133.312C87.0561 133.841 82.0501 134.388 77.8779 131.977C73.5791 129.489 71.5603 124.838 69.6071 120.34C68.7926 118.465 68.0238 116.693 67.1117 115.116C66.2428 113.615 65.1161 112.119 63.9245 110.534C61.1016 106.783 57.9015 102.531 57.9015 97.3633C57.9015 92.1953 61.1048 87.9411 63.9245 84.189C65.1169 82.6049 66.2428 81.1088 67.1125 79.6072C68.0238 78.0311 68.7942 76.2588 69.6071 74.3839C71.5603 69.8862 73.5791 65.2348 77.8771 62.7481C82.047 60.3367 87.0561 60.8837 91.9002 61.4122C93.8918 61.6293 95.9515 61.8543 97.8671 61.8543C99.7826 61.8543 101.84 61.6301 103.831 61.4122C108.673 60.8829 113.681 60.3367 117.852 62.7481C122.152 65.2348 124.171 69.8862 126.124 74.3847C126.938 76.2596 127.706 78.0311 128.618 79.608C129.487 81.108 130.613 82.6041 131.805 84.1882C134.629 87.9403 137.829 92.1969 137.829 97.3633C137.829 102.53 134.625 106.784 131.805 110.535C130.613 112.119 129.487 113.616 128.618 115.117C127.706 116.693 126.936 118.465 126.124 120.339C124.171 124.837 122.152 129.489 117.853 131.976C115.467 133.357 112.804 133.768 110.056 133.768ZM85.6674 64.51C83.434 64.51 81.3855 64.8247 79.6549 65.8258C76.3715 67.7255 74.6698 71.6474 72.8672 75.7999C72.0488 77.6843 71.2023 79.6336 70.1877 81.3875C69.2107 83.0758 67.967 84.7288 66.7642 86.3273C64.1543 89.7951 61.4555 93.3822 61.4555 97.3633C61.4555 101.344 64.1535 104.928 66.7633 108.396C67.9646 109.998 69.2106 111.648 70.1868 113.336C71.2023 115.09 72.0488 117.039 72.8672 118.924C74.6698 123.077 76.3724 126.999 79.6557 128.899C82.8165 130.727 87.0409 130.265 91.5126 129.78C93.5988 129.553 95.7569 129.317 97.8655 129.317C99.974 129.317 102.13 129.553 104.215 129.78C108.686 130.268 112.909 130.729 116.071 128.899C119.355 126.999 121.058 123.076 122.861 118.924C123.679 117.039 124.526 115.09 125.539 113.337C126.516 111.65 127.76 109.997 128.962 108.398C131.572 104.93 134.271 101.344 134.271 97.3641C134.271 93.3846 131.572 89.7959 128.961 86.3265C127.76 84.7248 126.516 83.0758 125.539 81.3891C124.525 79.6352 123.678 77.6859 122.86 75.8015C121.057 71.649 119.355 67.7263 116.07 65.8266C112.909 63.9982 108.686 64.4595 104.214 64.9457C102.132 65.1739 99.97 65.4094 97.8647 65.4094C95.7593 65.4094 93.5979 65.1739 91.5118 64.9457C89.4905 64.7254 87.5165 64.51 85.6674 64.51Z" fill="#E23BA2"/>
<path d="M110.056 133.767C108.003 133.767 105.902 133.538 103.831 133.312C101.84 133.095 99.7814 132.87 97.8667 132.87C95.9519 132.87 93.8922 133.095 91.9006 133.312C87.0572 133.842 82.0505 134.388 77.8783 131.976C73.5787 129.488 71.5598 124.837 69.6066 120.338C68.793 118.464 68.0234 116.693 67.1121 115.116C66.2432 113.615 65.1173 112.119 63.9248 110.534C61.102 106.783 57.9019 102.531 57.9019 97.3631C57.9019 92.1951 61.1051 87.9408 63.9256 84.1888C65.1172 82.6046 66.2432 81.1086 67.1129 79.607C68.0242 78.0309 68.7946 76.2602 69.6066 74.3845C71.5598 69.8868 73.5787 65.2354 77.8775 62.7479C82.0473 60.3365 87.0548 60.8835 91.8998 61.412C93.8922 61.6299 95.9511 61.8549 97.8667 61.8549C99.7822 61.8549 101.84 61.6299 103.832 61.412C108.675 60.8835 113.682 60.3365 117.853 62.7471C122.151 65.2354 124.171 69.886 126.124 74.3837C126.938 76.2593 127.708 78.0309 128.619 79.6078C129.488 81.1086 130.615 82.6046 131.806 84.1888C134.629 87.9408 137.829 92.1975 137.829 97.3631C137.829 102.529 134.626 106.783 131.806 110.534C130.615 112.119 129.484 113.615 128.619 115.117C127.708 116.693 126.937 118.464 126.124 120.339C124.171 124.837 122.151 129.488 117.853 131.976C115.467 133.357 112.804 133.767 110.056 133.767ZM85.6678 64.5098C83.4351 64.5098 81.3866 64.8253 79.6569 65.8256C76.3735 67.7261 74.6702 71.6479 72.8676 75.8005C72.0491 77.6857 71.2026 79.6342 70.1888 81.3873C69.2118 83.0748 67.9681 84.7277 66.7653 86.3263C64.1555 89.7949 61.4567 93.3812 61.4567 97.3631C61.4567 101.345 64.1547 104.929 66.7653 108.397C67.9665 109.998 69.2118 111.648 70.188 113.336C71.2027 115.09 72.0491 117.038 72.8667 118.922C74.6702 123.076 76.3727 126.998 79.6577 128.899C82.8185 130.727 87.0428 130.266 91.5146 129.78C93.5967 129.552 95.7589 129.317 97.8658 129.317C99.9728 129.317 102.13 129.552 104.216 129.78C108.687 130.268 112.912 130.729 116.072 128.899C119.356 126.998 121.059 123.076 122.862 118.923C123.68 117.039 124.527 115.09 125.541 113.336C126.518 111.648 127.762 109.995 128.965 108.397C131.575 104.928 134.273 101.343 134.273 97.3631C134.273 93.3836 131.574 89.7949 128.964 86.3271C127.763 84.7253 126.518 83.0756 125.541 81.3881C124.527 79.6342 123.68 77.6849 122.862 75.7997C121.059 71.6479 119.356 67.7261 116.072 65.8248C112.912 63.9972 108.688 64.4585 104.22 64.9439C102.133 65.1721 99.9752 65.4076 97.8683 65.4076C95.7613 65.4076 93.6023 65.1721 91.5154 64.9439C89.4901 64.726 87.5161 64.5098 85.6678 64.5098Z" fill="#E23BA2"/>
<path d="M168.502 125.793C165.768 125.771 164.385 126.049 161.87 127.124C161.229 127.4 160.465 127.172 160.146 126.564C159.826 125.955 160.146 125.148 160.89 124.831C163.783 123.595 165.374 123.274 168.522 123.299C169.326 123.305 169.933 123.923 169.875 124.61C169.817 125.297 169.201 125.8 168.502 125.795" fill="white"/>
<path d="M98.784 144.868C96.05 144.847 94.667 145.124 92.1532 146.2C91.5126 146.476 90.747 146.248 90.4283 145.639C90.1095 145.031 90.4282 144.225 91.1714 143.908C94.0648 142.671 95.656 142.35 98.8032 142.376C99.6088 142.382 100.216 143 100.157 143.686C100.099 144.372 99.4839 144.876 98.784 144.871" fill="white"/>
<path d="M60.7216 130.261C61.6257 132.842 62.3544 134.05 64.2163 136.052C64.6928 136.564 64.7368 137.359 64.2699 137.865C63.8031 138.371 62.9374 138.345 62.3888 137.751C60.2467 135.446 59.4074 134.056 58.3663 131.086C58.1005 130.326 58.4761 129.547 59.1423 129.369C59.8086 129.191 60.4901 129.601 60.7216 130.261Z" fill="white"/>
<path d="M138.133 62.2506C140.866 62.2049 142.243 61.8934 144.73 60.7561C145.365 60.4646 146.133 60.676 146.467 61.2759C146.8 61.8757 146.499 62.6902 145.767 63.0258C142.905 64.3336 141.321 64.6932 138.176 64.7461C137.371 64.7597 136.749 64.1566 136.789 63.4647C136.83 62.7727 137.43 62.2586 138.133 62.2465" fill="white"/>
<path d="M123.947 24.789C125.153 27.2429 126.02 28.3553 128.111 30.1212C128.645 30.5729 128.784 31.3561 128.381 31.9143C127.978 32.4725 127.114 32.5462 126.499 32.0265C124.096 29.9938 123.098 28.7133 121.711 25.8894C121.355 25.1686 121.636 24.3469 122.275 24.0914C122.914 23.836 123.642 24.1611 123.95 24.789" fill="#FFE266"/>
<path d="M40.4473 73.5763C38.4957 75.5112 37.3033 76.2656 34.7303 77.1954C34.4066 77.3108 34.1392 77.5456 33.983 77.8517C33.8268 78.1579 33.7936 78.5122 33.8902 78.842C34.0968 79.5396 34.9 79.9376 35.6576 79.6645C38.6206 78.5938 39.9925 77.7264 42.238 75.5C42.8129 74.9306 42.8089 74.0248 42.2788 73.533C42.0273 73.3014 41.6957 73.1766 41.354 73.185C41.0122 73.1933 40.6871 73.3342 40.4473 73.5779" fill="#FFE266"/>
<path d="M118.255 162.14C120.987 162.06 122.36 161.732 124.832 160.566C125.465 160.267 126.235 160.466 126.576 161.065C126.917 161.664 126.625 162.479 125.897 162.823C123.051 164.166 121.472 164.543 118.327 164.634C117.526 164.657 116.893 164.062 116.926 163.374C116.959 162.686 117.555 162.16 118.255 162.14Z" fill="#FFE266"/>
<path d="M70.4692 40.5979C71.6744 43.0517 72.5417 44.1641 74.6295 45.9301C75.1636 46.3826 75.3021 47.165 74.8993 47.724C74.4965 48.283 73.6324 48.3559 73.0174 47.8353C70.615 45.8027 69.6164 44.5229 68.2294 41.6991C67.8738 40.9783 68.1548 40.1566 68.7947 39.9011C69.4346 39.6456 70.1609 39.97 70.4692 40.5979Z" fill="#FFE266"/>
<path d="M159.359 98.6334C161.749 97.3071 162.817 96.3837 164.476 94.211C164.9 93.6504 165.677 93.4766 166.253 93.8514C166.829 94.2262 166.947 95.0855 166.459 95.7246C164.549 98.2265 163.32 99.2885 160.569 100.815C159.866 101.206 159.033 100.967 158.746 100.341C158.459 99.7146 158.746 98.9738 159.359 98.6334Z" fill="#C6225D"/>
<path d="M44.2901 125.362C44.7922 122.685 44.7986 121.272 44.3237 118.588C44.202 117.902 44.5311 117.2 45.1093 117.01C45.6875 116.82 46.3194 117.3 46.4587 118.091C47.0057 121.18 46.9984 122.805 46.4211 125.887C46.2729 126.675 45.6379 127.146 45.0597 126.949C44.4815 126.752 44.1611 126.047 44.2893 125.362" fill="#C6225D"/>
<path d="M119.685 54.5017C117.166 53.4373 115.782 53.1658 113.048 53.1987C112.349 53.2067 111.731 52.7061 111.67 52.0198C111.609 51.3334 112.213 50.7136 113.018 50.7031C116.164 50.6655 117.757 50.9778 120.656 52.2032C121.397 52.5163 121.723 53.3196 121.407 53.9323C121.09 54.5449 120.329 54.7748 119.685 54.5017Z" fill="#C6225D"/>
<path d="M99.4307 169.121C101.193 167.03 101.863 165.789 102.64 163.167C102.84 162.497 103.501 162.054 104.175 162.199C104.848 162.344 105.262 163.105 105.032 163.881C104.137 166.898 103.367 168.328 101.338 170.733C100.819 171.349 99.9561 171.421 99.4652 170.939C98.9743 170.456 98.9799 169.657 99.4307 169.125" fill="#C6225D"/>
<path d="M51.2016 42.676C48.8336 44.0415 47.7813 44.9817 46.1564 47.1825C45.7416 47.7431 44.9696 47.9353 44.3858 47.5701C43.802 47.2049 43.6715 46.3488 44.1456 45.7001C46.0147 43.1677 47.2248 42.0866 49.9507 40.5144C50.6483 40.114 51.4843 40.3375 51.7814 40.9589C52.0785 41.5804 51.8038 42.326 51.1976 42.676" fill="#C6225D"/>
<path d="M104.494 30.575C102.104 31.9013 101.036 32.8247 99.3768 34.9974C98.9524 35.558 98.1756 35.7318 97.599 35.357C97.0224 34.9822 96.9055 34.1229 97.3932 33.483C99.3031 30.9819 100.532 29.9199 103.282 28.3934C103.986 28.0018 104.819 28.2413 105.107 28.8676C105.394 29.4938 105.107 30.2346 104.494 30.575Z" fill="#C6225D"/>
<path d="M165.811 71.5309C166.116 68.8144 165.982 67.4097 165.171 64.798C164.963 64.1293 165.267 63.3941 165.908 63.1402C166.549 62.8863 167.315 63.29 167.554 64.0588C168.485 67.0645 168.639 68.6806 168.29 71.808C168.2 72.6089 167.523 73.1487 166.848 73.0198C166.174 72.8908 165.734 72.2261 165.812 71.5309" fill="#78D9FF"/>
<path d="M47.9541 93.8934C44.8069 93.3168 43.3478 92.7297 40.9574 91.0823C40.3455 90.6603 39.3669 90.7252 38.7207 91.2786C38.0744 91.832 38.0728 92.7201 38.7767 93.2095C41.5284 95.1059 43.2077 95.7811 46.8298 96.445C47.7563 96.6148 48.7373 96.1166 48.9856 95.4038C49.2338 94.6911 48.7597 94.0424 47.9541 93.8942" fill="#78D9FF"/>
<path d="M142.872 46.5246C140.265 47.3447 139.033 48.0343 136.972 49.8298C136.444 50.2895 135.649 50.3104 135.158 49.8242C134.667 49.3381 134.726 48.4772 135.333 47.9478C137.706 45.8815 139.123 45.0879 142.124 44.1445C142.892 43.9042 143.66 44.3046 143.816 44.9758C143.972 45.6469 143.54 46.3148 142.872 46.5246Z" fill="#78D9FF"/>
<path d="M72.664 157.64C75.3067 156.941 76.5688 156.307 78.7102 154.608C79.258 154.173 80.0532 154.191 80.5217 154.696C80.9901 155.201 80.8924 156.062 80.2614 156.563C77.7957 158.519 76.3454 159.247 73.3031 160.052C72.5247 160.259 71.7767 159.822 71.6518 159.145C71.5269 158.467 71.9881 157.819 72.664 157.64Z" fill="#78D9FF"/>
<path d="M96.6938 20.0913C93.9903 20.503 92.669 20.9963 90.357 22.4563C89.7652 22.8295 88.9772 22.727 88.5656 22.1744C88.1539 21.6218 88.3437 20.7761 89.0244 20.3468C91.6855 18.665 93.2063 18.0988 96.3175 17.6239C97.1135 17.5021 97.8102 18.0163 97.8622 18.7034C97.9143 19.3906 97.3818 19.9848 96.6938 20.0905" fill="#78D9FF"/>
<path d="M131.865 144.872C129.568 146.355 128.564 147.346 127.053 149.625C126.666 150.209 125.905 150.437 125.303 150.105C124.702 149.774 124.529 148.921 124.974 148.249C126.714 145.627 127.868 144.485 130.512 142.779C131.189 142.343 132.034 142.526 132.363 143.131C132.692 143.737 132.453 144.493 131.865 144.876" fill="#78D9FF"/>
<path d="M51.6107 129.13C49.7289 130.432 47.7207 131.54 45.6165 132.44C43.5144 133.3 41.3073 133.953 38.9938 134.037C37.8091 134.095 36.624 133.932 35.499 133.556L35.0658 133.396C34.9232 133.338 34.7831 133.266 34.6413 133.2C33.7494 132.78 32.9609 132.169 32.3318 131.41C31.4437 130.361 30.9007 128.983 30.6501 127.611C30.3994 126.239 30.425 124.842 30.5932 123.516C30.6437 123.186 30.6885 122.859 30.7446 122.526C30.8174 122.186 30.8783 121.843 30.9784 121.513C31.1565 120.854 31.3879 120.211 31.6703 119.591C32.2121 118.408 32.9064 117.301 33.7356 116.298C35.3372 114.356 37.1791 112.808 39.0915 111.481C41.003 110.142 42.9979 109.018 45.0111 107.98C47.0324 106.958 49.0795 106.03 51.1526 105.196C51.1852 105.183 51.22 105.178 51.2547 105.181C51.2894 105.183 51.3232 105.193 51.3537 105.21C51.3841 105.227 51.4106 105.25 51.4312 105.278C51.4517 105.306 51.466 105.339 51.4729 105.373C51.4929 105.437 51.4915 105.506 51.4688 105.57C51.4462 105.633 51.4035 105.688 51.3472 105.725C49.4036 106.896 47.4512 108.028 45.5453 109.241C43.6345 110.442 41.7614 111.703 39.9804 113.08C38.2186 114.475 36.5193 115.982 35.1555 117.757C34.4728 118.632 33.8949 119.584 33.4337 120.593C33.2114 121.094 33.0303 121.612 32.8924 122.143C32.8123 122.406 32.7722 122.675 32.7154 122.944L32.5929 123.797C32.4615 124.935 32.4327 126.073 32.6217 127.121C32.8107 128.169 33.1686 129.134 33.7772 129.875C34.3578 130.644 35.1731 131.188 36.0812 131.538C36.9893 131.888 37.9936 132.046 39.0154 132.08C40.0372 132.115 41.0847 132 42.1266 131.82C43.1844 131.64 44.2281 131.385 45.2498 131.057C47.3263 130.432 49.3596 129.546 51.3856 128.608C51.4175 128.594 51.4519 128.588 51.4866 128.588C51.5214 128.589 51.5555 128.598 51.5867 128.613C51.6179 128.628 51.6454 128.65 51.6674 128.677C51.6894 128.704 51.7052 128.735 51.7139 128.768C51.7354 128.832 51.7365 128.901 51.7169 128.965C51.6974 129.029 51.6583 129.085 51.605 129.126" fill="#FFFEFD"/>
<path d="M87.3035 139.248C84.0305 140.571 80.7912 141.988 77.6472 143.544C76.0696 144.31 74.5213 145.124 73.0025 145.987C71.4809 146.838 70.0082 147.756 68.5915 148.733C67.1785 149.684 65.843 150.746 64.5979 151.908C63.3798 153.058 62.2883 154.317 61.5147 155.694C61.421 155.867 61.3113 156.035 61.2304 156.211L60.9998 156.742C60.8204 157.092 60.7491 157.463 60.6258 157.82C60.5561 157.999 60.5457 158.186 60.5097 158.368L60.4104 158.918L60.3751 159.502C60.3559 159.695 60.3505 159.889 60.3592 160.083L60.38 160.656C60.38 160.849 60.428 161.029 60.4472 161.216C60.48 161.594 60.5946 161.937 60.6819 162.297C60.7275 162.474 60.8124 162.632 60.8733 162.801L60.9702 163.053C61.0046 163.133 61.0559 163.208 61.0967 163.286C61.1856 163.439 61.2633 163.599 61.3554 163.748L61.6701 164.172C62.1233 164.706 62.6359 165.203 63.2813 165.55L63.5112 165.695L63.7642 165.809L64.2663 166.044L64.8045 166.223C64.9828 166.292 65.1666 166.345 65.3538 166.383C66.849 166.753 68.485 166.792 70.1187 166.618C73.402 166.265 76.6686 165.137 79.7846 163.719C80.1794 163.551 80.5629 163.357 80.9481 163.164L82.1045 162.59C82.8597 162.17 83.6261 161.777 84.3716 161.335C85.866 160.463 87.3347 159.543 88.7713 158.559C91.6478 156.585 94.4172 154.459 97.0678 152.191L101.102 148.719C101.44 148.421 101.789 148.135 102.143 147.856L103.199 147.01C103.895 146.437 105.375 145.328 106.099 144.793C109.001 142.642 111.3 141.243 114.508 139.538C117.716 137.833 121.075 136.377 124.604 135.374L125.926 135.001L127.267 134.687L127.937 134.533L128.615 134.407C129.068 134.327 129.518 134.232 129.977 134.167C131.805 133.884 133.652 133.742 135.502 133.741C137.371 133.733 139.235 133.917 141.066 134.292C142.908 134.673 144.728 135.258 146.436 136.171L147.076 136.521C147.287 136.641 147.489 136.783 147.695 136.915C148.112 137.167 148.495 137.488 148.889 137.789C149.645 138.441 150.361 139.174 150.931 140.064C151.487 140.957 151.875 141.944 152.075 142.977C152.264 143.987 152.287 145.022 152.143 146.04C151.849 148.042 151.022 149.824 150.031 151.415C149.529 152.201 148.974 152.952 148.371 153.664C147.787 154.371 147.167 155.049 146.514 155.694C143.908 158.252 140.958 160.354 137.845 162.108C137.771 162.151 137.684 162.164 137.601 162.145C137.519 162.126 137.446 162.077 137.398 162.006C137.351 161.936 137.332 161.85 137.345 161.766C137.358 161.682 137.402 161.607 137.469 161.554C140.224 159.342 142.873 157.018 145.115 154.394C146.241 153.091 147.259 151.71 148.065 150.251C148.872 148.791 149.476 147.254 149.628 145.727C149.715 144.984 149.681 144.231 149.526 143.499C149.369 142.791 149.086 142.117 148.689 141.509C148.255 140.898 147.74 140.347 147.16 139.872C146.843 139.641 146.547 139.392 146.199 139.189C146.03 139.086 145.869 138.97 145.693 138.874L145.161 138.591C143.731 137.846 142.139 137.347 140.507 137.031C138.856 136.714 137.178 136.569 135.498 136.597C133.801 136.62 132.108 136.771 130.434 137.049C130.013 137.115 129.596 137.209 129.177 137.289L128.55 137.413L127.927 137.564L126.682 137.871L125.45 138.234L124.834 138.416L124.224 138.626L123.007 139.045L121.806 139.514C121.405 139.674 121.005 139.818 120.611 140.001C119.825 140.355 119.026 140.675 118.257 141.069L117.095 141.638C116.706 141.826 116.331 142.044 115.949 142.246C112.9 143.897 109.979 145.774 107.209 147.86C106.514 148.382 105.814 148.901 105.145 149.456L104.129 150.276C103.788 150.547 103.454 150.825 103.127 151.114L99.1211 154.599C96.3742 156.93 93.5042 159.113 90.5235 161.138C89.03 162.153 87.49 163.106 85.9188 164.014C85.1356 164.472 84.3236 164.886 83.5268 165.322L82.2999 165.925C81.8907 166.127 81.4831 166.33 81.0611 166.509L79.8046 167.062C79.3834 167.242 78.9509 167.4 78.5233 167.569L77.8826 167.819C77.6672 167.899 77.4462 167.968 77.2284 168.043C76.7895 168.187 76.3563 168.343 75.9134 168.477C74.1214 169.026 72.2797 169.397 70.415 169.586C68.5283 169.761 66.5671 169.713 64.6219 169.209C64.3755 169.153 64.1333 169.08 63.8971 168.99L63.1764 168.736L62.4765 168.405L62.1281 168.235L61.7942 168.028C60.8853 167.513 60.0892 166.764 59.4214 165.936L58.9545 165.284C58.816 165.057 58.6958 164.818 58.5685 164.585C58.5076 164.467 58.4388 164.352 58.3875 164.23L58.2434 163.861C58.1545 163.615 58.0424 163.371 57.9775 163.12C57.8494 162.615 57.7068 162.112 57.662 161.598C57.6356 161.345 57.5819 161.089 57.5819 160.838L57.5635 160.082C57.557 159.833 57.5666 159.584 57.5923 159.336L57.6484 158.594L57.7869 157.835C57.8398 157.583 57.867 157.325 57.9583 157.087C58.1185 156.606 58.2434 156.106 58.4692 155.661L58.7783 154.978C58.8856 154.754 59.0186 154.549 59.1395 154.333C60.1293 152.63 61.4114 151.2 62.7872 149.943C64.1645 148.718 65.6373 147.606 67.1917 146.615C68.7256 145.648 70.3085 144.76 71.9341 143.956C73.5502 143.155 75.2039 142.445 76.8672 141.776C80.2122 140.477 83.6133 139.373 87.1128 138.6C87.1968 138.576 87.2865 138.587 87.3629 138.629C87.4393 138.671 87.4964 138.741 87.5222 138.824C87.548 138.907 87.5405 138.997 87.5011 139.075C87.4618 139.152 87.3937 139.212 87.3114 139.24L87.3035 139.248Z" fill="#FFFEFD"/>
<path d="M44.4302 142.967C45.6314 145.42 46.5027 146.533 48.5904 148.3C49.1246 148.751 49.2631 149.534 48.8603 150.093C48.4575 150.651 47.5934 150.725 46.9784 150.204C44.5759 148.171 43.5773 146.892 42.1903 144.068C41.8347 143.347 42.1158 142.525 42.7557 142.27C43.3955 142.014 44.1211 142.339 44.4302 142.967Z" fill="#FFE266"/>
<path d="M146.422 128.099C146.726 125.382 146.592 123.978 145.781 121.366C145.573 120.698 145.878 119.963 146.518 119.709C147.159 119.455 147.926 119.858 148.164 120.627C149.096 123.633 149.249 125.249 148.9 128.376C148.81 129.177 148.133 129.716 147.459 129.587C146.784 129.458 146.344 128.795 146.418 128.099" fill="#78D9FF"/>
<path d="M152.077 87.479C150.734 89.8599 150.299 91.199 149.989 93.8995C149.909 94.5899 149.349 95.1505 148.678 95.1457C148.007 95.1409 147.482 94.4834 147.573 93.6881C147.929 90.5807 148.43 89.0431 149.976 86.2993C150.371 85.5977 151.187 85.355 151.738 85.7258C152.288 86.0967 152.418 86.8695 152.074 87.479" fill="#FFE266"/>
<path d="M53.7023 74.796C53.3668 77.5101 53.4845 78.9157 54.2629 81.5361C54.4623 82.208 54.1492 82.9384 53.5062 83.1851C52.8631 83.4318 52.1007 83.0201 51.8709 82.2481C50.974 79.2312 50.8394 77.6134 51.2246 74.49C51.3239 73.6892 52.0062 73.159 52.6821 73.2959C53.358 73.4329 53.7864 74.1016 53.7016 74.796" fill="white"/>
<path d="M200.207 98.3651C198.997 72.6099 187.831 48.8669 168.764 31.5104C149.697 14.154 125.01 5.26057 99.2609 6.4715C73.5119 7.68243 49.7566 18.8484 32.3987 37.9161C15.0408 56.9837 6.14949 81.6621 7.35956 107.412C8.56963 133.161 19.7366 156.919 38.8024 174.277C56.7209 190.591 79.6003 199.428 103.668 199.428C105.21 199.428 106.756 199.391 108.305 199.319C134.062 198.109 157.805 186.943 175.161 167.879C192.518 148.815 201.417 124.121 200.207 98.3651ZM104.903 126.832C91.6971 127.452 80.4722 117.211 79.8528 104.008C79.6972 100.865 80.1661 97.7232 81.2324 94.7633C82.2987 91.8033 83.9413 89.0842 86.0652 86.7631C88.1776 84.429 90.732 82.5371 93.5805 81.197C96.429 79.8568 99.5151 79.0951 102.66 78.956C103.043 78.9385 103.426 78.9298 103.807 78.9298C109.766 78.9206 115.51 81.1488 119.904 85.1734C122.238 87.286 124.13 89.8406 125.47 92.6893C126.81 95.538 127.571 98.6241 127.71 101.769C127.866 104.914 127.396 108.058 126.329 111.02C125.263 113.982 123.619 116.703 121.494 119.026C119.382 121.359 116.828 123.25 113.98 124.589C111.132 125.929 108.047 126.69 104.903 126.829V126.832Z" fill="#7B7975"/>
<path d="M192.835 92.8774C190.356 40.1513 145.609 -0.590569 92.8848 1.88812C40.1445 4.36682 -0.590643 49.1178 1.88388 101.833C4.36642 154.576 49.1145 195.314 101.839 192.836C154.563 190.357 195.313 145.618 192.835 92.8774ZM97.1267 139.4C74.3562 139.4 55.8998 120.944 55.8998 98.1759C55.8998 75.408 74.3562 56.9511 97.1267 56.9511C119.897 56.9511 138.348 75.408 138.348 98.1759C138.348 120.944 119.893 139.4 97.1267 139.4Z" fill="#FFB757"/>
<path d="M97.1257 56.9512C74.3552 56.9512 55.9004 75.4072 55.9004 98.176C55.9004 120.945 74.3552 139.4 97.1257 139.4C119.896 139.4 138.348 120.944 138.348 98.176C138.348 75.408 119.893 56.9512 97.1257 56.9512ZM98.5736 123.28C84.2621 123.95 72.1225 112.894 71.4515 98.5684C70.7764 84.2721 81.8244 72.1148 96.1487 71.4437C110.444 70.7726 122.6 81.8302 123.272 96.1426C123.943 110.455 112.882 122.609 98.5736 123.28Z" fill="#E88B46"/>
<path d="M192.835 92.8777C192.505 85.7419 191.379 78.6651 189.48 71.7788C189.919 74.8632 190.215 77.9992 190.37 81.1866C192.847 133.927 152.098 178.668 99.3728 181.145C53.952 183.274 14.4533 153.349 2.78857 111.293C9.82135 159.363 52.3135 195.16 101.838 192.837C154.562 190.36 195.312 145.619 192.835 92.8777Z" fill="#E88B46"/>
<path d="M97.2443 194.722C72.9708 194.722 49.8944 185.81 31.8224 169.357C12.5931 151.849 1.33044 127.899 0.109999 101.917C-1.11045 75.935 7.85792 51.0536 25.3638 31.8247C42.8697 12.5958 66.8197 1.33237 92.799 0.110246C118.778 -1.11188 143.668 7.86027 162.899 25.3641C182.129 42.8679 193.39 66.8163 194.611 92.7925C195.831 118.773 186.861 143.671 169.352 162.902C151.842 182.132 127.898 193.39 101.923 194.611C100.36 194.686 98.8001 194.723 97.2443 194.722ZM97.4734 3.55479C95.9742 3.55479 94.4716 3.59003 92.9656 3.6605C67.9352 4.83618 44.8605 15.6872 27.9928 34.2153C11.1252 52.7434 2.48521 76.7279 3.66402 101.75C4.84282 126.773 15.6907 149.859 34.2184 166.728C52.7461 183.597 76.7258 192.235 101.757 191.061C153.424 188.633 193.483 144.622 191.062 92.9615C189.886 67.9335 179.034 44.8613 160.507 27.9949C143.094 12.1441 120.858 3.55799 97.4734 3.55799V3.55479ZM97.3268 125.084C91.9005 125.079 86.595 123.481 82.0681 120.489C77.5413 117.497 73.992 113.242 71.8603 108.251C69.7286 103.261 69.1083 97.7544 70.0761 92.4148C71.044 87.0751 73.5576 82.1369 77.3052 78.2123C81.0528 74.2877 85.8698 71.5493 91.1589 70.3366C96.448 69.1238 101.977 69.4901 107.06 71.3899C112.143 73.2897 116.556 76.6395 119.754 81.0242C122.951 85.4088 124.791 90.6354 125.046 96.0561C125.762 111.329 113.923 124.336 98.6562 125.053C98.2125 125.076 97.7694 125.088 97.3268 125.088V125.084ZM97.3877 73.188C97.0033 73.188 96.6175 73.1968 96.2305 73.2145C89.8277 73.5141 83.8061 76.3451 79.4905 81.0847C75.1748 85.8243 72.9186 92.0843 73.2182 98.4875C73.5178 104.891 76.3486 110.913 81.0879 115.229C85.8272 119.545 92.0868 121.801 98.4896 121.501C111.799 120.877 122.12 109.537 121.495 96.2219C121.203 90.0218 118.537 84.1718 114.05 79.8837C109.562 75.5957 103.597 73.1982 97.3909 73.188H97.3877Z" fill="black"/>
<path d="M179.969 93.48C179.536 84.27 183.05 74.3528 179.96 66.1703C176.757 57.6875 167.472 52.5955 161.919 45.668C156.307 38.674 153.335 28.5214 145.845 23.5912C145.506 23.3662 145.162 23.1588 144.81 22.9593C137.477 18.8172 127.558 19.86 119.207 17.5791C110.768 15.2694 102.438 8.75751 93.2265 9.18998C85.5923 9.55037 79.0048 14.5991 72.3124 18.0708C70.962 18.7899 69.569 19.4257 68.1409 19.9745C59.6587 23.178 49.1119 22.9001 42.1856 28.4533C35.1873 34.0658 33.178 44.4475 28.2442 51.9388C23.3592 59.3525 14.5942 65.2965 12.1998 74.0372C9.88943 82.4776 14.3188 92.02 14.7512 101.232C15.1837 110.445 11.6705 120.364 14.76 128.55C17.9633 137.039 27.244 142.127 32.7968 149.052C38.409 156.048 41.3848 166.205 48.8748 171.131C56.2888 176.016 66.7627 174.755 75.5124 177.146C83.9474 179.457 92.2855 185.968 101.497 185.536C110.709 185.104 118.395 177.837 126.583 174.751C135.065 171.548 145.612 171.822 152.538 166.269C159.533 160.663 161.546 150.27 166.48 142.783C171.359 135.369 180.13 129.425 182.52 120.679C184.83 112.243 180.4 102.696 179.969 93.484M127.079 114.217C123.921 119.672 122.421 127.271 116.965 130.428C111.67 133.484 104.413 131.08 97.8688 131.08C91.3246 131.08 84.0579 133.483 78.7677 130.428C73.3126 127.269 71.8079 119.672 68.6494 114.217C65.5895 108.926 59.6803 103.898 59.6803 97.3538C59.6803 90.8091 65.5895 85.7756 68.6494 80.4858C71.8079 75.0295 73.3126 67.4317 78.7677 64.2746C82.6245 62.0434 87.5303 62.7153 92.4425 63.2447C94.266 63.4401 96.0926 63.6179 97.8648 63.6179C104.409 63.6179 111.666 61.2153 116.961 64.2706C116.974 64.2794 116.982 64.2834 116.995 64.2914C122.425 67.4629 123.926 75.0383 127.075 80.4818C130.139 85.7676 136.049 90.7994 136.049 97.3498C136.049 103.9 130.139 108.922 127.075 114.213" fill="#FF61CB"/>
<path d="M97.3282 124.643C90.1478 124.638 83.2588 121.803 78.1546 116.753C73.0504 111.702 70.1425 104.843 70.0613 97.6627C69.9802 90.4823 72.7323 83.5593 77.721 78.3947C82.7098 73.23 89.533 70.24 96.7114 70.0728C103.89 69.9057 110.845 72.5749 116.069 77.5017C121.292 82.4286 124.364 89.2159 124.617 96.3923C124.87 103.569 122.284 110.556 117.421 115.838C112.557 121.121 105.807 124.274 98.6351 124.613C98.1987 124.633 97.7598 124.643 97.3282 124.643ZM97.3891 72.7467C96.9972 72.7467 96.6042 72.7561 96.2102 72.7748C89.7617 73.0833 83.6946 75.9212 79.3243 80.6734C74.954 85.4255 72.6327 91.7087 72.8637 98.1609C73.0947 104.613 75.8594 110.714 80.5583 115.142C85.2573 119.569 91.5118 121.966 97.9659 121.812C104.42 121.659 110.553 118.968 115.037 114.322C119.52 109.676 121.992 103.45 121.916 96.9945C121.84 90.5386 119.222 84.3728 114.631 79.8338C110.04 75.2948 103.845 72.7484 97.3891 72.7467Z" fill="black"/>
<path d="M146.209 80.8995C149.524 79.7311 152.947 78.8993 156.429 78.4168C159.89 77.9907 163.425 77.913 166.886 78.7251C168.615 79.1255 170.32 79.7862 171.873 80.8434L172.451 81.2502C172.64 81.3928 172.819 81.5562 173.002 81.7107C173.377 82.0063 173.706 82.3787 174.043 82.7351C174.684 83.4879 175.279 84.3296 175.7 85.2978C176.594 87.2103 176.842 89.4704 176.654 91.6039C176.467 93.7534 175.869 95.798 175.085 97.6953C174.877 98.1646 174.679 98.6307 174.461 99.1016C174.216 99.5757 173.986 100.063 173.706 100.509C173.176 101.412 172.573 102.271 171.904 103.077C170.623 104.611 169.148 105.971 167.515 107.122C164.361 109.354 161.008 110.905 157.633 112.097C154.26 113.31 150.851 114.169 147.447 114.895C144.04 115.595 140.632 116.144 137.223 116.541C137.004 116.566 136.822 116.392 136.818 116.149C136.815 116.045 136.845 115.943 136.905 115.858C136.964 115.773 137.05 115.71 137.148 115.677C140.5 114.728 143.85 113.835 147.164 112.811C150.479 111.807 153.765 110.691 156.96 109.367C160.139 108.013 163.26 106.466 165.998 104.386C167.364 103.345 168.623 102.187 169.695 100.878C170.226 100.225 170.704 99.5305 171.124 98.8005C171.345 98.4433 171.516 98.0597 171.708 97.6881L172.234 96.4724C172.888 94.8402 173.393 93.1664 173.532 91.5358C173.672 89.9052 173.532 88.3323 172.932 86.9877C172.382 85.6142 171.393 84.4793 170.19 83.5936C168.986 82.7078 167.561 82.0719 166.06 81.605C164.559 81.1381 162.962 80.8842 161.345 80.7345C159.705 80.5746 158.057 80.5313 156.411 80.6047C153.081 80.692 149.71 81.1838 146.33 81.7548H146.326C146.108 81.7916 145.918 81.6267 145.903 81.3864C145.896 81.2834 145.922 81.1808 145.976 81.0934C146.031 81.006 146.113 80.9383 146.209 80.9003" fill="#FFFEFD"/>
<path d="M78.2202 29.1119C73.5955 29.8711 68.9876 30.7633 64.463 31.8629C62.1967 32.3968 59.9544 33.0007 57.7361 33.6745C55.5203 34.3344 53.342 35.0936 51.2231 35.9466C49.1041 36.7995 47.0404 37.7533 45.1265 38.8962C43.2125 40.039 41.4331 41.342 40.0309 42.9005C39.8595 43.0975 39.6673 43.2825 39.512 43.4875L39.0579 44.1082C38.7248 44.5087 38.5246 44.9676 38.2571 45.396C38.1145 45.6074 38.0472 45.8453 37.9463 46.072L37.6589 46.7535L37.4426 47.5007C37.3614 47.7449 37.298 47.9946 37.2529 48.2479L37.1127 48.9959C37.0534 49.245 37.0663 49.4933 37.0374 49.7407C36.9694 50.2397 37.0166 50.7218 37.0262 51.2079C37.0334 51.4482 37.0975 51.6804 37.1263 51.9175L37.1791 52.2707C37.2008 52.3876 37.2448 52.4973 37.2761 52.6103C37.3457 52.8345 37.4002 53.0635 37.4763 53.2854L37.7597 53.9261C38.1914 54.7494 38.7103 55.543 39.4455 56.1805L39.7009 56.4344L39.9948 56.657L40.5778 57.1071L41.2225 57.4964C41.4336 57.6362 41.6559 57.7584 41.8872 57.8616C43.7162 58.7754 45.824 59.3031 47.9902 59.553C52.345 60.0519 56.9041 59.5434 61.3534 58.6136C61.914 58.5111 62.4666 58.3733 63.0215 58.234L64.6864 57.8271C65.7868 57.5028 66.8951 57.2177 67.9882 56.8661C70.1776 56.1717 72.3527 55.4093 74.4948 54.5516C78.7888 52.8545 82.9835 50.8756 87.0949 48.7204L93.3301 45.3976C93.8546 45.1117 94.3896 44.8426 94.9317 44.5847L96.5461 43.7975C97.6144 43.2569 98.714 42.7788 99.8095 42.291C104.194 40.3513 108.718 38.6871 113.369 37.4129C118.02 36.1388 122.798 35.233 127.657 34.9639L129.478 34.8662L131.305 34.8494L132.219 34.8446L133.134 34.8798C133.743 34.9086 134.354 34.9158 134.963 34.9599C137.412 35.1272 139.844 35.4806 142.239 36.017C144.662 36.5509 147.024 37.3326 149.286 38.35C151.558 39.3799 153.747 40.6725 155.693 42.3487L156.414 42.9894C156.654 43.2056 156.871 43.4499 157.1 43.6798C157.566 44.1282 157.971 44.6552 158.392 45.1598C159.18 46.2249 159.896 47.3822 160.374 48.7004C160.834 50.0189 161.049 51.4105 161.008 52.8065C160.96 54.1701 160.689 55.5167 160.207 56.7932C159.246 59.2999 157.651 61.367 155.907 63.1401C155.031 64.0129 154.097 64.826 153.112 65.5739C152.149 66.32 151.149 67.0169 150.115 67.6618C145.995 70.2166 141.563 72.0786 137.019 73.4449C136.912 73.4767 136.797 73.4672 136.697 73.4182C136.596 73.3693 136.518 73.2844 136.477 73.1805C136.436 73.0765 136.436 72.961 136.476 72.8568C136.516 72.7525 136.594 72.6672 136.694 72.6176C140.907 70.5554 145.015 68.3161 148.683 65.5699C150.52 64.2085 152.241 62.7188 153.711 61.0634C155.186 59.4249 156.41 57.5933 157.051 55.6608C157.381 54.7237 157.556 53.739 157.569 52.7456C157.572 51.7827 157.401 50.8271 157.065 49.9249C156.708 49.036 156.18 48.1742 155.56 47.3622C155.218 46.9697 154.907 46.5613 154.519 46.1977C154.33 46.0143 154.155 45.8189 153.958 45.6427L153.352 45.1213C151.718 43.7398 149.801 42.6298 147.778 41.7448C145.734 40.8541 143.602 40.1772 141.418 39.7251C139.214 39.2596 136.978 38.9619 134.728 38.8345C134.164 38.7968 133.596 38.7992 133.031 38.7784L132.182 38.7552L131.33 38.7704L129.63 38.8049L127.927 38.917L127.077 38.9738L126.227 39.0587L124.528 39.2461L122.835 39.5048C122.275 39.5961 121.706 39.665 121.146 39.7875C120.025 40.0174 118.898 40.1976 117.787 40.4851L116.115 40.8855C115.554 41.0161 115.009 41.189 114.456 41.3388C110.035 42.5705 105.707 44.1835 101.496 46.0703C100.444 46.5445 99.3875 47.0082 98.3576 47.5359L96.804 48.3024C96.2827 48.553 95.7685 48.8157 95.2616 49.0952L89.0521 52.4405C84.8198 54.6413 80.4834 56.6603 76.0132 58.4053C73.7829 59.2863 71.5102 60.0712 69.2111 60.7887C68.0643 61.1539 66.8887 61.4527 65.7331 61.7874L63.9657 62.2039C63.3779 62.3464 62.7901 62.4906 62.1911 62.5987L60.4037 62.9503C59.8063 63.06 59.2025 63.1385 58.5978 63.233L57.6929 63.3699C57.391 63.41 57.0843 63.4356 56.78 63.4692C56.1697 63.5285 55.5635 63.6038 54.9501 63.6486C52.4695 63.8374 49.9763 63.7821 47.5065 63.4837C45.0128 63.1633 42.4862 62.5266 40.1133 61.3077C39.8107 61.1636 39.5185 60.9985 39.2389 60.8136L38.382 60.2754L37.5724 59.6419L37.1719 59.3215L36.8004 58.9555C35.7729 58.0233 34.9585 56.822 34.3362 55.5559L33.9206 54.5756C33.8077 54.2408 33.722 53.8973 33.6251 53.5577C33.5811 53.3863 33.5251 53.2173 33.4938 53.0451L33.4137 52.5262C33.3697 52.1802 33.2952 51.8326 33.284 51.485C33.2656 50.7947 33.2279 50.1003 33.3176 49.4284C33.3577 49.0928 33.3608 48.7445 33.4353 48.4193L33.6308 47.4358C33.6954 47.1105 33.7805 46.7895 33.8854 46.4748L34.1737 45.5306L34.5741 44.5871C34.715 44.278 34.8304 43.9512 35.0138 43.6685C35.3629 43.0943 35.6688 42.4808 36.0901 41.9707L36.6899 41.1762C36.8949 40.9176 37.1279 40.6909 37.3449 40.4466C39.1228 38.5294 41.2001 37.0509 43.3511 35.8232C45.5133 34.6083 47.7556 33.6344 50.0267 32.7967C52.3042 31.971 54.6194 31.3127 56.9433 30.7329C59.2705 30.1659 61.6185 29.7294 63.9681 29.3466C68.6785 28.6386 73.4041 28.1989 78.1626 28.2174C78.271 28.2221 78.3741 28.2663 78.4522 28.3417C78.5304 28.4171 78.5783 28.5185 78.587 28.6267C78.5956 28.7349 78.5644 28.8426 78.4992 28.9295C78.4341 29.0163 78.3394 29.0764 78.2331 29.0983L78.2202 29.1119Z" fill="#FFFEFD"/>
<path d="M100.612 187.336C94.7215 187.336 89.304 184.854 84.0554 182.451C80.9386 181.023 77.9948 179.674 75.0414 178.865C71.9182 178.011 68.4403 177.629 65.0744 177.259C59.0931 176.601 52.9076 175.921 47.8969 172.62C42.8357 169.289 39.7598 163.864 36.7863 158.617C35.0502 155.553 33.4093 152.659 31.4121 150.169C29.4501 147.722 27.0076 145.52 24.4217 143.188C19.9203 139.129 15.266 134.933 13.095 129.179C11.0192 123.674 11.6999 117.54 12.359 111.608C12.7394 108.185 13.1326 104.641 12.9764 101.317C12.8203 97.9936 12.0955 94.5018 11.3972 91.1285C10.1856 85.2862 8.93233 79.2452 10.4851 73.5703C12.11 67.6382 16.3527 63.0236 20.4561 58.5611C22.8121 55.9984 25.0376 53.5805 26.7617 50.9633C28.5163 48.298 29.8785 45.2635 31.3208 42.0512C33.7905 36.5492 36.3443 30.8607 41.0731 27.0677C45.7539 23.3149 51.8457 22.0599 57.7373 20.8458C61.0543 20.1626 64.4842 19.4555 67.5129 18.3126C70.3806 17.2314 73.1875 15.6113 76.1617 13.8966C81.4319 10.8533 86.8807 7.7099 93.1447 7.41357C99.4087 7.11725 105.134 9.7425 110.667 12.2789C113.784 13.7068 116.728 15.0563 119.681 15.8644C122.801 16.7173 126.279 17.1001 129.643 17.4661C135.625 18.1244 141.811 18.8043 146.825 22.1047C151.886 25.4348 154.96 30.8582 157.932 36.1031C159.669 39.1681 161.31 42.0624 163.308 44.5531C165.27 46.999 167.713 49.1982 170.299 51.5327C174.801 55.5907 179.456 59.7865 181.628 65.5399C183.703 71.0451 183.022 77.1782 182.363 83.1086C181.983 86.5323 181.589 90.0762 181.745 93.3982C181.906 96.7242 182.626 100.211 183.325 103.584C184.537 109.43 185.791 115.472 184.24 121.146C182.616 127.081 178.373 131.697 174.27 136.16C171.915 138.723 169.69 141.141 167.967 143.758C166.211 146.425 164.849 149.459 163.407 152.671C160.936 158.173 158.382 163.863 153.655 167.654C148.974 171.409 142.879 172.665 136.986 173.88C133.669 174.563 130.239 175.27 127.211 176.412C124.345 177.494 121.541 179.114 118.571 180.828C113.3 183.872 107.849 187.017 101.584 187.315C101.258 187.33 100.934 187.337 100.612 187.336ZM94.0888 10.9438C93.8288 10.9438 93.5686 10.95 93.308 10.9622C87.9073 11.2177 82.8382 14.1433 77.9324 16.9728C74.9693 18.6834 71.903 20.4525 68.7646 21.6362C65.474 22.8776 61.904 23.6136 58.4517 24.3247C52.7202 25.506 47.3067 26.6216 43.2938 29.8379C39.2337 33.0951 36.9673 38.151 34.5609 43.504C33.125 46.7075 31.6395 50.0111 29.7271 52.9158C27.8452 55.7725 25.418 58.4122 23.07 60.9654C19.0779 65.3061 15.3076 69.4065 13.911 74.5057C12.584 79.3565 13.6972 84.7224 14.872 90.4029C15.5999 93.9116 16.3527 97.5403 16.5217 101.147C16.6906 104.755 16.2814 108.435 15.8858 111.998C15.2452 117.765 14.6405 123.211 16.4152 127.921C18.2811 132.867 22.4165 136.596 26.7954 140.544C29.3732 142.866 32.0383 145.269 34.1789 147.941C36.3547 150.654 38.1429 153.809 39.8727 156.86C42.766 161.965 45.4993 166.791 49.8453 169.647C54.1417 172.478 59.6377 173.082 65.4572 173.721C68.9592 174.107 72.5845 174.505 75.9736 175.433C79.2065 176.314 82.4209 177.791 85.5297 179.216C90.6789 181.576 96.0052 184.013 101.407 183.762C106.81 183.51 111.88 180.58 116.783 177.749C119.746 176.038 122.81 174.27 125.947 173.086C129.238 171.844 132.807 171.109 136.259 170.398C141.992 169.216 147.408 168.099 151.421 164.881C155.48 161.625 157.747 156.568 160.154 151.215C161.591 148.016 163.075 144.708 164.988 141.804C166.869 138.946 169.296 136.306 171.643 133.753C175.634 129.412 179.405 125.31 180.801 120.208C182.127 115.357 181.013 109.989 179.835 104.306C179.107 100.798 178.355 97.1719 178.184 93.5656C178.015 89.9617 178.425 86.2777 178.82 82.7162C179.461 76.9499 180.066 71.504 178.292 66.7949C176.425 61.8495 172.285 58.1215 167.91 54.174C165.332 51.8515 162.667 49.4488 160.525 46.7771C158.349 44.0646 156.56 40.9084 154.83 37.8562C151.937 32.7539 149.206 27.9343 144.861 25.0744C140.562 22.2449 135.064 21.6402 129.245 21.0003C125.744 20.6159 122.124 20.2179 118.733 19.2913C115.5 18.4063 112.285 16.9327 109.176 15.508C104.283 13.2623 99.2245 10.9438 94.0888 10.9438ZM110.056 133.768C108.003 133.768 105.902 133.539 103.831 133.312C101.84 133.095 99.7818 132.87 97.8671 132.87C95.9523 132.87 93.8918 133.095 91.9002 133.312C87.0561 133.841 82.0501 134.388 77.8779 131.977C73.5791 129.489 71.5603 124.838 69.6071 120.34C68.7926 118.465 68.0238 116.693 67.1117 115.116C66.2428 113.615 65.1161 112.119 63.9245 110.534C61.1016 106.783 57.9015 102.531 57.9015 97.3633C57.9015 92.1953 61.1048 87.9411 63.9245 84.189C65.1169 82.6049 66.2428 81.1088 67.1125 79.6072C68.0238 78.0311 68.7942 76.2588 69.6071 74.3839C71.5603 69.8862 73.5791 65.2348 77.8771 62.7481C82.047 60.3367 87.0561 60.8837 91.9002 61.4122C93.8918 61.6293 95.9515 61.8543 97.8671 61.8543C99.7826 61.8543 101.84 61.6301 103.831 61.4122C108.673 60.8829 113.681 60.3367 117.852 62.7481C122.152 65.2348 124.171 69.8862 126.124 74.3847C126.938 76.2596 127.706 78.0311 128.618 79.608C129.487 81.108 130.613 82.6041 131.805 84.1882C134.629 87.9403 137.829 92.1969 137.829 97.3633C137.829 102.53 134.625 106.784 131.805 110.535C130.613 112.119 129.487 113.616 128.618 115.117C127.706 116.693 126.936 118.465 126.124 120.339C124.171 124.837 122.152 129.489 117.853 131.976C115.467 133.357 112.804 133.768 110.056 133.768ZM85.6674 64.51C83.434 64.51 81.3855 64.8247 79.6549 65.8258C76.3715 67.7255 74.6698 71.6474 72.8672 75.7999C72.0488 77.6843 71.2023 79.6336 70.1877 81.3875C69.2107 83.0758 67.967 84.7288 66.7642 86.3273C64.1543 89.7951 61.4555 93.3822 61.4555 97.3633C61.4555 101.344 64.1535 104.928 66.7633 108.396C67.9646 109.998 69.2106 111.648 70.1868 113.336C71.2023 115.09 72.0488 117.039 72.8672 118.924C74.6698 123.077 76.3724 126.999 79.6557 128.899C82.8165 130.727 87.0409 130.265 91.5126 129.78C93.5988 129.553 95.7569 129.317 97.8655 129.317C99.974 129.317 102.13 129.553 104.215 129.78C108.686 130.268 112.909 130.729 116.071 128.899C119.355 126.999 121.058 123.076 122.861 118.924C123.679 117.039 124.526 115.09 125.539 113.337C126.516 111.65 127.76 109.997 128.962 108.398C131.572 104.93 134.271 101.344 134.271 97.3641C134.271 93.3846 131.572 89.7959 128.961 86.3265C127.76 84.7248 126.516 83.0758 125.539 81.3891C124.525 79.6352 123.678 77.6859 122.86 75.8015C121.057 71.649 119.355 67.7263 116.07 65.8266C112.909 63.9982 108.686 64.4595 104.214 64.9457C102.132 65.1739 99.97 65.4094 97.8647 65.4094C95.7593 65.4094 93.5979 65.1739 91.5118 64.9457C89.4905 64.7254 87.5165 64.51 85.6674 64.51Z" fill="#E23BA2"/>
<path d="M110.056 133.767C108.003 133.767 105.902 133.538 103.831 133.312C101.84 133.095 99.7814 132.87 97.8667 132.87C95.9519 132.87 93.8922 133.095 91.9006 133.312C87.0572 133.842 82.0505 134.388 77.8783 131.976C73.5787 129.488 71.5598 124.837 69.6066 120.338C68.793 118.464 68.0234 116.693 67.1121 115.116C66.2432 113.615 65.1173 112.119 63.9248 110.534C61.102 106.783 57.9019 102.531 57.9019 97.3631C57.9019 92.1951 61.1051 87.9408 63.9256 84.1888C65.1172 82.6046 66.2432 81.1086 67.1129 79.607C68.0242 78.0309 68.7946 76.2602 69.6066 74.3845C71.5598 69.8868 73.5787 65.2354 77.8775 62.7479C82.0473 60.3365 87.0548 60.8835 91.8998 61.412C93.8922 61.6299 95.9511 61.8549 97.8667 61.8549C99.7822 61.8549 101.84 61.6299 103.832 61.412C108.675 60.8835 113.682 60.3365 117.853 62.7471C122.151 65.2354 124.171 69.886 126.124 74.3837C126.938 76.2593 127.708 78.0309 128.619 79.6078C129.488 81.1086 130.615 82.6046 131.806 84.1888C134.629 87.9408 137.829 92.1975 137.829 97.3631C137.829 102.529 134.626 106.783 131.806 110.534C130.615 112.119 129.484 113.615 128.619 115.117C127.708 116.693 126.937 118.464 126.124 120.339C124.171 124.837 122.151 129.488 117.853 131.976C115.467 133.357 112.804 133.767 110.056 133.767ZM85.6678 64.5098C83.4351 64.5098 81.3866 64.8253 79.6569 65.8256C76.3735 67.7261 74.6702 71.6479 72.8676 75.8005C72.0491 77.6857 71.2026 79.6342 70.1888 81.3873C69.2118 83.0748 67.9681 84.7277 66.7653 86.3263C64.1555 89.7949 61.4567 93.3812 61.4567 97.3631C61.4567 101.345 64.1547 104.929 66.7653 108.397C67.9665 109.998 69.2118 111.648 70.188 113.336C71.2027 115.09 72.0491 117.038 72.8667 118.922C74.6702 123.076 76.3727 126.998 79.6577 128.899C82.8185 130.727 87.0428 130.266 91.5146 129.78C93.5967 129.552 95.7589 129.317 97.8658 129.317C99.9728 129.317 102.13 129.552 104.216 129.78C108.687 130.268 112.912 130.729 116.072 128.899C119.356 126.998 121.059 123.076 122.862 118.923C123.68 117.039 124.527 115.09 125.541 113.336C126.518 111.648 127.762 109.995 128.965 108.397C131.575 104.928 134.273 101.343 134.273 97.3631C134.273 93.3836 131.574 89.7949 128.964 86.3271C127.763 84.7253 126.518 83.0756 125.541 81.3881C124.527 79.6342 123.68 77.6849 122.862 75.7997C121.059 71.6479 119.356 67.7261 116.072 65.8248C112.912 63.9972 108.688 64.4585 104.22 64.9439C102.133 65.1721 99.9752 65.4076 97.8683 65.4076C95.7613 65.4076 93.6023 65.1721 91.5154 64.9439C89.4901 64.726 87.5161 64.5098 85.6678 64.5098Z" fill="#E23BA2"/>
<path d="M168.502 125.793C165.768 125.771 164.385 126.049 161.87 127.124C161.229 127.4 160.465 127.172 160.146 126.564C159.826 125.955 160.146 125.148 160.89 124.831C163.783 123.595 165.374 123.274 168.522 123.299C169.326 123.305 169.933 123.923 169.875 124.61C169.817 125.297 169.201 125.8 168.502 125.795" fill="white"/>
<path d="M98.784 144.868C96.05 144.847 94.667 145.124 92.1532 146.2C91.5126 146.476 90.747 146.248 90.4283 145.639C90.1095 145.031 90.4282 144.225 91.1714 143.908C94.0648 142.671 95.656 142.35 98.8032 142.376C99.6088 142.382 100.216 143 100.157 143.686C100.099 144.372 99.4839 144.876 98.784 144.871" fill="white"/>
<path d="M60.7216 130.261C61.6257 132.842 62.3544 134.05 64.2163 136.052C64.6928 136.564 64.7368 137.359 64.2699 137.865C63.8031 138.371 62.9374 138.345 62.3888 137.751C60.2467 135.446 59.4074 134.056 58.3663 131.086C58.1005 130.326 58.4761 129.547 59.1423 129.369C59.8086 129.191 60.4901 129.601 60.7216 130.261Z" fill="white"/>
<path d="M138.133 62.2506C140.866 62.2049 142.243 61.8934 144.73 60.7561C145.365 60.4646 146.133 60.676 146.467 61.2759C146.8 61.8757 146.499 62.6902 145.767 63.0258C142.905 64.3336 141.321 64.6932 138.176 64.7461C137.371 64.7597 136.749 64.1566 136.789 63.4647C136.83 62.7727 137.43 62.2586 138.133 62.2465" fill="white"/>
<path d="M123.947 24.789C125.153 27.2429 126.02 28.3553 128.111 30.1212C128.645 30.5729 128.784 31.3561 128.381 31.9143C127.978 32.4725 127.114 32.5462 126.499 32.0265C124.096 29.9938 123.098 28.7133 121.711 25.8894C121.355 25.1686 121.636 24.3469 122.275 24.0914C122.914 23.836 123.642 24.1611 123.95 24.789" fill="#FFE266"/>
<path d="M40.4473 73.5763C38.4957 75.5112 37.3033 76.2656 34.7303 77.1954C34.4066 77.3108 34.1392 77.5456 33.983 77.8517C33.8268 78.1579 33.7936 78.5122 33.8902 78.842C34.0968 79.5396 34.9 79.9376 35.6576 79.6645C38.6206 78.5938 39.9925 77.7264 42.238 75.5C42.8129 74.9306 42.8089 74.0248 42.2788 73.533C42.0273 73.3014 41.6957 73.1766 41.354 73.185C41.0122 73.1933 40.6871 73.3342 40.4473 73.5779" fill="#FFE266"/>
<path d="M118.255 162.14C120.987 162.06 122.36 161.732 124.832 160.566C125.465 160.267 126.235 160.466 126.576 161.065C126.917 161.664 126.625 162.479 125.897 162.823C123.051 164.166 121.472 164.543 118.327 164.634C117.526 164.657 116.893 164.062 116.926 163.374C116.959 162.686 117.555 162.16 118.255 162.14Z" fill="#FFE266"/>
<path d="M70.4692 40.5979C71.6744 43.0517 72.5417 44.1641 74.6295 45.9301C75.1636 46.3826 75.3021 47.165 74.8993 47.724C74.4965 48.283 73.6324 48.3559 73.0174 47.8353C70.615 45.8027 69.6164 44.5229 68.2294 41.6991C67.8738 40.9783 68.1548 40.1566 68.7947 39.9011C69.4346 39.6456 70.1609 39.97 70.4692 40.5979Z" fill="#FFE266"/>
<path d="M159.359 98.6334C161.749 97.3071 162.817 96.3837 164.476 94.211C164.9 93.6504 165.677 93.4766 166.253 93.8514C166.829 94.2262 166.947 95.0855 166.459 95.7246C164.549 98.2265 163.32 99.2885 160.569 100.815C159.866 101.206 159.033 100.967 158.746 100.341C158.459 99.7146 158.746 98.9738 159.359 98.6334Z" fill="#C6225D"/>
<path d="M44.2901 125.362C44.7922 122.685 44.7986 121.272 44.3237 118.588C44.202 117.902 44.5311 117.2 45.1093 117.01C45.6875 116.82 46.3194 117.3 46.4587 118.091C47.0057 121.18 46.9984 122.805 46.4211 125.887C46.2729 126.675 45.6379 127.146 45.0597 126.949C44.4815 126.752 44.1611 126.047 44.2893 125.362" fill="#C6225D"/>
<path d="M119.685 54.5017C117.166 53.4373 115.782 53.1658 113.048 53.1987C112.349 53.2067 111.731 52.7061 111.67 52.0198C111.609 51.3334 112.213 50.7136 113.018 50.7031C116.164 50.6655 117.757 50.9778 120.656 52.2032C121.397 52.5163 121.723 53.3196 121.407 53.9323C121.09 54.5449 120.329 54.7748 119.685 54.5017Z" fill="#C6225D"/>
<path d="M99.4307 169.121C101.193 167.03 101.863 165.789 102.64 163.167C102.84 162.497 103.501 162.054 104.175 162.199C104.848 162.344 105.262 163.105 105.032 163.881C104.137 166.898 103.367 168.328 101.338 170.733C100.819 171.349 99.9561 171.421 99.4652 170.939C98.9743 170.456 98.9799 169.657 99.4307 169.125" fill="#C6225D"/>
<path d="M51.2016 42.676C48.8336 44.0415 47.7813 44.9817 46.1564 47.1825C45.7416 47.7431 44.9696 47.9353 44.3858 47.5701C43.802 47.2049 43.6715 46.3488 44.1456 45.7001C46.0147 43.1677 47.2248 42.0866 49.9507 40.5144C50.6483 40.114 51.4843 40.3375 51.7814 40.9589C52.0785 41.5804 51.8038 42.326 51.1976 42.676" fill="#C6225D"/>
<path d="M104.494 30.575C102.104 31.9013 101.036 32.8247 99.3768 34.9974C98.9524 35.558 98.1756 35.7318 97.599 35.357C97.0224 34.9822 96.9055 34.1229 97.3932 33.483C99.3031 30.9819 100.532 29.9199 103.282 28.3934C103.986 28.0018 104.819 28.2413 105.107 28.8676C105.394 29.4938 105.107 30.2346 104.494 30.575Z" fill="#C6225D"/>
<path d="M165.811 71.5309C166.116 68.8144 165.982 67.4097 165.171 64.798C164.963 64.1293 165.267 63.3941 165.908 63.1402C166.549 62.8863 167.315 63.29 167.554 64.0588C168.485 67.0645 168.639 68.6806 168.29 71.808C168.2 72.6089 167.523 73.1487 166.848 73.0198C166.174 72.8908 165.734 72.2261 165.812 71.5309" fill="#78D9FF"/>
<path d="M47.9541 93.8934C44.8069 93.3168 43.3478 92.7297 40.9574 91.0823C40.3455 90.6603 39.3669 90.7252 38.7207 91.2786C38.0744 91.832 38.0728 92.7201 38.7767 93.2095C41.5284 95.1059 43.2077 95.7811 46.8298 96.445C47.7563 96.6148 48.7373 96.1166 48.9856 95.4038C49.2338 94.6911 48.7597 94.0424 47.9541 93.8942" fill="#78D9FF"/>
<path d="M142.872 46.5246C140.265 47.3447 139.033 48.0343 136.972 49.8298C136.444 50.2895 135.649 50.3104 135.158 49.8242C134.667 49.3381 134.726 48.4772 135.333 47.9478C137.706 45.8815 139.123 45.0879 142.124 44.1445C142.892 43.9042 143.66 44.3046 143.816 44.9758C143.972 45.6469 143.54 46.3148 142.872 46.5246Z" fill="#78D9FF"/>
<path d="M72.664 157.64C75.3067 156.941 76.5688 156.307 78.7102 154.608C79.258 154.173 80.0532 154.191 80.5217 154.696C80.9901 155.201 80.8924 156.062 80.2614 156.563C77.7957 158.519 76.3454 159.247 73.3031 160.052C72.5247 160.259 71.7767 159.822 71.6518 159.145C71.5269 158.467 71.9881 157.819 72.664 157.64Z" fill="#78D9FF"/>
<path d="M96.6938 20.0913C93.9903 20.503 92.669 20.9963 90.357 22.4563C89.7652 22.8295 88.9772 22.727 88.5656 22.1744C88.1539 21.6218 88.3437 20.7761 89.0244 20.3468C91.6855 18.665 93.2063 18.0988 96.3175 17.6239C97.1135 17.5021 97.8102 18.0163 97.8622 18.7034C97.9143 19.3906 97.3818 19.9848 96.6938 20.0905" fill="#78D9FF"/>
<path d="M131.865 144.872C129.568 146.355 128.564 147.346 127.053 149.625C126.666 150.209 125.905 150.437 125.303 150.105C124.702 149.774 124.529 148.921 124.974 148.249C126.714 145.627 127.868 144.485 130.512 142.779C131.189 142.343 132.034 142.526 132.363 143.131C132.692 143.737 132.453 144.493 131.865 144.876" fill="#78D9FF"/>
<path d="M51.6107 129.13C49.7289 130.432 47.7207 131.54 45.6165 132.44C43.5144 133.3 41.3073 133.953 38.9938 134.037C37.8091 134.095 36.624 133.932 35.499 133.556L35.0658 133.396C34.9232 133.338 34.7831 133.266 34.6413 133.2C33.7494 132.78 32.9609 132.169 32.3318 131.41C31.4437 130.361 30.9007 128.983 30.6501 127.611C30.3994 126.239 30.425 124.842 30.5932 123.516C30.6437 123.186 30.6885 122.859 30.7446 122.526C30.8174 122.186 30.8783 121.843 30.9784 121.513C31.1565 120.854 31.3879 120.211 31.6703 119.591C32.2121 118.408 32.9064 117.301 33.7356 116.298C35.3372 114.356 37.1791 112.808 39.0915 111.481C41.003 110.142 42.9979 109.018 45.0111 107.98C47.0324 106.958 49.0795 106.03 51.1526 105.196C51.1852 105.183 51.22 105.178 51.2547 105.181C51.2894 105.183 51.3232 105.193 51.3537 105.21C51.3841 105.227 51.4106 105.25 51.4312 105.278C51.4517 105.306 51.466 105.339 51.4729 105.373C51.4929 105.437 51.4915 105.506 51.4688 105.57C51.4462 105.633 51.4035 105.688 51.3472 105.725C49.4036 106.896 47.4512 108.028 45.5453 109.241C43.6345 110.442 41.7614 111.703 39.9804 113.08C38.2186 114.475 36.5193 115.982 35.1555 117.757C34.4728 118.632 33.8949 119.584 33.4337 120.593C33.2114 121.094 33.0303 121.612 32.8924 122.143C32.8123 122.406 32.7722 122.675 32.7154 122.944L32.5929 123.797C32.4615 124.935 32.4327 126.073 32.6217 127.121C32.8107 128.169 33.1686 129.134 33.7772 129.875C34.3578 130.644 35.1731 131.188 36.0812 131.538C36.9893 131.888 37.9936 132.046 39.0154 132.08C40.0372 132.115 41.0847 132 42.1266 131.82C43.1844 131.64 44.2281 131.385 45.2498 131.057C47.3263 130.432 49.3596 129.546 51.3856 128.608C51.4175 128.594 51.4519 128.588 51.4866 128.588C51.5214 128.589 51.5555 128.598 51.5867 128.613C51.6179 128.628 51.6454 128.65 51.6674 128.677C51.6894 128.704 51.7052 128.735 51.7139 128.768C51.7354 128.832 51.7365 128.901 51.7169 128.965C51.6974 129.029 51.6583 129.085 51.605 129.126" fill="#FFFEFD"/>
<path d="M87.3035 139.248C84.0305 140.571 80.7912 141.988 77.6472 143.544C76.0696 144.31 74.5213 145.124 73.0025 145.987C71.4809 146.838 70.0082 147.756 68.5915 148.733C67.1785 149.684 65.843 150.746 64.5979 151.908C63.3798 153.058 62.2883 154.317 61.5147 155.694C61.421 155.867 61.3113 156.035 61.2304 156.211L60.9998 156.742C60.8204 157.092 60.7491 157.463 60.6258 157.82C60.5561 157.999 60.5457 158.186 60.5097 158.368L60.4104 158.918L60.3751 159.502C60.3559 159.695 60.3505 159.889 60.3592 160.083L60.38 160.656C60.38 160.849 60.428 161.029 60.4472 161.216C60.48 161.594 60.5946 161.937 60.6819 162.297C60.7275 162.474 60.8124 162.632 60.8733 162.801L60.9702 163.053C61.0046 163.133 61.0559 163.208 61.0967 163.286C61.1856 163.439 61.2633 163.599 61.3554 163.748L61.6701 164.172C62.1233 164.706 62.6359 165.203 63.2813 165.55L63.5112 165.695L63.7642 165.809L64.2663 166.044L64.8045 166.223C64.9828 166.292 65.1666 166.345 65.3538 166.383C66.849 166.753 68.485 166.792 70.1187 166.618C73.402 166.265 76.6686 165.137 79.7846 163.719C80.1794 163.551 80.5629 163.357 80.9481 163.164L82.1045 162.59C82.8597 162.17 83.6261 161.777 84.3716 161.335C85.866 160.463 87.3347 159.543 88.7713 158.559C91.6478 156.585 94.4172 154.459 97.0678 152.191L101.102 148.719C101.44 148.421 101.789 148.135 102.143 147.856L103.199 147.01C103.895 146.437 105.375 145.328 106.099 144.793C109.001 142.642 111.3 141.243 114.508 139.538C117.716 137.833 121.075 136.377 124.604 135.374L125.926 135.001L127.267 134.687L127.937 134.533L128.615 134.407C129.068 134.327 129.518 134.232 129.977 134.167C131.805 133.884 133.652 133.742 135.502 133.741C137.371 133.733 139.235 133.917 141.066 134.292C142.908 134.673 144.728 135.258 146.436 136.171L147.076 136.521C147.287 136.641 147.489 136.783 147.695 136.915C148.112 137.167 148.495 137.488 148.889 137.789C149.645 138.441 150.361 139.174 150.931 140.064C151.487 140.957 151.875 141.944 152.075 142.977C152.264 143.987 152.287 145.022 152.143 146.04C151.849 148.042 151.022 149.824 150.031 151.415C149.529 152.201 148.974 152.952 148.371 153.664C147.787 154.371 147.167 155.049 146.514 155.694C143.908 158.252 140.958 160.354 137.845 162.108C137.771 162.151 137.684 162.164 137.601 162.145C137.519 162.126 137.446 162.077 137.398 162.006C137.351 161.936 137.332 161.85 137.345 161.766C137.358 161.682 137.402 161.607 137.469 161.554C140.224 159.342 142.873 157.018 145.115 154.394C146.241 153.091 147.259 151.71 148.065 150.251C148.872 148.791 149.476 147.254 149.628 145.727C149.715 144.984 149.681 144.231 149.526 143.499C149.369 142.791 149.086 142.117 148.689 141.509C148.255 140.898 147.74 140.347 147.16 139.872C146.843 139.641 146.547 139.392 146.199 139.189C146.03 139.086 145.869 138.97 145.693 138.874L145.161 138.591C143.731 137.846 142.139 137.347 140.507 137.031C138.856 136.714 137.178 136.569 135.498 136.597C133.801 136.62 132.108 136.771 130.434 137.049C130.013 137.115 129.596 137.209 129.177 137.289L128.55 137.413L127.927 137.564L126.682 137.871L125.45 138.234L124.834 138.416L124.224 138.626L123.007 139.045L121.806 139.514C121.405 139.674 121.005 139.818 120.611 140.001C119.825 140.355 119.026 140.675 118.257 141.069L117.095 141.638C116.706 141.826 116.331 142.044 115.949 142.246C112.9 143.897 109.979 145.774 107.209 147.86C106.514 148.382 105.814 148.901 105.145 149.456L104.129 150.276C103.788 150.547 103.454 150.825 103.127 151.114L99.1211 154.599C96.3742 156.93 93.5042 159.113 90.5235 161.138C89.03 162.153 87.49 163.106 85.9188 164.014C85.1356 164.472 84.3236 164.886 83.5268 165.322L82.2999 165.925C81.8907 166.127 81.4831 166.33 81.0611 166.509L79.8046 167.062C79.3834 167.242 78.9509 167.4 78.5233 167.569L77.8826 167.819C77.6672 167.899 77.4462 167.968 77.2284 168.043C76.7895 168.187 76.3563 168.343 75.9134 168.477C74.1214 169.026 72.2797 169.397 70.415 169.586C68.5283 169.761 66.5671 169.713 64.6219 169.209C64.3755 169.153 64.1333 169.08 63.8971 168.99L63.1764 168.736L62.4765 168.405L62.1281 168.235L61.7942 168.028C60.8853 167.513 60.0892 166.764 59.4214 165.936L58.9545 165.284C58.816 165.057 58.6958 164.818 58.5685 164.585C58.5076 164.467 58.4388 164.352 58.3875 164.23L58.2434 163.861C58.1545 163.615 58.0424 163.371 57.9775 163.12C57.8494 162.615 57.7068 162.112 57.662 161.598C57.6356 161.345 57.5819 161.089 57.5819 160.838L57.5635 160.082C57.557 159.833 57.5666 159.584 57.5923 159.336L57.6484 158.594L57.7869 157.835C57.8398 157.583 57.867 157.325 57.9583 157.087C58.1185 156.606 58.2434 156.106 58.4692 155.661L58.7783 154.978C58.8856 154.754 59.0186 154.549 59.1395 154.333C60.1293 152.63 61.4114 151.2 62.7872 149.943C64.1645 148.718 65.6373 147.606 67.1917 146.615C68.7256 145.648 70.3085 144.76 71.9341 143.956C73.5502 143.155 75.2039 142.445 76.8672 141.776C80.2122 140.477 83.6133 139.373 87.1128 138.6C87.1968 138.576 87.2865 138.587 87.3629 138.629C87.4393 138.671 87.4964 138.741 87.5222 138.824C87.548 138.907 87.5405 138.997 87.5011 139.075C87.4618 139.152 87.3937 139.212 87.3114 139.24L87.3035 139.248Z" fill="#FFFEFD"/>
<path d="M44.4302 142.967C45.6314 145.42 46.5027 146.533 48.5904 148.3C49.1246 148.751 49.2631 149.534 48.8603 150.093C48.4575 150.651 47.5934 150.725 46.9784 150.204C44.5759 148.171 43.5773 146.892 42.1903 144.068C41.8347 143.347 42.1158 142.525 42.7557 142.27C43.3955 142.014 44.1211 142.339 44.4302 142.967Z" fill="#FFE266"/>
<path d="M146.422 128.099C146.726 125.382 146.592 123.978 145.781 121.366C145.573 120.698 145.878 119.963 146.518 119.709C147.159 119.455 147.926 119.858 148.164 120.627C149.096 123.633 149.249 125.249 148.9 128.376C148.81 129.177 148.133 129.716 147.459 129.587C146.784 129.458 146.344 128.795 146.418 128.099" fill="#78D9FF"/>
<path d="M152.077 87.479C150.734 89.8599 150.299 91.199 149.989 93.8995C149.909 94.5899 149.349 95.1505 148.678 95.1457C148.007 95.1409 147.482 94.4834 147.573 93.6881C147.929 90.5807 148.43 89.0431 149.976 86.2993C150.371 85.5977 151.187 85.355 151.738 85.7258C152.288 86.0967 152.418 86.8695 152.074 87.479" fill="#FFE266"/>
<path d="M53.7023 74.796C53.3668 77.5101 53.4845 78.9157 54.2629 81.5361C54.4623 82.208 54.1492 82.9384 53.5062 83.1851C52.8631 83.4318 52.1007 83.0201 51.8709 82.2481C50.974 79.2312 50.8394 77.6134 51.2246 74.49C51.3239 73.6892 52.0062 73.159 52.6821 73.2959C53.358 73.4329 53.7864 74.1016 53.7016 74.796" fill="white"/>
</svg>
