<svg width="20" height="20" viewBox="0 0 20 20" fill="none" xmlns="http://www.w3.org/2000/svg">
<g clip-path="url(#clip0_156_6027)">
<path d="M10 20C15.5229 20 20 15.5229 20 10C20 4.47714 15.5229 0 10 0C4.47714 0 0 4.47714 0 10C0 15.5229 4.47714 20 10 20Z" fill="#616060"/>
<path d="M13.4158 5.5813H6.58663C5.33099 5.5813 4.53513 6.93576 5.16684 8.03073L9.38156 15.336C9.65659 15.813 10.3458 15.813 10.6209 15.336L14.8365 8.03073C15.4673 6.93751 14.6715 5.5813 13.4167 5.5813H13.4158ZM9.37813 13.1453L8.46024 11.3688L6.24545 7.40762C6.09934 7.15408 6.27981 6.82919 6.58577 6.82919H9.37727V13.1461L9.37813 13.1453ZM13.7553 7.40676L11.5413 11.3697L10.6235 13.1453V6.82833H13.415C13.7209 6.82833 13.9014 7.15323 13.7553 7.40676Z" fill="#9E9E9E"/>
</g>
<defs>
<clipPath id="clip0_156_6027">
<rect width="20" height="20" fill="white"/>
</clipPath>
</defs>
</svg>
