<svg width="41" height="38" viewBox="0 0 41 38" fill="none" xmlns="http://www.w3.org/2000/svg">
<path d="M1 17.5825V35.8398C1 36.3921 1.44772 36.8398 2 36.8398H38.9564C39.5086 36.8398 39.9564 36.3921 39.9564 35.8398V11.3495C39.9564 10.7972 39.5086 10.3495 38.9564 10.3495H26.9321C26.3798 10.3495 25.9321 9.90181 25.9321 9.34952V2C25.9321 1.44772 25.4844 1 24.9321 1H13.6869C13.1346 1 12.6869 1.44771 12.6869 2V15.5825C12.6869 16.1348 12.2392 16.5825 11.6869 16.5825H2C1.44772 16.5825 1 17.0303 1 17.5825Z" stroke="white" stroke-width="2"/>
<path d="M12.687 15.8033V36.0606M25.9322 9.57031V35.2815" stroke="white" stroke-width="2"/>
</svg>
