<svg width="23" height="23" viewBox="0 0 23 23" fill="none" xmlns="http://www.w3.org/2000/svg">
<g clip-path="url(#clip0_106_24234)">
<path d="M11.5 23C17.8513 23 23 17.8513 23 11.5C23 5.14871 17.8513 0 11.5 0C5.14871 0 0 5.14871 0 11.5C0 17.8513 5.14871 23 11.5 23Z" fill="#0098EA"/>
<path d="M15.4286 6.41846H7.57502C6.13103 6.41846 5.21579 7.97609 5.94226 9.2353L10.7892 17.6364C11.1055 18.1849 11.8981 18.1849 12.2144 17.6364L17.0623 9.2353C17.7878 7.9781 16.8726 6.41846 15.4296 6.41846H15.4286ZM10.7852 15.117L9.72966 13.0741L7.18266 8.51873C7.01464 8.22716 7.22217 7.85353 7.57403 7.85353H10.7843V15.118L10.7852 15.117ZM15.819 8.51774L13.2729 13.0751L12.2174 15.117V7.85255H15.4276C15.7794 7.85255 15.987 8.22617 15.819 8.51774Z" fill="white"/>
</g>
<defs>
<clipPath id="clip0_106_24234">
<rect width="23" height="23" fill="white"/>
</clipPath>
</defs>
</svg>
