<svg width="19" height="19" viewBox="0 0 19 19" fill="none" xmlns="http://www.w3.org/2000/svg">
<g clip-path="url(#clip0_52_19637)">
<path d="M9.19563 18.7038C14.2656 18.7038 18.3756 14.5937 18.3756 9.52375C18.3756 4.45377 14.2656 0.34375 9.19563 0.34375C4.12564 0.34375 0.015625 4.45377 0.015625 9.52375C0.015625 14.5937 4.12564 18.7038 9.19563 18.7038Z" fill="#0098EA"/>
<path d="M12.3296 5.4668H6.06044C4.90776 5.4668 4.17716 6.71019 4.75708 7.71537L8.62619 14.4216C8.87867 14.8595 9.5114 14.8595 9.76388 14.4216L13.6338 7.71537C14.2129 6.7118 13.4823 5.4668 12.3304 5.4668H12.3296ZM8.62304 12.4105L7.78041 10.7797L5.74724 7.14336C5.61311 6.91061 5.77878 6.61236 6.05965 6.61236H8.62225V12.4113L8.62304 12.4105ZM12.6413 7.14257L10.6089 10.7805L9.76624 12.4105V6.61158H12.3288C12.6097 6.61158 12.7754 6.90983 12.6413 7.14257Z" fill="white"/>
</g>
<defs>
<clipPath id="clip0_52_19637">
<rect width="18.36" height="18.36" fill="white" transform="translate(0.015625 0.34375)"/>
</clipPath>
</defs>
</svg>
