<svg width="13" height="13" viewBox="0 0 13 13" fill="none" xmlns="http://www.w3.org/2000/svg">
<g clip-path="url(#clip0_262_10321)">
<path d="M6.5 13C10.0899 13 13 10.0899 13 6.5C13 2.91014 10.0899 0 6.5 0C2.91014 0 0 2.91014 0 6.5C0 10.0899 2.91014 13 6.5 13Z" fill="#0098EA"/>
<path d="M8.72067 3.62781H4.2817C3.46553 3.62781 2.94823 4.50821 3.35884 5.21994L6.0984 9.96837C6.27718 10.2784 6.72519 10.2784 6.90396 9.96837L9.64409 5.21994C10.0541 4.50935 9.53683 3.62781 8.72122 3.62781H8.72067ZM6.09618 8.54438L5.49955 7.38968L4.05993 4.81492C3.96496 4.65012 4.08227 4.43894 4.28114 4.43894H6.09562V8.54494L6.09618 8.54438ZM8.94132 4.81436L7.50226 7.39024L6.90563 8.54438V4.43838H8.72011C8.91899 4.43838 9.03629 4.64956 8.94132 4.81436Z" fill="white"/>
</g>
<defs>
<clipPath id="clip0_262_10321">
<rect width="13" height="13" fill="white"/>
</clipPath>
</defs>
</svg>
