<svg width="42" height="16" viewBox="0 0 42 16" fill="none" xmlns="http://www.w3.org/2000/svg">
<path d="M0.710227 2.99006V0.454545H12.6562V2.99006H8.20312V15H5.16335V2.99006H0.710227ZM27.326 7.72727C27.326 9.31345 27.0253 10.6629 26.424 11.7756C25.8274 12.8883 25.013 13.7382 23.9808 14.3253C22.9534 14.9077 21.7981 15.1989 20.5149 15.1989C19.2223 15.1989 18.0623 14.9053 17.0348 14.3182C16.0073 13.7311 15.1953 12.8812 14.5987 11.7685C14.0021 10.6558 13.7038 9.30871 13.7038 7.72727C13.7038 6.1411 14.0021 4.79167 14.5987 3.67898C15.1953 2.56629 16.0073 1.71875 17.0348 1.13636C18.0623 0.549242 19.2223 0.255681 20.5149 0.255681C21.7981 0.255681 22.9534 0.549242 23.9808 1.13636C25.013 1.71875 25.8274 2.56629 26.424 3.67898C27.0253 4.79167 27.326 6.1411 27.326 7.72727ZM24.2081 7.72727C24.2081 6.69981 24.0542 5.83333 23.7464 5.12784C23.4434 4.42235 23.0149 3.88731 22.4609 3.52273C21.907 3.15814 21.2583 2.97585 20.5149 2.97585C19.7715 2.97585 19.1229 3.15814 18.5689 3.52273C18.0149 3.88731 17.584 4.42235 17.2763 5.12784C16.9732 5.83333 16.8217 6.69981 16.8217 7.72727C16.8217 8.75473 16.9732 9.62121 17.2763 10.3267C17.584 11.0322 18.0149 11.5672 18.5689 11.9318C19.1229 12.2964 19.7715 12.4787 20.5149 12.4787C21.2583 12.4787 21.907 12.2964 22.4609 11.9318C23.0149 11.5672 23.4434 11.0322 23.7464 10.3267C24.0542 9.62121 24.2081 8.75473 24.2081 7.72727ZM41.7702 0.454545V15H39.114L32.7859 5.84517H32.6793V15H29.604V0.454545H32.3029L38.5813 9.60227H38.7092V0.454545H41.7702Z" fill="white"/>
</svg>
