<svg width="10" height="8" viewBox="0 0 10 8" fill="none" xmlns="http://www.w3.org/2000/svg">
<path fill-rule="evenodd" clip-rule="evenodd" d="M2.05605 0C0.920527 0 0 0.920526 0 2.05605V5.63857C0 6.7741 0.920527 7.69462 2.05605 7.69462H6.91582C7.77844 7.69462 8.51698 7.1634 8.82215 6.41024H6.66658C5.74612 6.41024 4.99994 5.66406 4.99994 4.74359V3.07695C4.99994 2.15649 5.74612 1.4103 6.66658 1.4103H8.86842C8.59765 0.591119 7.82576 0 6.91581 0H2.05605Z" fill="#5E5E5E"/>
<path fill-rule="evenodd" clip-rule="evenodd" d="M6.82246 2.0249C6.16867 2.0249 5.63867 2.5549 5.63867 3.20869V4.51709C5.63867 5.17088 6.16867 5.70088 6.82246 5.70088H8.81621C9.47 5.70088 10 5.17088 10 4.51709V3.20869C10 2.5549 9.47 2.0249 8.81621 2.0249H6.82246ZM7.14918 4.51713C7.51909 4.51713 7.81896 4.21726 7.81896 3.84735C7.81896 3.47745 7.51909 3.17758 7.14918 3.17758C6.77928 3.17758 6.47941 3.47745 6.47941 3.84735C6.47941 4.21726 6.77928 4.51713 7.14918 4.51713Z" fill="#5E5E5E"/>
</svg>
