<svg width="162" height="161" viewBox="0 0 162 161" fill="none" xmlns="http://www.w3.org/2000/svg">
<path d="M161.054 79.1289C160.082 58.4104 151.098 39.3105 135.76 25.3483C120.422 11.3861 100.563 4.23188 79.8494 5.20601C59.1358 6.18013 40.0262 15.1625 26.0628 30.5013C12.0994 45.84 4.94683 65.6924 5.92026 86.4064C6.89369 107.12 15.8769 126.232 31.2142 140.196C45.6285 153.319 64.0337 160.428 83.395 160.428C84.635 160.428 85.8784 160.398 87.1252 160.34C107.844 159.367 126.945 150.384 140.907 135.049C154.869 119.713 162.028 99.848 161.054 79.1289ZM84.3882 102.029C73.7648 102.528 64.735 94.2894 64.2368 83.668C64.1115 81.1402 64.4887 78.6126 65.3465 76.2315C66.2043 73.8504 67.5257 71.663 69.2342 69.7958C70.9335 67.9181 72.9884 66.3962 75.2799 65.3182C77.5714 64.2401 80.0539 63.6274 82.5838 63.5154C82.8921 63.5014 83.1998 63.4944 83.5068 63.4944C88.2999 63.487 92.9212 65.2794 96.4558 68.517C98.3333 70.2165 99.855 72.2715 100.933 74.5631C102.011 76.8547 102.623 79.3373 102.735 81.8673C102.86 84.3968 102.483 86.926 101.624 89.3088C100.766 91.6915 99.444 93.8804 97.7346 95.749C96.0356 97.626 93.9812 99.1473 91.6902 100.225C89.3993 101.302 86.9174 101.915 84.3882 102.026V102.029Z" fill="#7B7975"/>
<path d="M155.124 74.7144C153.13 32.2994 117.134 -0.474977 74.7201 1.51898C32.2937 3.51294 -0.475312 39.5125 1.5153 81.9184C3.51235 124.347 39.5095 157.119 81.923 155.125C124.336 153.131 157.118 117.141 155.124 74.7144ZM78.1324 112.139C59.815 112.139 44.9679 97.2922 44.9679 78.9768C44.9679 60.6613 59.815 45.8139 78.1324 45.8139C96.4499 45.8139 111.292 60.6613 111.292 78.9768C111.292 97.2922 96.4467 112.139 78.1324 112.139Z" fill="#FFB757"/>
<path d="M78.132 45.814C59.8146 45.814 44.9688 60.6608 44.9688 78.9768C44.9688 97.2929 59.8146 112.139 78.132 112.139C96.4495 112.139 111.293 97.2923 111.293 78.9768C111.293 60.6614 96.4469 45.814 78.132 45.814ZM79.2968 99.1716C67.7841 99.7108 58.0185 90.8163 57.4787 79.2925C56.9356 67.792 65.8231 58.0122 77.3461 57.4724C88.8459 56.9325 98.625 65.8277 99.1648 77.3411C99.7047 88.8545 90.8069 98.6317 79.2968 99.1716Z" fill="#E88B46"/>
<path d="M155.124 74.7145C154.859 68.9741 153.953 63.2813 152.425 57.7417C152.778 60.2229 153.017 62.7456 153.141 65.3097C155.134 107.736 122.354 143.727 79.9394 145.72C43.4011 147.433 11.6267 123.36 2.24316 89.5285C7.90061 128.198 42.083 156.995 81.9223 155.126C124.336 153.133 157.117 117.142 155.124 74.7145Z" fill="#E88B46"/>
<path d="M78.2273 156.643C58.7006 156.643 40.1371 149.473 25.5992 136.237C10.1304 122.153 1.07026 102.887 0.0884875 81.986C-0.893288 61.0852 6.32122 41.0696 20.4037 25.6011C34.4861 10.1326 53.7524 1.07181 74.6512 0.088686C95.55 -0.894443 115.572 6.32311 131.042 20.4039C146.512 34.4847 155.571 53.7497 156.553 74.646C157.535 95.5456 150.318 115.575 136.233 131.045C122.148 146.514 102.886 155.571 81.9907 156.553C80.7332 156.613 79.4787 156.643 78.2273 156.643ZM78.4115 2.85961C77.2055 2.85961 75.9968 2.88796 74.7852 2.94466C54.6498 3.89042 36.0876 12.6194 22.5186 27.5242C8.94957 42.4289 1.99921 61.723 2.94748 81.852C3.89576 101.981 12.6222 120.553 27.5267 134.123C42.4311 147.693 61.7213 154.642 81.8574 153.697C123.421 151.744 155.646 116.339 153.698 74.782C152.752 54.6485 144.022 36.0882 129.119 22.5203C115.11 9.76922 97.2231 2.86219 78.4115 2.86219V2.85961ZM78.2936 100.623C73.9284 100.619 69.6605 99.3332 66.0189 96.9262C62.3773 94.5191 59.5221 91.0961 57.8073 87.0816C56.0925 83.0671 55.5935 78.6376 56.3721 74.3422C57.1507 70.0467 59.1727 66.0742 62.1874 62.9171C65.2022 59.76 69.0771 57.5572 73.3319 56.5816C77.5866 55.606 82.0341 55.9006 86.1231 57.4289C90.212 58.9572 93.7625 61.6519 96.3346 65.1791C98.9066 68.7063 100.387 72.9108 100.592 77.2714C101.168 89.5573 91.6442 100.021 79.363 100.598C79.0061 100.616 78.6496 100.626 78.2936 100.626V100.623ZM78.3426 58.8754C78.0334 58.8754 77.723 58.8825 77.4117 58.8967C72.261 59.1377 67.417 61.4151 63.9453 65.2278C60.4737 69.0405 58.6587 74.0763 58.8997 79.2273C59.1407 84.3784 61.4179 89.2227 65.2304 92.6946C69.0429 96.1665 74.0783 97.9816 79.229 97.7406C89.9358 97.238 98.2383 88.1161 97.7359 77.4047C97.5006 72.4171 95.356 67.7112 91.7461 64.2617C88.1363 60.8122 83.338 58.8836 78.3452 58.8754H78.3426Z" fill="black"/>
<path d="M144.774 75.1992C144.426 67.7903 147.253 59.8126 144.767 53.2302C142.19 46.4063 134.721 42.3102 130.254 36.7374C125.74 31.1111 123.349 22.944 117.324 18.9779C117.051 18.7969 116.774 18.63 116.491 18.4696C110.592 15.1376 102.613 15.9764 95.8954 14.1415C89.1061 12.2835 82.4057 7.0451 74.9953 7.393C68.8541 7.68291 63.5548 11.7443 58.1711 14.5371C57.0849 15.1156 55.9642 15.627 54.8154 16.0685C47.992 18.6455 39.5077 18.4219 33.9359 22.8892C28.3062 27.4041 26.6899 35.7556 22.7209 41.7819C18.7912 47.7457 11.7403 52.5274 9.81415 59.5587C7.9556 66.3485 11.5187 74.0248 11.8666 81.4356C12.2145 88.8464 9.38834 96.8255 11.8737 103.411C14.4505 110.24 21.9163 114.333 26.3832 119.904C30.8979 125.531 33.2917 133.702 39.317 137.665C45.2811 141.595 53.7067 140.581 60.7454 142.504C67.5308 144.362 74.2383 149.6 81.6487 149.253C89.059 148.906 95.2415 143.06 101.829 140.577C108.652 138 117.136 138.221 122.708 133.753C128.335 129.244 129.954 120.883 133.923 114.861C137.848 108.896 144.904 104.115 146.827 97.0793C148.685 90.2928 145.121 82.6133 144.774 75.2025M102.227 91.8809C99.6872 96.2695 98.4806 102.382 94.0916 104.922C89.8321 107.38 83.9943 105.446 78.7298 105.446C73.4653 105.446 67.6197 107.379 63.3641 104.922C58.9757 102.381 57.7653 96.2695 55.2245 91.8809C52.763 87.6249 48.0094 83.5803 48.0094 78.3155C48.0094 73.0507 52.763 69.0015 55.2245 64.7463C57.7653 60.357 58.9757 54.2449 63.3641 51.7053C66.4666 49.9104 70.413 50.4509 74.3646 50.8768C75.8315 51.034 77.3009 51.177 78.7266 51.177C83.9911 51.177 89.8289 49.2443 94.0884 51.7021C94.0987 51.7092 94.1051 51.7124 94.1154 51.7188C98.4838 54.2701 99.6911 60.364 102.224 64.743C104.69 68.9951 109.443 73.0429 109.443 78.3123C109.443 83.5816 104.69 87.6217 102.224 91.8776" fill="#FF61CB"/>
<path d="M78.2948 100.268C72.5187 100.264 66.9768 97.9832 62.8708 93.9204C58.7648 89.8575 56.4256 84.3398 56.3603 78.5636C56.295 72.7874 58.5089 67.2183 62.5221 63.0637C66.5352 58.909 72.0241 56.5037 77.7987 56.3692C83.5733 56.2348 89.1682 58.382 93.3704 62.3453C97.5725 66.3087 100.043 71.7687 100.247 77.5417C100.45 83.3146 98.3706 88.9352 94.4581 93.1848C90.5457 97.4344 85.1159 99.9705 79.3462 100.243C78.9951 100.259 78.6421 100.268 78.2948 100.268ZM78.3438 58.5202C78.0286 58.5202 77.7125 58.5278 77.3955 58.5428C72.2081 58.791 67.3274 61.0739 63.8118 64.8967C60.2962 68.7195 58.4289 73.774 58.6147 78.9644C58.8005 84.1549 61.0245 89.0629 64.8045 92.6244C68.5845 96.186 73.6159 98.114 78.8079 97.9906C83.9998 97.8671 88.9338 95.7021 92.5403 91.9649C96.1468 88.2277 98.135 83.2195 98.074 78.0261C98.0129 72.8328 95.9075 67.8727 92.2141 64.2213C88.5208 60.57 83.5372 58.5216 78.3438 58.5202Z" fill="black"/>
<path d="M117.617 65.0786C120.283 64.1387 123.037 63.4696 125.838 63.0814C128.623 62.7386 131.466 62.6762 134.25 63.3294C135.641 63.6516 137.012 64.1831 138.262 65.0335L138.727 65.3607C138.879 65.4754 139.023 65.6069 139.17 65.7312C139.472 65.9689 139.736 66.2685 140.008 66.5552C140.523 67.1608 141.002 67.8379 141.341 68.6168C142.059 70.1553 142.259 71.9734 142.108 73.6896C141.958 75.4188 141.476 77.0636 140.846 78.5898C140.678 78.9674 140.519 79.3423 140.344 79.7211C140.147 80.1025 139.962 80.4942 139.736 80.8531C139.31 81.58 138.825 82.271 138.286 82.9192C137.256 84.1531 136.07 85.2471 134.756 86.1733C132.219 87.9682 129.521 89.2161 126.807 90.1754C124.093 91.1508 121.351 91.8421 118.613 92.4258C115.872 92.9889 113.13 93.4304 110.388 93.7504C110.212 93.7703 110.065 93.6299 110.062 93.4347C110.06 93.3512 110.084 93.2692 110.132 93.2008C110.18 93.1324 110.248 93.0813 110.328 93.0552C113.024 92.2918 115.719 91.5734 118.385 90.7494C121.052 89.9422 123.695 89.0441 126.265 87.9792C128.822 86.8897 131.333 85.6457 133.536 83.9719C134.634 83.1344 135.647 82.2028 136.51 81.1501C136.937 80.625 137.322 80.0661 137.659 79.4789C137.837 79.1916 137.975 78.883 138.129 78.584L138.552 77.6061C139.078 76.2931 139.485 74.9466 139.597 73.6349C139.709 72.3232 139.597 71.0579 139.113 69.9762C138.672 68.8713 137.876 67.9584 136.908 67.2458C135.939 66.5333 134.793 66.0218 133.586 65.6462C132.378 65.2706 131.094 65.0663 129.792 64.9459C128.474 64.8173 127.147 64.7824 125.823 64.8415C123.145 64.9117 120.433 65.3073 117.714 65.7666H117.711C117.535 65.7963 117.382 65.6636 117.371 65.4703C117.365 65.3875 117.385 65.3049 117.429 65.2346C117.474 65.1642 117.539 65.1098 117.616 65.0792" fill="#FFFEFD"/>
<path d="M62.9235 23.4188C59.2032 24.0296 55.4964 24.7473 51.8566 25.6318C50.0335 26.0613 48.2297 26.5471 46.4452 27.0891C44.6627 27.62 42.9105 28.2307 41.2059 28.9169C39.5013 29.603 37.8412 30.3703 36.3015 31.2896C34.7619 32.209 33.3304 33.2572 32.2024 34.5109C32.0646 34.6694 31.91 34.8182 31.785 34.9831L31.4197 35.4824C31.1517 35.8046 30.9907 36.1737 30.7755 36.5184C30.6608 36.6885 30.6067 36.8798 30.5255 37.0621L30.2943 37.6104L30.1203 38.2115C30.055 38.4079 30.004 38.6088 29.9677 38.8126L29.8549 39.4143C29.8073 39.6147 29.8176 39.8144 29.7944 40.0135C29.7396 40.4148 29.7776 40.8027 29.7853 41.1937C29.7911 41.387 29.8427 41.5738 29.8659 41.7645L29.9084 42.0486C29.9258 42.1427 29.9612 42.231 29.9863 42.3218C30.0424 42.5022 30.0862 42.6865 30.1474 42.8649L30.3754 43.3803C30.7227 44.0426 31.1401 44.6811 31.7315 45.1939L31.937 45.3981L32.1734 45.5772L32.6424 45.9393L33.161 46.2524C33.3308 46.3649 33.5096 46.4632 33.6957 46.5462C35.1671 47.2813 36.8626 47.7058 38.6052 47.9068C42.1084 48.3082 45.7759 47.8991 49.3551 47.1511C49.8061 47.0687 50.2506 46.9578 50.697 46.8457L52.0363 46.5185C52.9215 46.2575 53.8131 46.0282 54.6924 45.7454C56.4537 45.1868 58.2034 44.5735 59.9266 43.8835C63.3809 42.5183 66.7552 40.9264 70.0626 39.1927L75.0785 36.5197C75.5004 36.2897 75.9307 36.0732 76.3669 35.8658L77.6656 35.2325C78.525 34.7976 79.4095 34.413 80.2907 34.0206C83.8178 32.4602 87.4569 31.1215 91.1985 30.0965C94.9401 29.0715 98.7834 28.3428 102.693 28.1264L104.157 28.0478L105.627 28.0342L106.362 28.0304L107.098 28.0587C107.589 28.0819 108.079 28.0877 108.57 28.1231C110.539 28.2577 112.496 28.542 114.423 28.9736C116.372 29.403 118.272 30.0319 120.092 30.8503C121.919 31.6788 123.68 32.7186 125.246 34.067L125.825 34.5824C126.019 34.7564 126.193 34.9529 126.378 35.1378C126.752 35.4985 127.078 35.9225 127.417 36.3283C128.051 37.1852 128.627 38.1161 129.011 39.1766C129.381 40.2372 129.554 41.3567 129.521 42.4796C129.483 43.5766 129.265 44.6599 128.877 45.6867C128.104 47.7032 126.821 49.3661 125.418 50.7924C124.713 51.4946 123.962 52.1487 123.169 52.7503C122.395 53.3505 121.59 53.9111 120.759 54.4299C117.444 56.485 113.879 57.9829 110.224 59.082C110.138 59.1076 110.045 59.1 109.964 59.0606C109.884 59.0212 109.821 58.9529 109.788 58.8693C109.755 58.7857 109.755 58.6928 109.787 58.6089C109.819 58.5251 109.882 58.4564 109.962 58.4165C113.352 56.7576 116.656 54.9562 119.607 52.7471C121.085 51.6519 122.469 50.4536 123.651 49.1219C124.838 47.8037 125.823 46.3303 126.338 44.7758C126.604 44.022 126.745 43.2299 126.755 42.4307C126.757 41.6561 126.62 40.8874 126.349 40.1616C126.062 39.4465 125.637 38.7533 125.139 38.1C124.864 37.7843 124.614 37.4558 124.301 37.1633C124.149 37.0157 124.009 36.8586 123.85 36.7168L123.363 36.2974C122.048 35.1861 120.506 34.2931 118.879 33.5812C117.234 32.8646 115.519 32.3201 113.763 31.9564C111.989 31.582 110.19 31.3425 108.381 31.24C107.927 31.2097 107.47 31.2117 107.015 31.1949L106.332 31.1762L105.647 31.1885L104.279 31.2162L102.91 31.3064L102.225 31.3521L101.542 31.4204L100.176 31.5712L98.8137 31.7793C98.3628 31.8527 97.9054 31.9081 97.4551 32.0067C96.5532 32.1916 95.6461 32.3365 94.7526 32.5678L93.4075 32.89C92.9566 32.995 92.5178 33.1341 92.0727 33.2546C88.5167 34.2455 85.0353 35.543 81.6474 37.0608C80.8009 37.4422 79.9512 37.8153 79.1228 38.2398L77.873 38.8564C77.4536 39.058 77.04 39.2693 76.6323 39.4942L71.6371 42.1852C68.2324 43.9556 64.744 45.5798 61.148 46.9836C59.3539 47.6923 57.5257 48.3237 55.6761 48.9009C54.7536 49.1947 53.8079 49.435 52.8783 49.7043L51.4566 50.0393C50.9837 50.154 50.5108 50.2699 50.029 50.3569L48.5911 50.6397C48.1105 50.728 47.6248 50.7911 47.1384 50.8672L46.4105 50.9773C46.1676 51.0095 45.9209 51.0302 45.6761 51.0572C45.1852 51.1049 44.6975 51.1655 44.204 51.2015C42.2085 51.3534 40.203 51.3089 38.2161 51.0688C36.2101 50.8111 34.1776 50.2989 32.2688 49.3184C32.0253 49.2025 31.7902 49.0697 31.5653 48.9209L30.876 48.4879L30.2247 47.9783L29.9026 47.7206L29.6037 47.4262C28.7771 46.6763 28.122 45.7099 27.6214 44.6914L27.2871 43.9028C27.1963 43.6335 27.1273 43.3571 27.0494 43.084C27.0139 42.9461 26.9689 42.8102 26.9437 42.6716L26.8793 42.2542C26.8439 41.9758 26.784 41.6962 26.775 41.4166C26.7601 40.8613 26.7299 40.3027 26.802 39.7622C26.8342 39.4923 26.8368 39.212 26.8967 38.9504L27.0539 38.1593C27.1059 37.8976 27.1743 37.6393 27.2587 37.3862L27.4907 36.6266L27.8128 35.8677C27.9262 35.619 28.0189 35.3562 28.1665 35.1287C28.4473 34.6668 28.6934 34.1733 29.0323 33.7629L29.5148 33.1238C29.6797 32.9157 29.8672 32.7334 30.0417 32.5369C31.4719 30.9946 33.143 29.8053 34.8733 28.8176C36.6127 27.8403 38.4165 27.0569 40.2434 26.383C42.0756 25.7188 43.938 25.1892 45.8075 24.7228C47.6796 24.2666 49.5684 23.9155 51.4585 23.6076C55.2477 23.0381 59.0492 22.6844 62.8771 22.6992C62.9644 22.703 63.0472 22.7386 63.1101 22.7992C63.173 22.8599 63.2115 22.9414 63.2185 23.0285C63.2254 23.1155 63.2004 23.2022 63.1479 23.272C63.0955 23.3419 63.0194 23.3902 62.9338 23.4079L62.9235 23.4188Z" fill="#FFFEFD"/>
<path d="M80.9365 150.701C76.1977 150.701 71.8396 148.704 67.6175 146.771C65.1102 145.622 62.7421 144.537 60.3662 143.887C57.8538 143.199 55.056 142.892 52.3484 142.594C47.5368 142.065 42.5609 141.518 38.5301 138.863C34.4587 136.183 31.9843 131.818 29.5923 127.598C28.1957 125.133 26.8757 122.805 25.269 120.802C23.6907 118.834 21.7259 117.062 19.6457 115.186C16.0246 111.921 12.2805 108.545 10.534 103.917C8.86424 99.4886 9.41182 94.5542 9.94201 89.7823C10.248 87.0281 10.5643 84.1773 10.4387 81.5036C10.3131 78.83 9.73005 76.021 9.1683 73.3075C8.19361 68.6076 7.18544 63.748 8.43456 59.1829C9.74167 54.4109 13.1547 50.6987 16.4556 47.1089C18.3509 45.0473 20.1411 43.1023 21.5281 40.9969C22.9396 38.8528 24.0354 36.4118 25.1956 33.8277C27.1823 29.4017 29.2367 24.8255 33.0408 21.7744C36.8062 18.7554 41.7067 17.7459 46.4462 16.7692C49.1145 16.2196 51.8736 15.6508 54.31 14.7314C56.6169 13.8617 58.8749 12.5583 61.2675 11.179C65.507 8.73084 69.8902 6.20215 74.9292 5.96377C79.9683 5.7254 84.5737 7.83726 89.0245 9.87761C91.5324 11.0263 93.9006 12.1119 96.2764 12.7619C98.7856 13.4481 101.584 13.756 104.29 14.0504C109.102 14.58 114.079 15.127 118.112 17.7819C122.183 20.4607 124.656 24.8236 127.047 29.0428C128.444 31.5084 129.764 33.8367 131.372 35.8403C132.95 37.8079 134.915 39.577 136.996 41.455C140.617 44.7194 144.362 48.0946 146.109 52.723C147.778 57.1515 147.23 62.0852 146.7 66.8559C146.394 69.6101 146.078 72.4609 146.203 75.1333C146.332 77.8088 146.912 80.6139 147.474 83.3269C148.449 88.0299 149.458 92.8901 148.21 97.4547C146.904 102.229 143.491 105.942 140.19 109.532C138.295 111.594 136.505 113.54 135.119 115.645C133.707 117.79 132.611 120.231 131.451 122.815C129.464 127.241 127.408 131.818 123.606 134.868C119.84 137.889 114.938 138.899 110.197 139.876C107.529 140.426 104.77 140.995 102.334 141.913C100.028 142.784 97.7723 144.086 95.3829 145.466C91.1427 147.914 86.7582 150.444 81.7186 150.684C81.4561 150.696 81.1955 150.701 80.9365 150.701ZM75.6888 8.80364C75.4796 8.80364 75.2702 8.80858 75.0607 8.81846C70.7161 9.02397 66.6383 11.3774 62.6918 13.6536C60.3083 15.0297 57.8416 16.4528 55.3169 17.4051C52.6699 18.4036 49.798 18.9957 47.0208 19.5678C42.4102 20.5181 38.0553 21.4155 34.8272 24.0028C31.561 26.623 29.7379 30.6902 27.8021 34.9964C26.647 37.5734 25.452 40.2309 23.9136 42.5676C22.3997 44.8657 20.4471 46.9891 18.5583 49.043C15.3469 52.5348 12.314 55.8334 11.1905 59.9354C10.123 63.8376 11.0185 68.1541 11.9635 72.7238C12.5491 75.5462 13.1547 78.4653 13.2906 81.3671C13.4265 84.2688 13.0974 87.2297 12.7791 90.096C12.2637 94.7346 11.7774 99.1155 13.2049 102.905C14.7059 106.884 18.0326 109.884 21.5552 113.059C23.6289 114.927 25.7728 116.86 27.4948 119.01C29.2451 121.192 30.6836 123.73 32.0751 126.184C34.4026 130.291 36.6013 134.173 40.0975 136.471C43.5537 138.748 47.9749 139.234 52.6563 139.749C55.4735 140.058 58.3898 140.379 61.1161 141.125C63.7168 141.834 66.3026 143.022 68.8034 144.169C72.9457 146.067 77.2303 148.028 81.5762 147.826C85.922 147.623 90.0005 145.266 93.945 142.988C96.3286 141.612 98.7933 140.19 101.317 139.238C103.964 138.238 106.835 137.647 109.612 137.075C114.224 136.124 118.581 135.226 121.809 132.637C125.075 130.018 126.898 125.95 128.834 121.644C129.99 119.07 131.184 116.409 132.723 114.073C134.236 111.774 136.188 109.65 138.077 107.596C141.287 104.104 144.32 100.805 145.443 96.7003C146.51 92.798 145.614 88.4796 144.666 83.908C144.081 81.0862 143.476 78.169 143.339 75.2679C143.203 72.3688 143.532 69.4052 143.85 66.5402C144.365 61.9016 144.852 57.5207 143.425 53.7325C141.923 49.7542 138.593 46.7552 135.073 43.5797C133 41.7114 130.856 39.7786 129.133 37.6294C127.382 35.4473 125.943 32.9083 124.551 30.4531C122.225 26.3486 120.027 22.4714 116.532 20.1708C113.074 17.8947 108.651 17.4083 103.97 16.8935C101.153 16.5843 98.2412 16.2641 95.5137 15.5187C92.913 14.8068 90.3265 13.6214 87.8257 12.4752C83.8896 10.6687 79.8201 8.80364 75.6888 8.80364ZM88.5336 107.608C86.8819 107.608 85.1921 107.424 83.5256 107.242C81.9241 107.067 80.2684 106.886 78.7281 106.886C77.1878 106.886 75.5303 107.067 73.9281 107.242C70.0313 107.667 66.0044 108.107 62.648 106.168C59.1899 104.166 57.5659 100.425 55.9946 96.8066C55.3395 95.2977 54.721 93.8726 53.9873 92.6041C53.2883 91.3968 52.3819 90.1927 51.4233 88.9183C49.1525 85.9007 46.5782 82.4803 46.5782 78.323C46.5782 74.1656 49.1551 70.7433 51.4233 67.725C52.3826 66.4507 53.2883 65.2472 53.9879 64.0392C54.721 62.7714 55.3408 61.3456 55.9946 59.8374C57.5659 56.2193 59.1899 52.4775 62.6474 50.4771C66.0018 48.5372 70.0313 48.9773 73.9281 49.4025C75.5303 49.5771 77.1872 49.7581 78.7281 49.7581C80.2691 49.7581 81.9241 49.5777 83.5256 49.4025C87.4211 48.9766 91.4493 48.5372 94.805 50.4771C98.2638 52.4775 99.8879 56.2193 101.459 59.8381C102.114 61.3463 102.732 62.7714 103.466 64.0399C104.165 65.2466 105.071 66.45 106.029 67.7244C108.301 70.7427 110.875 74.1669 110.875 78.323C110.875 82.479 108.298 85.9013 106.029 88.919C105.071 90.1933 104.165 91.3974 103.465 92.6047C102.732 93.8726 102.112 95.2977 101.459 96.8059C99.8879 100.424 98.2638 104.166 94.8057 106.167C92.8859 107.278 90.7439 107.608 88.5336 107.608ZM68.9143 51.8944C67.1176 51.8944 65.4697 52.1476 64.0775 52.9529C61.4363 54.4811 60.0673 57.636 58.6172 60.9765C57.9588 62.4924 57.2779 64.0605 56.4617 65.4714C55.6758 66.8295 54.6753 68.1592 53.7077 69.4452C51.6082 72.2348 49.4372 75.1204 49.4372 78.323C49.4372 81.5255 51.6076 84.4086 53.707 87.1982C54.6734 88.4867 55.6757 89.8145 56.461 91.1719C57.2779 92.5828 57.9588 94.1509 58.6172 95.6675C60.0673 99.008 61.4369 102.163 64.0782 103.692C66.6209 105.162 70.0191 104.791 73.6164 104.4C75.2945 104.217 77.0306 104.028 78.7268 104.028C80.423 104.028 82.1573 104.217 83.8348 104.4C87.4314 104.793 90.8283 105.164 93.3723 103.692C96.0136 102.163 97.3838 99.0073 98.8339 95.6669C99.4923 94.1509 100.173 92.5828 100.989 91.1726C101.774 89.8158 102.775 88.486 103.742 87.2001C105.842 84.4099 108.013 81.5249 108.013 78.3236C108.013 75.1223 105.842 72.2354 103.742 69.4445C102.775 68.156 101.774 66.8295 100.989 65.4727C100.173 64.0618 99.4917 62.4937 98.8333 60.9778C97.3832 57.6373 96.0136 54.4818 93.3717 52.9536C90.8283 51.4828 87.4314 51.8539 83.8342 52.2449C82.1592 52.4285 80.4198 52.6179 78.7262 52.6179C77.0326 52.6179 75.2939 52.4285 73.6157 52.2449C71.9897 52.0677 70.4017 51.8944 68.9143 51.8944Z" fill="#E23BA2"/>
<path d="M88.5334 107.608C86.8823 107.608 85.1919 107.424 83.526 107.242C81.9238 107.067 80.2682 106.887 78.7279 106.887C77.1876 106.887 75.5307 107.067 73.9286 107.242C70.0324 107.668 66.0048 108.107 62.6484 106.167C59.1897 104.166 57.5656 100.424 55.9944 96.8053C55.3399 95.2971 54.7208 93.8727 53.9877 92.6041C53.2887 91.3968 52.383 90.1934 51.4237 88.9184C49.1529 85.9007 46.5786 82.4804 46.5786 78.323C46.5786 74.1657 49.1555 70.7434 51.4244 67.7251C52.383 66.4507 53.2887 65.2473 53.9883 64.0393C54.7214 62.7714 55.3412 61.347 55.9944 59.8381C57.5656 56.22 59.1897 52.4782 62.6478 50.4772C66.0022 48.5373 70.0304 48.9773 73.9279 49.4025C75.5307 49.5778 77.187 49.7588 78.7279 49.7588C80.2689 49.7588 81.9245 49.5778 83.5266 49.4025C87.4228 48.9773 91.4504 48.5373 94.8055 50.4765C98.2636 52.4782 99.8883 56.2194 101.459 59.8375C102.114 61.3463 102.733 62.7714 103.466 64.04C104.165 65.2473 105.072 66.4507 106.03 67.7251C108.301 70.7434 110.875 74.1676 110.875 78.323C110.875 82.4784 108.298 85.9007 106.03 88.9184C105.072 90.1934 104.162 91.3968 103.466 92.6048C102.733 93.8727 102.113 95.2978 101.459 96.806C99.8883 100.424 98.2636 104.166 94.8061 106.167C92.8864 107.278 90.7444 107.608 88.5334 107.608ZM68.9147 51.8945C67.1186 51.8945 65.4707 52.1483 64.0792 52.953C61.438 54.4818 60.0677 57.6367 58.6176 60.9772C57.9592 62.4937 57.2783 64.0612 56.4627 65.4715C55.6768 66.8289 54.6763 68.1586 53.7087 69.4446C51.6093 72.2348 49.4383 75.1198 49.4383 78.323C49.4383 81.5262 51.6086 84.4093 53.7087 87.1989C54.6751 88.4874 55.6768 89.8145 56.4621 91.172C57.2783 92.5829 57.9592 94.1503 58.617 95.6663C60.0677 99.0074 61.4373 102.162 64.0799 103.692C66.6226 105.162 70.0208 104.791 73.618 104.4C75.293 104.217 77.0323 104.028 78.7273 104.028C80.4222 104.028 82.1577 104.217 83.8352 104.4C87.4325 104.793 90.8307 105.164 93.3734 103.692C96.0146 102.162 97.3849 99.0074 98.835 95.6669C99.4934 94.151 100.174 92.5829 100.991 91.1726C101.776 89.8145 102.777 88.4848 103.745 87.1989C105.844 84.4086 108.014 81.5243 108.014 78.323C108.014 75.1217 105.843 72.2348 103.744 69.4452C102.778 68.1567 101.776 66.8296 100.991 65.4721C100.174 64.0612 99.4934 62.4931 98.835 60.9765C97.3849 57.6367 96.0146 54.4818 93.3727 52.9524C90.8307 51.4822 87.4331 51.8533 83.8384 52.2437C82.1603 52.4273 80.4241 52.6167 78.7292 52.6167C77.0343 52.6167 75.2975 52.4273 73.6187 52.2437C71.9895 52.0685 70.4015 51.8945 68.9147 51.8945Z" fill="#E23BA2"/>
<path d="M135.549 101.193C133.35 101.175 132.238 101.399 130.215 102.264C129.699 102.485 129.085 102.302 128.828 101.813C128.571 101.323 128.828 100.674 129.426 100.419C131.754 99.4243 133.034 99.1666 135.566 99.1866C136.213 99.1911 136.701 99.6885 136.654 100.241C136.607 100.794 136.113 101.199 135.549 101.194" fill="white"/>
<path d="M79.4657 116.538C77.2664 116.52 76.1538 116.744 74.1317 117.609C73.6163 117.831 73.0004 117.648 72.744 117.158C72.4876 116.669 72.744 116.02 73.3418 115.765C75.6694 114.77 76.9494 114.512 79.4811 114.533C80.1292 114.537 80.6175 115.035 80.5705 115.587C80.5235 116.139 80.0287 116.544 79.4657 116.54" fill="white"/>
<path d="M48.8467 104.787C49.574 106.863 50.1602 107.835 51.658 109.445C52.0413 109.858 52.0767 110.497 51.7011 110.904C51.3256 111.311 50.6292 111.29 50.1879 110.812C48.4647 108.958 47.7895 107.84 46.9521 105.451C46.7382 104.84 47.0403 104.213 47.5763 104.07C48.1123 103.927 48.6605 104.256 48.8467 104.787Z" fill="white"/>
<path d="M111.12 50.077C113.319 50.0403 114.426 49.7897 116.426 48.8748C116.938 48.6403 117.556 48.8104 117.824 49.2929C118.092 49.7755 117.85 50.4307 117.261 50.7006C114.958 51.7527 113.685 52.042 111.154 52.0845C110.507 52.0954 110.006 51.6103 110.039 51.0537C110.072 50.497 110.554 50.0834 111.12 50.0738" fill="white"/>
<path d="M99.7075 19.9411C100.678 21.9151 101.375 22.81 103.057 24.2306C103.487 24.5939 103.599 25.224 103.275 25.673C102.95 26.1221 102.255 26.1814 101.761 25.7632C99.828 24.1281 99.0247 23.098 97.9089 20.8263C97.6229 20.2465 97.849 19.5855 98.3631 19.38C98.8771 19.1745 99.4621 19.436 99.7101 19.9411" fill="#FFE266"/>
<path d="M32.5372 59.1877C30.9673 60.7442 30.008 61.3511 27.9382 62.0991C27.6778 62.1919 27.4627 62.3807 27.3371 62.627C27.2114 62.8733 27.1847 63.1583 27.2624 63.4236C27.4286 63.9848 28.0747 64.305 28.6842 64.0853C31.0677 63.2239 32.1713 62.5262 33.9777 60.7352C34.4402 60.2771 34.437 59.5485 34.0105 59.1529C33.8082 58.9665 33.5415 58.8661 33.2666 58.8729C32.9916 58.8796 32.7301 58.993 32.5372 59.189" fill="#FFE266"/>
<path d="M95.1288 130.432C97.3268 130.367 98.431 130.104 100.42 129.166C100.929 128.925 101.548 129.085 101.823 129.567C102.097 130.049 101.862 130.705 101.277 130.981C98.987 132.062 97.7172 132.365 95.1868 132.438C94.5426 132.456 94.0337 131.978 94.0601 131.424C94.0865 130.871 94.5664 130.448 95.1288 130.432Z" fill="#FFE266"/>
<path d="M56.6883 32.6583C57.6578 34.6323 58.3555 35.5272 60.0349 36.9478C60.4646 37.3118 60.5761 37.9412 60.252 38.3909C59.928 38.8406 59.2329 38.8992 58.7381 38.4805C56.8055 36.8453 56.0022 35.8158 54.8864 33.5442C54.6004 32.9644 54.8265 32.3034 55.3412 32.0978C55.8559 31.8923 56.4402 32.1532 56.6883 32.6583Z" fill="#FFE266"/>
<path d="M128.195 79.3448C130.118 78.278 130.976 77.5351 132.311 75.7873C132.652 75.3363 133.277 75.1965 133.741 75.498C134.204 75.7995 134.299 76.4908 133.906 77.0049C132.37 79.0176 131.381 79.8718 129.169 81.0998C128.602 81.4142 127.932 81.2222 127.702 80.7184C127.471 80.2146 127.702 79.6186 128.195 79.3448Z" fill="#C6225D"/>
<path d="M35.6287 100.846C36.0326 98.6927 36.0378 97.5563 35.6557 95.3968C35.5578 94.8446 35.8226 94.2803 36.2877 94.1276C36.7528 93.9749 37.2611 94.3608 37.3732 94.9967C37.8132 97.4822 37.8074 98.7894 37.3429 101.268C37.2237 101.902 36.7129 102.281 36.2478 102.123C35.7826 101.964 35.525 101.397 35.628 100.846" fill="#C6225D"/>
<path d="M96.2792 43.8432C94.2532 42.987 93.14 42.7686 90.94 42.795C90.3776 42.8015 89.881 42.3988 89.832 41.8467C89.7831 41.2946 90.2688 40.7959 90.9162 40.7875C93.4473 40.7573 94.7286 41.0085 97.0607 41.9942C97.6566 42.2461 97.9188 42.8923 97.6643 43.3852C97.4098 43.878 96.7972 44.0629 96.2792 43.8432Z" fill="#C6225D"/>
<path d="M79.9861 136.047C81.4034 134.366 81.9426 133.367 82.5681 131.258C82.7285 130.719 83.2607 130.363 83.8024 130.48C84.3442 130.596 84.6766 131.208 84.4924 131.833C83.7722 134.26 83.1524 135.409 81.5207 137.345C81.1032 137.84 80.4087 137.898 80.0138 137.51C79.6189 137.121 79.6234 136.479 79.9861 136.051" fill="#C6225D"/>
<path d="M41.1886 34.3302C39.2837 35.4286 38.4372 36.185 37.1301 37.9554C36.7964 38.4064 36.1754 38.561 35.7058 38.2672C35.2361 37.9734 35.1311 37.2847 35.5125 36.7629C37.0161 34.7258 37.9895 33.856 40.1824 32.5914C40.7435 32.2692 41.416 32.449 41.655 32.9489C41.894 33.4489 41.6731 34.0487 41.1854 34.3302" fill="#C6225D"/>
<path d="M84.0594 24.5955C82.1364 25.6624 81.2777 26.4052 79.9429 28.1531C79.6014 28.6041 78.9766 28.7439 78.5127 28.4424C78.0489 28.1409 77.9548 27.4496 78.3472 26.9348C79.8836 24.9228 80.8718 24.0685 83.0847 22.8406C83.6509 22.5256 84.3209 22.7182 84.5522 23.222C84.7835 23.7258 84.5522 24.3217 84.0594 24.5955Z" fill="#C6225D"/>
<path d="M133.385 57.5422C133.63 55.3569 133.522 54.2269 132.87 52.126C132.703 51.5881 132.948 50.9966 133.463 50.7924C133.979 50.5882 134.595 50.9129 134.787 51.5314C135.536 53.9492 135.66 55.2493 135.379 57.7651C135.307 58.4094 134.762 58.8436 134.219 58.7399C133.677 58.6362 133.323 58.1014 133.386 57.5422" fill="#78D9FF"/>
<path d="M38.5763 75.5317C36.0446 75.0679 34.8708 74.5956 32.9479 73.2704C32.4557 72.9309 31.6685 72.9831 31.1486 73.4283C30.6287 73.8734 30.6274 74.5879 31.1937 74.9816C33.4072 76.5071 34.7581 77.0502 37.6719 77.5843C38.4172 77.7209 39.2064 77.3202 39.4061 76.7468C39.6058 76.1734 39.2244 75.6516 38.5763 75.5324" fill="#78D9FF"/>
<path d="M114.932 37.4263C112.835 38.086 111.844 38.6407 110.186 40.0851C109.761 40.4549 109.121 40.4717 108.727 40.0806C108.332 39.6896 108.379 38.997 108.868 38.5711C110.776 36.909 111.916 36.2705 114.331 35.5116C114.948 35.3183 115.565 35.6404 115.691 36.1803C115.817 36.7202 115.47 37.2575 114.932 37.4263Z" fill="#78D9FF"/>
<path d="M58.4538 126.812C60.5797 126.25 61.5949 125.74 63.3176 124.373C63.7582 124.023 64.3979 124.037 64.7748 124.444C65.1516 124.851 65.073 125.543 64.5654 125.946C62.5819 127.52 61.4152 128.105 58.9679 128.753C58.3417 128.919 57.74 128.568 57.6395 128.023C57.539 127.478 57.9101 126.957 58.4538 126.812Z" fill="#78D9FF"/>
<path d="M77.7842 16.1624C75.6094 16.4936 74.5464 16.8904 72.6866 18.0649C72.2105 18.3651 71.5766 18.2827 71.2455 17.8381C70.9144 17.3936 71.067 16.7133 71.6146 16.3679C73.7553 15.015 74.9787 14.5595 77.4815 14.1775C78.1218 14.0796 78.6822 14.4932 78.7241 15.0459C78.766 15.5987 78.3376 16.0767 77.7842 16.1618" fill="#78D9FF"/>
<path d="M106.078 116.541C104.229 117.734 103.422 118.531 102.207 120.364C101.895 120.834 101.283 121.017 100.799 120.751C100.315 120.484 100.176 119.798 100.534 119.257C101.934 117.148 102.862 116.229 104.989 114.857C105.533 114.506 106.213 114.654 106.478 115.141C106.743 115.628 106.551 116.236 106.078 116.544" fill="#78D9FF"/>
<path d="M41.5178 103.877C40.004 104.925 38.3885 105.817 36.6959 106.54C35.0048 107.232 33.2294 107.758 31.3682 107.825C30.4153 107.871 29.4619 107.74 28.5569 107.438L28.2084 107.309C28.0937 107.263 27.981 107.205 27.867 107.152C27.1495 106.814 26.5152 106.322 26.0091 105.711C25.2946 104.867 24.8579 103.759 24.6562 102.656C24.4546 101.552 24.4752 100.428 24.6105 99.3617C24.6511 99.0956 24.6872 98.8328 24.7323 98.5648C24.7909 98.2916 24.8398 98.0152 24.9204 97.7498C25.0636 97.2201 25.2498 96.703 25.477 96.2036C25.9128 95.252 26.4713 94.3616 27.1384 93.5551C28.4268 91.9927 29.9085 90.7474 31.4469 89.6799C32.9846 88.6027 34.5893 87.6988 36.2088 86.8639C37.8348 86.0414 39.4816 85.2947 41.1493 84.6238C41.1755 84.6139 41.2035 84.6098 41.2314 84.6118C41.2594 84.6138 41.2865 84.6219 41.311 84.6354C41.3355 84.649 41.3568 84.6677 41.3734 84.6903C41.3899 84.7128 41.4014 84.7387 41.407 84.7662C41.4231 84.818 41.4219 84.8737 41.4037 84.9248C41.3855 84.9759 41.3511 85.0197 41.3058 85.0496C39.7423 85.9915 38.1717 86.9019 36.6385 87.8779C35.1014 88.8443 33.5947 89.8583 32.1619 90.9665C30.7447 92.0887 29.3777 93.3006 28.2806 94.7289C27.7314 95.4326 27.2665 96.1983 26.8955 97.0102C26.7167 97.4132 26.571 97.8301 26.46 98.2568C26.3956 98.4681 26.3634 98.6852 26.3176 98.9011L26.2191 99.5872C26.1134 100.503 26.0902 101.418 26.2423 102.261C26.3943 103.105 26.6823 103.88 27.1719 104.477C27.6389 105.096 28.2947 105.533 29.0252 105.815C29.7558 106.096 30.5636 106.223 31.3856 106.251C32.2076 106.278 33.0503 106.186 33.8884 106.041C34.7394 105.897 35.579 105.691 36.4008 105.427C38.0713 104.925 39.7069 104.212 41.3368 103.458C41.3624 103.447 41.3901 103.441 41.418 103.442C41.4459 103.443 41.4734 103.449 41.4985 103.461C41.5236 103.474 41.5458 103.491 41.5634 103.513C41.5811 103.534 41.5939 103.56 41.6009 103.587C41.6181 103.638 41.619 103.693 41.6033 103.744C41.5875 103.796 41.5561 103.841 41.5133 103.874" fill="#FFFEFD"/>
<path d="M70.2303 112.017C67.5974 113.081 64.9916 114.221 62.4624 115.473C61.1933 116.089 59.9478 116.744 58.726 117.438C57.502 118.123 56.3173 118.861 55.1777 119.647C54.0409 120.412 52.9667 121.266 51.965 122.201C50.9852 123.126 50.1071 124.139 49.4848 125.247C49.4094 125.386 49.3212 125.521 49.2561 125.662L49.0706 126.09C48.9263 126.371 48.8689 126.67 48.7697 126.957C48.7137 127.101 48.7053 127.251 48.6763 127.398L48.5964 127.84L48.5681 128.31C48.5526 128.465 48.5483 128.621 48.5552 128.777L48.572 129.238C48.572 129.393 48.6106 129.538 48.6261 129.689C48.6525 129.993 48.7446 130.269 48.8148 130.558C48.8515 130.7 48.9198 130.828 48.9688 130.964L49.0467 131.166C49.0744 131.231 49.1157 131.291 49.1485 131.354C49.22 131.477 49.2825 131.605 49.3566 131.726L49.6098 132.067C49.9744 132.496 50.3867 132.896 50.9059 133.176L51.0908 133.292L51.2944 133.384L51.6983 133.572L52.1312 133.717C52.2747 133.772 52.4225 133.815 52.5731 133.846C53.7759 134.143 55.092 134.174 56.4062 134.034C59.0474 133.75 61.6752 132.843 64.1818 131.702C64.4994 131.567 64.808 131.411 65.1178 131.256L66.0481 130.794C66.6555 130.456 67.2721 130.14 67.8718 129.785C69.0739 129.083 70.2554 128.343 71.4111 127.551C73.725 125.963 75.9529 124.253 78.0851 122.429L81.33 119.635C81.6025 119.396 81.8827 119.166 82.1675 118.941L83.0172 118.261C83.577 117.8 84.7675 116.908 85.3505 116.477C87.6845 114.747 89.534 113.622 92.1147 112.25C94.6954 110.879 97.3972 109.707 100.236 108.9L101.3 108.601L102.378 108.347L102.917 108.224L103.463 108.123C103.828 108.058 104.189 107.981 104.558 107.929C106.029 107.702 107.515 107.588 109.003 107.587C110.507 107.58 112.006 107.729 113.479 108.03C114.961 108.336 116.425 108.807 117.799 109.542L118.314 109.823C118.484 109.919 118.646 110.034 118.811 110.14C119.147 110.343 119.456 110.601 119.772 110.843C120.38 111.368 120.957 111.957 121.415 112.673C121.862 113.391 122.174 114.186 122.335 115.017C122.487 115.829 122.506 116.662 122.39 117.48C122.154 119.091 121.488 120.524 120.691 121.804C120.287 122.437 119.841 123.041 119.356 123.614C118.886 124.183 118.387 124.728 117.862 125.247C115.766 127.304 113.392 128.995 110.888 130.407C110.829 130.441 110.759 130.451 110.692 130.436C110.625 130.421 110.567 130.381 110.529 130.325C110.49 130.268 110.475 130.199 110.485 130.131C110.496 130.064 110.532 130.003 110.585 129.961C112.802 128.181 114.933 126.312 116.736 124.2C117.642 123.153 118.461 122.042 119.11 120.868C119.758 119.694 120.244 118.457 120.367 117.229C120.437 116.631 120.409 116.026 120.285 115.437C120.159 114.867 119.931 114.324 119.612 113.836C119.262 113.344 118.848 112.901 118.381 112.519C118.127 112.333 117.888 112.132 117.608 111.969C117.472 111.886 117.343 111.793 117.201 111.716L116.773 111.488C115.623 110.889 114.342 110.488 113.029 110.233C111.702 109.978 110.351 109.862 109 109.885C107.635 109.903 106.273 110.024 104.926 110.248C104.588 110.301 104.252 110.377 103.915 110.441L103.41 110.54L102.909 110.662L101.908 110.909L100.917 111.201L100.421 111.348L99.9309 111.516L98.9517 111.853L97.9854 112.231C97.6633 112.36 97.3412 112.476 97.0243 112.623C96.3923 112.907 95.7494 113.164 95.1309 113.482L94.1955 113.939C93.8831 114.091 93.5816 114.266 93.2743 114.428C90.8216 115.757 88.4714 117.266 86.2434 118.945C85.6842 119.365 85.1212 119.782 84.5826 120.229L83.7658 120.888C83.4913 121.106 83.2221 121.33 82.9592 121.562L79.7369 124.365C77.5271 126.241 75.2184 127.997 72.8207 129.626C71.6192 130.443 70.3804 131.209 69.1165 131.94C68.4864 132.308 67.8332 132.641 67.1922 132.992L66.2053 133.477C65.8761 133.639 65.5482 133.803 65.2087 133.947L64.1979 134.392C63.8591 134.536 63.5112 134.663 63.1672 134.799L62.6518 135.001C62.4785 135.065 62.3007 135.121 62.1255 135.18C61.7725 135.296 61.4239 135.422 61.0677 135.53C59.6261 135.971 58.1446 136.27 56.6445 136.422C55.1268 136.562 53.5491 136.524 51.9843 136.118C51.7861 136.074 51.5913 136.015 51.4013 135.943L50.8215 135.738L50.2585 135.472L49.9783 135.335L49.7096 135.168C48.9785 134.754 48.3381 134.152 47.8008 133.485L47.4253 132.961C47.3138 132.779 47.2172 132.587 47.1147 132.399C47.0658 132.304 47.0104 132.211 46.9692 132.113L46.8532 131.817C46.7817 131.618 46.6915 131.423 46.6393 131.22C46.5362 130.814 46.4216 130.409 46.3855 129.996C46.3642 129.793 46.3211 129.586 46.3211 129.385L46.3063 128.777C46.301 128.576 46.3088 128.376 46.3295 128.176L46.3746 127.58L46.486 126.969C46.5285 126.767 46.5504 126.558 46.6239 126.367C46.7527 125.981 46.8532 125.578 47.0349 125.22L47.2835 124.671C47.3699 124.49 47.4768 124.325 47.5741 124.152C48.3703 122.782 49.4017 121.632 50.5084 120.62C51.6164 119.635 52.8012 118.74 54.0516 117.943C55.2855 117.165 56.5589 116.451 57.8666 115.804C59.1666 115.16 60.4969 114.589 61.8349 114.05C64.5258 113.005 67.2618 112.118 70.0769 111.495C70.1445 111.477 70.2167 111.485 70.2781 111.519C70.3396 111.552 70.3855 111.609 70.4063 111.676C70.427 111.742 70.4209 111.815 70.3893 111.877C70.3577 111.94 70.3029 111.988 70.2367 112.011L70.2303 112.017Z" fill="#FFFEFD"/>
<path d="M35.7415 115.008C36.7078 116.982 37.4087 117.877 39.0882 119.298C39.5178 119.661 39.6293 120.291 39.3053 120.741C38.9812 121.19 38.2861 121.249 37.7914 120.83C35.8587 119.195 35.0554 118.165 33.9396 115.894C33.6536 115.314 33.8797 114.653 34.3945 114.447C34.9092 114.242 35.4928 114.503 35.7415 115.008Z" fill="#FFE266"/>
<path d="M117.788 103.048C118.032 100.862 117.925 99.7328 117.272 97.6313C117.105 97.094 117.35 96.5025 117.865 96.2983C118.381 96.0941 118.997 96.4181 119.189 97.0373C119.939 99.4552 120.062 100.755 119.781 103.271C119.709 103.915 119.164 104.349 118.622 104.245C118.079 104.141 117.725 103.607 117.784 103.048" fill="#78D9FF"/>
<path d="M122.337 70.3714C121.257 72.2868 120.906 73.364 120.657 75.5364C120.593 76.0917 120.142 76.5427 119.602 76.5388C119.062 76.535 118.64 76.006 118.714 75.3663C119 72.8666 119.403 71.6296 120.647 69.4224C120.964 68.8581 121.621 68.6628 122.064 68.9611C122.506 69.2594 122.611 69.8811 122.334 70.3714" fill="#FFE266"/>
<path d="M43.2005 60.1688C42.9306 62.3522 43.0253 63.4829 43.6515 65.5909C43.8119 66.1314 43.56 66.7189 43.0427 66.9174C42.5254 67.1158 41.9121 66.7847 41.7272 66.1636C41.0057 63.7367 40.8975 62.4353 41.2073 59.9227C41.2872 59.2785 41.8361 58.852 42.3798 58.9621C42.9235 59.0723 43.2682 59.6103 43.1999 60.1688" fill="white"/>
</svg>
