<svg width="256" height="251" viewBox="0 0 256 251" fill="none" xmlns="http://www.w3.org/2000/svg">
<path fill-rule="evenodd" clip-rule="evenodd" d="M118.971 234.226C182.71 234.226 234.38 182.555 234.38 118.817C234.38 55.0782 182.71 3.40796 118.971 3.40796C55.2328 3.40796 3.5625 55.0782 3.5625 118.817C3.5625 182.555 55.2328 234.226 118.971 234.226ZM119.054 158.222C140.498 158.222 157.882 140.839 157.882 119.395C157.882 97.9508 140.498 80.5671 119.054 80.5671C97.6103 80.5671 80.2266 97.9508 80.2266 119.395C80.2266 140.839 97.6103 158.222 119.054 158.222Z" fill="#F4A63E"/>
<path fill-rule="evenodd" clip-rule="evenodd" d="M123.929 11.4637C60.1906 11.4637 8.52031 63.134 8.5203 126.872C8.5203 149.347 14.9447 170.322 26.0573 188.06C11.9198 168.906 3.56327 145.225 3.56327 119.592C3.56327 55.8537 55.2336 4.18343 118.972 4.18343C160.236 4.18344 196.441 25.839 216.844 58.4051C195.827 29.9315 162.035 11.4637 123.929 11.4637Z" fill="#FBAF49"/>
<path fill-rule="evenodd" clip-rule="evenodd" d="M136.171 224.802C198.553 211.72 238.517 150.544 225.435 88.1624C220.821 66.1631 210.226 46.9518 195.707 31.8718C213.478 47.7164 226.52 69.1804 231.782 94.271C244.865 156.652 204.9 217.828 142.519 230.911C102.137 239.38 62.2598 225.619 35.6073 197.938C62.0204 221.487 98.8803 232.623 136.171 224.802Z" fill="#E29837"/>
<path fill-rule="evenodd" clip-rule="evenodd" d="M144.337 162.77C168.627 148.747 176.95 117.687 162.926 93.3973C148.902 69.1075 117.843 60.7852 93.5529 74.8089C69.2631 88.8327 60.9408 119.892 74.9645 144.182C88.9883 168.472 120.048 176.794 144.337 162.77ZM134.301 145.386C148.99 136.906 154.023 118.123 145.542 103.434C137.061 88.7444 118.278 83.7115 103.589 92.1923C88.9001 100.673 83.8672 119.456 92.348 134.145C100.829 148.834 119.612 153.867 134.301 145.386Z" fill="url(#paint0_linear_307_11744)"/>
<path fill-rule="evenodd" clip-rule="evenodd" d="M188.156 43.4982C180.398 29.5319 165.577 20.975 149.603 21.2398C143.055 21.3484 136.567 19.9694 130.629 17.2068C116.144 10.4676 99.124 12.2565 86.3563 21.86C81.1224 25.7969 75.0633 28.4946 68.6355 29.7499C52.9554 32.812 40.2374 44.2633 35.553 59.5375C33.6327 65.7988 30.3164 71.5428 25.8541 76.3365C14.9685 88.0304 11.4104 104.77 16.5985 119.881C18.7253 126.075 19.4186 132.671 18.6261 139.172C16.693 155.031 23.6538 170.665 36.7328 179.84C42.0943 183.602 46.5323 188.53 49.7125 194.256C57.4702 208.222 72.2911 216.779 88.2652 216.514C94.8135 216.406 101.301 217.785 107.239 220.547C121.725 227.286 138.744 225.498 151.512 215.894C156.746 211.957 162.805 209.259 169.233 208.004C184.913 204.942 197.631 193.491 202.315 178.217C204.236 171.955 207.552 166.211 212.014 161.418C222.9 149.724 226.458 132.984 221.27 117.873C219.143 111.679 218.45 105.083 219.242 98.5818C221.175 82.7229 214.215 67.0888 201.136 57.9137C195.774 54.1525 191.336 49.2235 188.156 43.4982ZM144.742 88.8741C142.844 83.6407 137.457 80.5306 131.975 81.5032L124.495 82.8302C122.603 83.1659 120.657 83.0201 118.836 82.4061L111.637 79.979C106.362 78.2004 100.571 80.4729 97.9141 85.3648L94.288 92.0403C93.3706 93.7291 92.0431 95.1598 90.4276 96.2008L84.0418 100.316C79.3621 103.331 77.5287 109.275 79.6965 114.403L82.6548 121.4C83.4031 123.17 83.694 125.1 83.5007 127.012L82.7363 134.57C82.1761 140.109 85.6801 145.248 91.0407 146.75L98.3557 148.8C100.206 149.319 101.897 150.295 103.271 151.638L108.704 156.948C112.685 160.839 118.888 161.304 123.404 158.05L129.568 153.609C131.127 152.485 132.944 151.772 134.851 151.535L142.39 150.598C147.914 149.912 152.145 145.352 152.417 139.792L152.787 132.204C152.881 130.285 153.456 128.42 154.46 126.781L158.428 120.303C161.336 115.555 160.409 109.405 156.231 105.725L150.53 100.705C149.088 99.4347 147.988 97.8221 147.333 96.0155L144.742 88.8741Z" fill="#FF1198"/>
<path fill-rule="evenodd" clip-rule="evenodd" d="M18.9565 109.167C19.9765 99.5414 24.074 90.3683 30.8303 83.1104L32.0178 81.8347C36.2749 77.2615 39.4386 71.7818 41.2706 65.8084C45.7396 51.2368 57.8725 40.3122 72.8314 37.3909C78.9636 36.1933 84.744 33.6197 89.7372 29.864C101.918 20.7021 118.155 18.9955 131.974 25.4247C137.639 28.0603 143.828 29.3758 150.075 29.2723L154.364 29.2012C162.197 29.0713 169.835 30.9762 176.583 34.6147C168.859 27.2163 158.42 22.9906 147.404 23.1732C141.171 23.2765 134.997 21.9641 129.346 19.3349C115.56 12.9212 99.3621 14.6237 87.211 23.7635C82.2299 27.5102 76.4634 30.0776 70.346 31.2723C55.4231 34.1866 43.3194 45.0848 38.8612 59.6213C37.0336 65.5803 33.8775 71.0468 29.6307 75.6091C21.1364 84.7341 17.3303 97.0874 18.9565 109.167Z" fill="#FB40AA"/>
<path fill-rule="evenodd" clip-rule="evenodd" d="M219.746 128.724C218.726 138.35 214.628 147.523 207.872 154.782L206.684 156.057C202.427 160.631 199.263 166.11 197.431 172.084C192.962 186.655 180.829 197.58 165.871 200.501C159.738 201.699 153.958 204.272 148.965 208.028C136.784 217.19 120.547 218.896 106.728 212.467C101.063 209.832 94.8741 208.516 88.627 208.62L84.3384 208.691C76.506 208.821 68.8683 206.916 62.1206 203.278C69.844 210.676 80.2832 214.901 91.2986 214.718C97.5307 214.615 103.705 215.927 109.356 218.557C123.142 224.97 139.34 223.268 151.491 214.128C156.472 210.381 162.239 207.814 168.356 206.619C183.279 203.705 195.383 192.807 199.841 178.27C201.669 172.311 204.825 166.845 209.071 162.282C217.566 153.157 221.372 140.804 219.746 128.724Z" fill="#FF3CAA"/>
<mask id="path-8-inside-1_307_11744" fill="white">
<path fill-rule="evenodd" clip-rule="evenodd" d="M188.156 43.4982C180.398 29.5319 165.577 20.975 149.603 21.2398C143.055 21.3484 136.567 19.9694 130.629 17.2068C116.144 10.4676 99.124 12.2565 86.3563 21.86C81.1224 25.7969 75.0633 28.4946 68.6355 29.7499C52.9554 32.812 40.2374 44.2633 35.553 59.5375C33.6327 65.7988 30.3164 71.5428 25.8541 76.3365C14.9685 88.0304 11.4104 104.77 16.5985 119.881C18.7253 126.075 19.4186 132.671 18.6261 139.172C16.693 155.031 23.6538 170.665 36.7328 179.84C42.0943 183.602 46.5323 188.53 49.7125 194.256C57.4702 208.222 72.2911 216.779 88.2652 216.514C94.8135 216.406 101.301 217.785 107.239 220.547C121.725 227.286 138.744 225.498 151.512 215.894C156.746 211.957 162.805 209.259 169.233 208.004C184.913 204.942 197.631 193.491 202.315 178.217C204.236 171.955 207.552 166.211 212.014 161.418C222.9 149.724 226.458 132.984 221.27 117.873C219.143 111.679 218.45 105.083 219.242 98.5818C221.175 82.7229 214.215 67.0888 201.136 57.9137C195.774 54.1525 191.336 49.2235 188.156 43.4982ZM144.742 88.8741C142.844 83.6407 137.457 80.5306 131.975 81.5032L124.495 82.8302C122.603 83.1659 120.657 83.0201 118.836 82.4061L111.637 79.979C106.362 78.2004 100.571 80.4729 97.9141 85.3648L94.288 92.0403C93.3706 93.7291 92.0431 95.1598 90.4276 96.2008L84.0418 100.316C79.3621 103.331 77.5287 109.275 79.6965 114.403L82.6548 121.4C83.4031 123.17 83.694 125.1 83.5007 127.012L82.7363 134.57C82.1761 140.109 85.6801 145.248 91.0407 146.75L98.3557 148.8C100.206 149.319 101.897 150.295 103.271 151.638L108.704 156.948C112.685 160.839 118.888 161.304 123.404 158.05L129.568 153.609C131.127 152.485 132.944 151.772 134.851 151.535L142.39 150.598C147.914 149.912 152.145 145.352 152.417 139.792L152.787 132.204C152.881 130.285 153.456 128.42 154.46 126.781L158.428 120.303C161.336 115.555 160.409 109.405 156.231 105.725L150.53 100.705C149.088 99.4347 147.988 97.8221 147.333 96.0155L144.742 88.8741Z"/>
</mask>
<path d="M149.603 21.2398L149.68 25.8865L149.603 21.2398ZM188.156 43.4982L184.093 45.7549L188.156 43.4982ZM130.629 17.2068L128.669 21.4204L130.629 17.2068ZM86.3563 21.86L83.5627 18.1461V18.1461L86.3563 21.86ZM68.6355 29.7499L67.7447 25.1887L68.6355 29.7499ZM35.553 59.5375L31.1099 58.1748L35.553 59.5375ZM25.8541 76.3365L22.4524 73.17L22.4524 73.17L25.8541 76.3365ZM16.5985 119.881L12.203 121.39L16.5985 119.881ZM18.6261 139.172L23.2393 139.734L18.6261 139.172ZM36.7328 179.84L34.0638 183.645L34.0638 183.645L36.7328 179.84ZM49.7125 194.256L53.7751 191.999L49.7125 194.256ZM88.2652 216.514L88.3422 221.161L88.2652 216.514ZM107.239 220.547L105.279 224.761L105.279 224.761L107.239 220.547ZM151.512 215.894L148.719 212.18L151.512 215.894ZM169.233 208.004L170.124 212.565L169.233 208.004ZM202.315 178.217L197.872 176.854L202.315 178.217ZM212.014 161.418L215.416 164.584H215.416L212.014 161.418ZM221.27 117.873L216.875 119.383L221.27 117.873ZM219.242 98.5818L223.856 99.1441L219.242 98.5818ZM201.136 57.9137L198.467 61.7182L201.136 57.9137ZM131.975 81.5032L132.787 86.079L131.975 81.5032ZM144.742 88.8741L149.111 87.2893L149.111 87.2892L144.742 88.8741ZM124.495 82.8302L123.683 78.2543H123.683L124.495 82.8302ZM118.836 82.4061L117.351 86.8099L118.836 82.4061ZM111.637 79.979L113.122 75.5752L113.122 75.5752L111.637 79.979ZM97.9141 85.3648L101.998 87.5831L97.9141 85.3648ZM94.288 92.0403L90.2042 89.822L90.2042 89.822L94.288 92.0403ZM90.4276 96.2008L87.9103 92.2942L87.9103 92.2942L90.4276 96.2008ZM84.0418 100.316L86.559 104.222L84.0418 100.316ZM79.6965 114.403L75.416 116.212L79.6965 114.403ZM82.6548 121.4L86.9353 119.59L86.9353 119.59L82.6548 121.4ZM83.5007 127.012L78.8769 126.544L83.5007 127.012ZM82.7363 134.57L87.36 135.038L82.7363 134.57ZM91.0407 146.75L92.2946 142.275L91.0407 146.75ZM98.3557 148.8L99.6096 144.325L99.6096 144.325L98.3557 148.8ZM103.271 151.638L100.022 154.961L100.022 154.961L103.271 151.638ZM108.704 156.948L111.952 153.625H111.952L108.704 156.948ZM123.404 158.05L120.687 154.279L123.404 158.05ZM129.568 153.609L132.284 157.379L132.284 157.379L129.568 153.609ZM134.851 151.535L134.278 146.923L134.851 151.535ZM142.39 150.598L142.963 155.21H142.963L142.39 150.598ZM152.417 139.792L147.775 139.565L152.417 139.792ZM152.787 132.204L157.429 132.431L152.787 132.204ZM154.46 126.781L150.497 124.353L150.497 124.353L154.46 126.781ZM158.428 120.303L162.391 122.73V122.73L158.428 120.303ZM156.231 105.725L159.302 102.238V102.238L156.231 105.725ZM150.53 100.705L153.601 97.2171L153.601 97.2171L150.53 100.705ZM147.333 96.0155L142.964 97.6003L142.964 97.6003L147.333 96.0155ZM149.68 25.8865C163.939 25.6501 177.169 33.2882 184.093 45.7549L192.219 41.2416C183.628 25.7755 167.216 16.2999 149.526 16.5931L149.68 25.8865ZM128.669 21.4204C135.245 24.4797 142.429 26.0067 149.68 25.8865L149.526 16.5931C143.681 16.69 137.89 15.4591 132.59 12.9931L128.669 21.4204ZM89.1499 25.574C100.547 17.0017 115.739 15.4049 128.669 21.4204L132.59 12.9931C116.549 5.53032 97.7014 7.51127 83.5627 18.1461L89.1499 25.574ZM69.5262 34.311C76.6442 32.9209 83.354 29.9336 89.1499 25.574L83.5627 18.1461C78.8908 21.6602 73.4823 24.0682 67.7447 25.1887L69.5262 34.311ZM39.9961 60.9001C44.1775 47.2661 55.5298 37.0444 69.5262 34.311L67.7447 25.1887C50.3809 28.5797 36.2974 41.2606 31.1099 58.1748L39.9961 60.9001ZM29.2557 79.503C34.1972 74.1945 37.8696 67.8338 39.9961 60.9001L31.1099 58.1748C29.3958 63.7639 26.4356 68.891 22.4524 73.17L29.2557 79.503ZM20.994 118.371C16.3629 104.883 19.539 89.9412 29.2557 79.503L22.4524 73.17C10.398 86.1196 6.45783 104.657 12.203 121.39L20.994 118.371ZM23.2393 139.734C24.1169 132.535 23.3491 125.231 20.994 118.371L12.203 121.39C14.1014 126.919 14.7203 132.807 14.0129 138.61L23.2393 139.734ZM39.4017 176.036C27.7271 167.846 21.5138 153.891 23.2393 139.734L14.0129 138.61C11.8723 156.172 19.5805 173.485 34.0638 183.645L39.4017 176.036ZM53.7751 191.999C50.2535 185.659 45.3389 180.201 39.4017 176.036L34.0638 183.645C38.8496 187.002 42.8111 191.402 45.6498 196.512L53.7751 191.999ZM88.1882 211.867C73.9293 212.104 60.6999 204.466 53.7751 191.999L45.6498 196.512C54.2405 211.978 70.6529 221.454 88.3422 221.161L88.1882 211.867ZM109.2 216.334C102.624 213.274 95.4397 211.747 88.1882 211.867L88.3422 221.161C94.1874 221.064 99.9784 222.295 105.279 224.761L109.2 216.334ZM148.719 212.18C137.322 220.752 122.129 222.349 109.2 216.334L105.279 224.761C121.32 232.224 140.167 230.243 154.306 219.608L148.719 212.18ZM168.342 203.443C161.224 204.833 154.514 207.82 148.719 212.18L154.306 219.608C158.978 216.094 164.386 213.686 170.124 212.565L168.342 203.443ZM197.872 176.854C193.691 190.488 182.339 200.71 168.342 203.443L170.124 212.565C187.488 209.174 201.571 196.493 206.759 179.579L197.872 176.854ZM208.613 158.251C203.671 163.559 199.999 169.92 197.872 176.854L206.759 179.579C208.473 173.99 211.433 168.863 215.416 164.584L208.613 158.251ZM216.875 119.383C221.506 132.871 218.329 147.813 208.613 158.251L215.416 164.584C227.47 151.634 231.411 133.097 225.665 116.364L216.875 119.383ZM214.629 98.0195C213.752 105.219 214.519 112.523 216.875 119.383L225.665 116.364C223.767 110.835 223.148 104.947 223.856 99.1441L214.629 98.0195ZM198.467 61.7182C210.141 69.9081 216.355 83.8635 214.629 98.0195L223.856 99.1441C225.996 81.5823 218.288 64.2694 203.805 54.1091L198.467 61.7182ZM184.093 45.7549C187.615 52.0949 192.53 57.5531 198.467 61.7182L203.805 54.1091C199.019 50.7518 195.057 46.3521 192.219 41.2416L184.093 45.7549ZM132.787 86.079C136.044 85.5012 139.245 87.3492 140.373 90.459L149.111 87.2892C146.442 79.9323 138.869 75.5601 131.163 76.9273L132.787 86.079ZM125.307 87.4061L132.787 86.079L131.163 76.9273L123.683 78.2543L125.307 87.4061ZM117.351 86.8099C119.911 87.673 122.647 87.8781 125.307 87.4061L123.683 78.2543C122.559 78.4538 121.402 78.3672 120.32 78.0023L117.351 86.8099ZM110.152 84.3828L117.351 86.8099L120.32 78.0023L113.122 75.5752L110.152 84.3828ZM101.998 87.5831C103.577 84.6763 107.017 83.3259 110.152 84.3828L113.122 75.5752C105.706 73.0749 97.5659 76.2695 93.8303 83.1466L101.998 87.5831ZM98.3717 94.2586L101.998 87.5831L93.8304 83.1465L90.2042 89.822L98.3717 94.2586ZM92.9449 100.107C95.2159 98.644 97.0821 96.6326 98.3717 94.2586L90.2042 89.822C89.6591 90.8255 88.8703 91.6757 87.9103 92.2942L92.9449 100.107ZM86.559 104.222L92.9449 100.107L87.9103 92.2942L81.5245 96.4091L86.559 104.222ZM83.977 112.593C82.6888 109.546 83.7783 106.014 86.559 104.222L81.5245 96.4091C74.9459 100.648 72.3685 109.004 75.416 116.212L83.977 112.593ZM86.9353 119.59L83.977 112.593L75.416 116.212L78.3743 123.209L86.9353 119.59ZM88.1244 127.479C88.3963 124.792 87.9873 122.078 86.9353 119.59L78.3743 123.209C78.819 124.261 78.9918 125.408 78.8769 126.544L88.1244 127.479ZM87.36 135.038L88.1244 127.479L78.8769 126.544L78.1125 134.102L87.36 135.038ZM92.2946 142.275C89.1093 141.383 87.0272 138.329 87.36 135.038L78.1125 134.102C77.3251 141.889 82.2509 149.114 89.7867 151.225L92.2946 142.275ZM99.6096 144.325L92.2946 142.275L89.7867 151.225L97.1017 153.275L99.6096 144.325ZM106.519 148.315C104.587 146.426 102.211 145.054 99.6096 144.325L97.1017 153.275C98.2013 153.583 99.2057 154.163 100.022 154.961L106.519 148.315ZM111.952 153.625L106.519 148.315L100.022 154.961L105.455 160.271L111.952 153.625ZM120.687 154.279C118.003 156.213 114.318 155.937 111.952 153.625L105.455 160.271C111.052 165.742 119.772 166.395 126.121 161.82L120.687 154.279ZM126.851 149.838L120.687 154.279L126.121 161.82L132.284 157.379L126.851 149.838ZM134.278 146.923C131.597 147.256 129.043 148.259 126.851 149.838L132.284 157.379C133.211 156.712 134.291 156.288 135.424 156.147L134.278 146.923ZM141.817 145.987L134.278 146.923L135.424 156.147L142.963 155.21L141.817 145.987ZM147.775 139.565C147.613 142.869 145.099 145.579 141.817 145.987L142.963 155.21C150.729 154.245 156.677 147.835 157.058 140.019L147.775 139.565ZM148.145 131.977L147.775 139.565L157.058 140.019L157.429 132.431L148.145 131.977ZM150.497 124.353C149.086 126.657 148.277 129.279 148.145 131.977L157.429 132.431C157.485 131.29 157.827 130.182 158.423 129.208L150.497 124.353ZM154.465 117.875L150.497 124.353L158.423 129.208L162.391 122.73L154.465 117.875ZM153.16 109.213C155.642 111.399 156.193 115.054 154.465 117.875L162.391 122.73C166.479 116.057 165.176 107.41 159.302 102.238L153.16 109.213ZM147.458 104.193L153.16 109.213L159.302 102.238L153.601 97.2171L147.458 104.193ZM142.964 97.6003C143.885 100.14 145.431 102.407 147.459 104.193L153.601 97.2171C152.744 96.4624 152.091 95.5041 151.701 94.4306L142.964 97.6003ZM140.373 90.459L142.964 97.6003L151.701 94.4306L149.111 87.2893L140.373 90.459Z" fill="#E42A93" mask="url(#path-8-inside-1_307_11744)"/>
<mask id="path-10-inside-2_307_11744" fill="white">
<path fill-rule="evenodd" clip-rule="evenodd" d="M118.894 237.634C184.558 237.634 237.789 184.438 237.789 118.817C237.789 53.1961 184.558 0 118.894 0C53.2308 0 0 53.1961 0 118.817C0 184.438 53.2308 237.634 118.894 237.634ZM118.893 145.307C133.566 145.307 145.461 133.412 145.461 118.739C145.461 104.067 133.566 92.1721 118.893 92.1721C104.221 92.1721 92.3262 104.067 92.3262 118.739C92.3262 133.412 104.221 145.307 118.893 145.307Z"/>
</mask>
<path d="M233.141 118.817C233.141 181.868 181.994 232.986 118.894 232.986V242.281C187.122 242.281 242.436 187.007 242.436 118.817H233.141ZM118.894 4.64733C181.994 4.64733 233.141 55.7656 233.141 118.817H242.436C242.436 50.6266 187.122 -4.64733 118.894 -4.64733V4.64733ZM4.64733 118.817C4.64733 55.7656 55.7946 4.64733 118.894 4.64733V-4.64733C50.667 -4.64733 -4.64733 50.6266 -4.64733 118.817H4.64733ZM118.894 232.986C55.7946 232.986 4.64733 181.868 4.64733 118.817H-4.64733C-4.64733 187.007 50.667 242.281 118.894 242.281V232.986ZM140.813 118.739C140.813 130.845 130.999 140.659 118.893 140.659V149.954C136.133 149.954 150.108 135.979 150.108 118.739H140.813ZM118.893 96.8195C130.999 96.8195 140.813 106.633 140.813 118.739H150.108C150.108 101.5 136.133 87.5248 118.893 87.5248V96.8195ZM96.9735 118.739C96.9735 106.633 106.787 96.8195 118.893 96.8195V87.5248C101.654 87.5248 87.6788 101.5 87.6788 118.739H96.9735ZM118.893 140.659C106.787 140.659 96.9735 130.845 96.9735 118.739H87.6788C87.6788 135.979 101.654 149.954 118.893 149.954V140.659Z" fill="black" mask="url(#path-10-inside-2_307_11744)"/>
<path d="M56.8529 178.176C57.6535 177.733 62.1953 175.14 67.0755 177.318" stroke="#C91279" stroke-width="3.66728" stroke-linecap="round"/>
<path d="M183.098 84.1828C183.393 83.3164 185.016 78.3447 190.095 76.6809" stroke="#FFB300" stroke-width="3.66728" stroke-linecap="round"/>
<path d="M181.893 188.101C181.782 187.193 181.081 182.01 184.931 178.303" stroke="#617CF5" stroke-width="3.66728" stroke-linecap="round"/>
<path d="M138.648 171.951C138.776 172.858 139.574 178.026 135.795 181.805" stroke="white" stroke-width="3.66728" stroke-linecap="round"/>
<path d="M44.6144 127.534C45.4633 127.876 50.3386 129.769 51.7219 134.931" stroke="white" stroke-width="3.66728" stroke-linecap="round"/>
<path d="M35.7863 91.7072C35.9147 92.6135 36.7129 97.7821 32.9339 101.561" stroke="#FFB300" stroke-width="3.66728" stroke-linecap="round"/>
<path d="M203.908 119.438C203.188 120.003 199.111 123.278 193.948 121.895" stroke="#617CF5" stroke-width="3.66728" stroke-linecap="round"/>
<path d="M179.697 145.992C180.609 145.91 185.811 145.375 189.394 149.34" stroke="#C91279" stroke-width="3.66728" stroke-linecap="round"/>
<path d="M151.759 171.487C152.366 172.173 155.878 176.047 154.805 181.283" stroke="#FFB300" stroke-width="3.66728" stroke-linecap="round"/>
<path d="M97.5947 168.081C98.4168 168.484 103.142 170.724 104.149 175.973" stroke="#FFB300" stroke-width="3.66728" stroke-linecap="round"/>
<path d="M61.0339 157.098C61.8964 156.792 66.8027 154.981 71.2585 157.932" stroke="#617CF5" stroke-width="3.66728" stroke-linecap="round"/>
<path d="M48.6584 159.644C48.1034 160.372 44.9847 164.57 39.6404 164.534" stroke="#FFB300" stroke-width="3.66728" stroke-linecap="round"/>
<path d="M72.5053 190.076C72.8959 190.904 75.187 195.605 72.6947 200.333" stroke="white" stroke-width="3.66728" stroke-linecap="round"/>
<path d="M120.67 191.855C121.509 192.221 126.33 194.249 127.569 199.448" stroke="#C91279" stroke-width="3.66728" stroke-linecap="round"/>
<path d="M162.468 166.44C162.585 165.533 163.189 160.338 167.837 157.699" stroke="#617CF5" stroke-width="3.66728" stroke-linecap="round"/>
<path d="M111.795 38.7634C110.887 38.6527 105.688 38.0861 103.015 33.4577" stroke="white" stroke-width="3.66728" stroke-linecap="round"/>
<path d="M90.6922 58.3653C89.85 58.7238 85.0641 60.8326 80.4357 58.1604" stroke="white" stroke-width="3.66728" stroke-linecap="round"/>
<path d="M71.8789 77.9203C71.3288 78.6518 68.2385 82.871 62.8941 82.8711" stroke="#FFB300" stroke-width="3.66728" stroke-linecap="round"/>
<path d="M57.4618 63.2235C56.8976 62.5028 53.6219 58.4258 55.0051 53.2634" stroke="#C91279" stroke-width="3.66728" stroke-linecap="round"/>
<path d="M63.1845 124.284C62.6202 123.564 59.3446 119.487 60.7278 114.324" stroke="#617CF5" stroke-width="3.66728" stroke-linecap="round"/>
<path d="M111.015 205.417C110.13 205.182 105.06 203.9 103.055 198.946" stroke="#617CF5" stroke-width="3.66728" stroke-linecap="round"/>
<path d="M145.877 48.8947C145.617 48.0173 144.065 43.0229 147.245 38.7278" stroke="#FFB300" stroke-width="3.66728" stroke-linecap="round"/>
<path d="M129.606 63.1712C128.705 63.0094 123.547 62.1495 121.14 57.3774" stroke="#617CF5" stroke-width="3.66728" stroke-linecap="round"/>
<path d="M206.321 106.625C205.757 105.904 202.481 101.827 203.865 96.6648" stroke="white" stroke-width="3.66728" stroke-linecap="round"/>
<path d="M166.39 87.3457C165.52 87.0636 160.524 85.5145 158.785 80.461" stroke="#617CF5" stroke-width="3.66728" stroke-linecap="round"/>
<path d="M171.642 101.56C172.548 101.431 177.717 100.633 181.496 104.412" stroke="white" stroke-width="3.66728" stroke-linecap="round"/>
<path d="M172.677 133.091C172.787 132.183 173.354 126.984 177.982 124.311" stroke="#FFB300" stroke-width="3.66728" stroke-linecap="round"/>
<path d="M172.617 59.9525C171.897 60.5167 167.82 63.7924 162.657 62.4092" stroke="#C91279" stroke-width="3.66728" stroke-linecap="round"/>
<path d="M93.843 30.1713C84.4686 34.8365 75.641 40.2665 65.5717 52.4012C67.5856 51.6267 69.1347 49.9227 71.4583 48.1414C79.4187 42.0393 82.6143 39.1581 89.5853 35.0333C102.675 27.2877 112.655 26.5422 117.779 27.3652C121.265 27.925 121.309 31.8204 120.952 33.4243C120.023 37.6069 116.479 42.433 115.608 43.7259C113.979 46.1447 105.459 58.1503 103.447 60.3014C102.112 61.7293 79.0823 85.8983 77.9979 87.0602C76.9135 88.222 47.2148 113.823 46.2079 114.52C45.2009 115.217 34.3888 124.249 31.9116 134.463C31.1701 137.52 33.4609 142.441 34.9326 143.603C37.4281 145.573 44.3052 147.166 49.9594 144.455C56.4092 141.362 72.5761 130.513 74.1252 127.724C74.3126 127.387 79.2064 121.404 74.4351 126.175C46.0089 151.658 21.4555 143.525 42.291 120.908C63.4407 103.396 82.5004 87.1598 95.6578 73.0407C124.283 43.7259 127.598 30.102 124.283 26.1435C122.93 24.5282 118.399 17.9508 93.843 30.1713Z" fill="white"/>
<path d="M175.797 139.845C166.412 144.177 157.573 149.22 147.492 160.488C149.508 159.769 151.059 158.186 153.386 156.532C161.356 150.866 164.555 148.19 171.535 144.36C184.64 137.167 194.632 136.475 199.762 137.239C203.252 137.759 202.71 141.554 202.353 143.044C201.422 146.928 196.943 151.625 196.071 152.826C194.44 155.072 179.241 168.162 177.227 170.16C175.89 171.486 155.977 188.357 154.892 189.436C153.806 190.515 146.439 197.492 145.198 198.786C144.383 199.636 143.716 200.698 143.139 201.849C142.983 202.161 142.715 203.318 142.872 203.677C143.011 203.999 143.571 205.141 146.363 204.638C153.392 203.37 161.329 199.362 165.129 194.614C165.36 194.327 166.603 193.392 166.293 192.888C162.063 196.187 147.263 202.963 146.363 202.023C145.462 201.082 146.589 199.453 156.616 190.618C208.962 147.535 211.425 140.67 208.246 136.105C207.102 134.461 200.383 128.497 175.797 139.845Z" fill="white"/>
<path d="M168.772 78.115C171.308 76.4034 173.717 74.4327 175.961 72.2326C178.164 70.015 180.211 67.5584 181.719 64.6736C182.507 63.2045 183.792 61.1031 184.084 59.4863L184.18 58.8557C184.206 58.6457 184.215 58.4313 184.233 58.2181C184.334 56.8734 184.503 55.7777 184.084 54.5911C183.516 52.9277 182.387 51.5321 181.086 50.5093C179.784 49.4865 178.286 48.8001 176.777 48.3311C176.395 48.2248 176.021 48.1135 175.633 48.0131C175.228 47.9307 174.827 47.8309 174.415 47.7879C173.607 47.6746 172.784 47.6368 171.952 47.6748C170.364 47.752 167.7 48.3626 166.128 48.8961C163.085 49.9238 160.313 51.4583 157.732 53.1956C155.139 54.9257 152.723 56.872 150.386 58.8857C148.062 60.9174 145.821 63.0304 143.664 65.2247C143.631 65.2596 143.605 65.3011 143.586 65.3463C143.567 65.3915 143.557 65.4393 143.556 65.4866C143.555 65.5338 143.564 65.5792 143.581 65.6197C143.598 65.6602 143.624 65.6948 143.656 65.7211C143.712 65.7795 143.786 65.8133 143.867 65.8173C143.948 65.8213 144.032 65.7953 144.106 65.7432C146.541 63.8861 148.939 61.9976 151.396 60.2099C153.843 58.41 156.329 56.6882 158.883 55.143C161.444 53.6313 164.085 52.2558 166.805 51.4433C168.152 51.0295 169.516 50.7878 170.87 50.7233C171.537 50.6997 172.198 50.7371 172.846 50.8354C173.173 50.8691 173.484 50.9573 173.804 51.0233L174.784 51.307C176.072 51.7262 177.296 52.2751 178.293 53.0534C179.289 53.8318 180.092 54.7807 180.505 55.9323C180.965 57.0624 181.041 58.3737 180.855 59.7029C180.669 61.032 180.221 62.3839 179.63 63.6946C179.04 65.0054 178.276 66.2719 177.445 67.4976C176.605 68.7437 175.694 69.9332 174.719 71.0571C172.783 73.3634 170.595 75.4807 168.357 77.5621C168.323 77.5952 168.295 77.6353 168.274 77.6797C168.254 77.724 168.242 77.7714 168.239 77.8188C168.236 77.8661 168.242 77.9121 168.257 77.9538C168.272 77.9954 168.296 78.0316 168.326 78.0599C168.38 78.1197 168.452 78.1563 168.532 78.1645C168.612 78.1727 168.696 78.1522 168.772 78.1058" fill="#FFFEFD"/>
<path d="M97.4041 158.345C94.6451 160.132 92.0225 162.172 89.5761 164.436C87.1758 166.715 84.9416 169.228 83.2923 172.149C82.4657 173.605 81.8113 175.18 81.4909 176.851L81.3798 177.48C81.3493 177.69 81.3378 177.904 81.318 178.117C81.2653 178.541 81.2874 178.972 81.2948 179.401C81.3547 180.254 81.4968 181.121 81.8231 181.928C82.4294 183.567 83.6458 184.92 85.0555 185.892C86.474 186.873 88.0835 187.503 89.7187 187.922C90.132 188.016 90.5369 188.115 90.9572 188.202C91.3962 188.271 91.8336 188.358 92.2774 188.387C93.1532 188.474 94.0469 188.484 94.9497 188.419C96.6716 188.291 98.4089 187.932 100.117 187.35C103.421 186.231 106.436 184.614 109.247 182.796C112.069 180.99 114.7 178.974 117.245 176.893C119.778 174.795 122.219 172.619 124.57 170.363C124.72 170.218 124.727 169.996 124.582 169.867C124.521 169.811 124.441 169.78 124.352 169.778C124.264 169.777 124.173 169.806 124.092 169.86C121.443 171.789 118.829 173.744 116.157 175.606C113.498 177.479 110.788 179.272 108.009 180.893C105.221 182.485 102.352 183.937 99.3967 184.834C97.9208 185.279 96.4399 185.587 94.9832 185.682C94.2586 185.727 93.5418 185.711 92.8399 185.635C92.4866 185.609 92.148 185.534 91.8038 185.479L90.7414 185.228C89.3477 184.852 88.0204 184.348 86.9457 183.602C85.8711 182.856 85.0039 181.938 84.5604 180.806C84.0677 179.696 83.9917 178.393 84.1995 177.063C84.4073 175.734 84.9039 174.374 85.5494 173.048C86.1949 171.722 87.0291 170.436 87.9392 169.19C88.8567 167.923 89.8506 166.71 90.9133 165.56C93.0265 163.2 95.4101 161.021 97.8478 158.876L97.8502 158.873C98.0078 158.734 98.0253 158.512 97.8885 158.376C97.8307 158.318 97.7527 158.283 97.6658 158.277C97.5788 158.271 97.4875 158.295 97.4051 158.344" fill="#FFFEFD"/>
<defs>
<linearGradient id="paint0_linear_307_11744" x1="93.5529" y1="74.8089" x2="144.337" y2="162.77" gradientUnits="userSpaceOnUse">
<stop stop-color="#F4A63E"/>
<stop offset="1" stop-color="#E19837"/>
</linearGradient>
</defs>
</svg>
